<?xml version="1.0" encoding="UTF-8" standalone="no"?>
<!DOCTYPE svg PUBLIC "-//W3C//DTD SVG 1.1//EN" "http://www.w3.org/Graphics/SVG/1.1/DTD/svg11.dtd">
<!-- Created with Vectornator (http://vectornator.io/) -->
<svg height="100%" stroke-miterlimit="10" style="fill-rule:nonzero;clip-rule:evenodd;stroke-linecap:round;stroke-linejoin:round;" version="1.1" viewBox="0 0 2400 2400" width="100%" xml:space="preserve" xmlns="http://www.w3.org/2000/svg" xmlns:vectornator="http://vectornator.io" xmlns:xlink="http://www.w3.org/1999/xlink">
<defs>
<filter color-interpolation-filters="sRGB" filterUnits="userSpaceOnUse" height="155.841" id="Filter" width="163.999" x="1118" y="525.341">
<feDropShadow dx="0" dy="-0" flood-color="#ffac00" flood-opacity="1" in="SourceGraphic" result="Shadow" stdDeviation="4.88699"/>
</filter>
<filter color-interpolation-filters="sRGB" filterUnits="userSpaceOnUse" height="66.1335" id="Filter_2" width="66.1335" x="1166.93" y="514.925">
<feDropShadow dx="0" dy="-0" flood-color="#ffac00" flood-opacity="1" in="SourceGraphic" result="Shadow" stdDeviation="4.88699"/>
</filter>
<filter color-interpolation-filters="sRGB" filterUnits="userSpaceOnUse" height="72.5939" id="Filter_3" width="69.2891" x="885.905" y="2294.59">
<feDropShadow dx="0" dy="-0" flood-color="#000000" flood-opacity="1" in="SourceGraphic" result="Shadow" stdDeviation="1.96682"/>
</filter>
<filter color-interpolation-filters="sRGB" filterUnits="userSpaceOnUse" height="37.0846" id="Filter_4" width="10.5" x="1155.61" y="2332.36">
<feComponentTransfer in="SourceGraphic" result="Alpha">
<feFuncA slope="0" type="linear"/>
</feComponentTransfer>
<feDropShadow dx="0" dy="-0" flood-color="#000000" flood-opacity="1" in="Alpha" result="Shadow" stdDeviation="1.5"/>
</filter>
</defs>
<g id="Layer-1" vectornator:layerName="Layer 1">
<g opacity="0">
<path d="M1182.48 541.672C826.781 550.991 541.234 842.064 541.234 1200.02C541.234 1563.85 836.185 1858.77 1200.02 1858.77C1563.85 1858.77 1858.77 1563.85 1858.77 1200.02C1858.77 843.07 1574.85 552.606 1220.55 541.734C1220.55 541.905 1220.61 542.063 1220.61 542.234C1220.61 552.778 1212.06 561.328 1201.52 561.328C1190.97 561.328 1182.42 552.778 1182.42 542.234C1182.42 542.041 1182.48 541.864 1182.48 541.672Z" fill="none" opacity="1" stroke="#000000" stroke-linecap="butt" stroke-linejoin="round" stroke-width="12"/>
<path d="M1200.02 523.141C826.192 523.141 523.141 826.192 523.141 1200.02C523.141 1573.84 826.192 1876.86 1200.02 1876.86C1573.84 1876.86 1876.86 1573.84 1876.86 1200.02C1876.86 826.946 1575.05 524.423 1202.27 523.203C1202.23 523.202 1202.2 523.204 1202.17 523.203C1201.95 523.195 1201.74 523.141 1201.52 523.141C1201.41 523.141 1201.31 523.17 1201.2 523.172C1200.81 523.171 1200.41 523.141 1200.02 523.141ZM1182.48 541.672C1182.48 541.864 1182.42 542.041 1182.42 542.234C1182.42 552.778 1190.97 561.328 1201.52 561.328C1202.83 561.328 1204.12 561.208 1205.36 560.953C1214.06 559.172 1220.61 551.46 1220.61 542.234C1220.61 542.063 1220.55 541.905 1220.55 541.734C1574.85 552.606 1858.77 843.07 1858.77 1200.02C1858.77 1563.85 1563.85 1858.77 1200.02 1858.77C836.185 1858.77 541.234 1563.85 541.234 1200.02C541.234 842.064 826.781 550.991 1182.48 541.672Z" fill="#ffe9ab" fill-rule="nonzero" opacity="1" stroke="#000000" stroke-linecap="butt" stroke-linejoin="round" stroke-width="7.26848"/>
<path d="M1182.48 541.672C826.781 550.991 541.234 842.064 541.234 1200.02C541.234 1563.85 836.185 1858.77 1200.02 1858.77C1563.85 1858.77 1858.77 1563.85 1858.77 1200.02C1858.77 843.07 1574.85 552.606 1220.55 541.734C1220.55 541.905 1220.61 542.063 1220.61 542.234C1220.61 552.778 1212.06 561.328 1201.52 561.328C1190.97 561.328 1182.42 552.778 1182.42 542.234C1182.42 542.041 1182.48 541.864 1182.48 541.672Z" fill="none" opacity="1" stroke="#000000" stroke-linecap="butt" stroke-linejoin="round" stroke-width="12"/>
<path d="M1182.48 541.672C826.781 550.991 541.234 842.064 541.234 1200.02C541.234 1563.85 836.185 1858.77 1200.02 1858.77C1563.85 1858.77 1858.77 1563.85 1858.77 1200.02C1858.77 843.07 1574.85 552.606 1220.55 541.734C1220.55 541.905 1220.61 542.063 1220.61 542.234C1220.61 552.778 1212.06 561.328 1201.52 561.328C1190.97 561.328 1182.42 552.778 1182.42 542.234C1182.42 542.041 1182.48 541.864 1182.48 541.672Z" fill="none" opacity="1" stroke="#000000" stroke-linecap="butt" stroke-linejoin="round" stroke-width="12"/>
</g>
<g opacity="0">
<g opacity="1">
<g opacity="1">
<path d="M1200.01 1179.71C1200.01 1132.16 1200.01 567.445 1200.01 567.445" fill="none" stroke="#000000" stroke-dasharray="0.0,6.0" stroke-linecap="round" stroke-linejoin="round" stroke-width="3"/>
<g fill="#000000" stroke="none">
<path d="M1200.01 1199.96C1205.81 1199.96 1210.51 1195.26 1210.51 1189.46C1210.51 1183.67 1205.81 1178.96 1200.01 1178.96C1194.21 1178.96 1189.51 1183.67 1189.51 1189.46C1189.51 1195.26 1194.21 1199.96 1200.01 1199.96ZM1200.01 1196.96C1195.87 1196.96 1192.51 1193.61 1192.51 1189.46C1192.51 1185.32 1195.87 1181.96 1200.01 1181.96C1204.15 1181.96 1207.51 1185.32 1207.51 1189.46C1207.51 1193.61 1204.15 1196.96 1200.01 1196.96Z" fill="#000000"/>
</g>
</g>
<g opacity="1">
<path d="M1143.68 539.059C1141.41 539.059 1139.21 539.925 1137.55 541.465C1136.61 542.335 1135.54 543.581 1134.52 545.277C1130.52 551.896 1130.48 560.165 1136.52 567.871L1154.33 590.59C1161.13 599.264 1170.01 615.216 1173.83 625.652L1183.83 653.027C1187.01 661.709 1192.18 667.465 1199.8 667.465C1207.42 667.465 1212.6 661.736 1215.77 653.059L1225.8 625.652C1229.63 615.177 1238.52 599.207 1245.3 590.559L1263.11 567.871C1269.77 559.376 1269.68 550.593 1264.64 544.152C1263.32 542.464 1261.97 541.273 1260.77 540.496C1259.31 539.556 1257.63 539.059 1255.89 539.059L1232.86 539.059C1227.89 539.059 1223.86 543.088 1223.86 548.059C1223.86 553.029 1227.89 557.059 1232.86 557.059L1248.71 557.059L1231.11 579.465C1223.16 589.608 1213.37 607.226 1208.89 619.465L1199.8 644.34L1190.74 619.496C1186.27 607.282 1176.49 589.63 1168.52 579.465L1150.96 557.059L1167.58 557.059C1172.55 557.059 1176.58 553.029 1176.58 548.059C1176.58 543.088 1172.55 539.059 1167.58 539.059L1143.68 539.059Z" fill="#ffac00" fill-rule="nonzero" filter="url(#Filter)" stroke="#000000" stroke-linecap="round" stroke-linejoin="round" stroke-width="3" vectornator:shadowAngle="-1.56298" vectornator:shadowColor="#ffac00" vectornator:shadowOffset="0" vectornator:shadowOpacity="1" vectornator:shadowRadius="9.77397"/>
<path d="M1200.01 528.538C1189.27 528.538 1180.54 537.232 1180.54 547.976C1180.54 558.72 1189.27 567.445 1200.01 567.445C1210.75 567.445 1219.45 558.72 1219.45 547.976C1219.45 537.232 1210.75 528.538 1200.01 528.538ZM1200.01 537.538C1205.78 537.538 1210.45 542.203 1210.45 547.976C1210.45 553.749 1205.78 558.445 1200.01 558.445C1194.24 558.445 1189.54 553.749 1189.54 547.976C1189.54 542.203 1194.24 537.538 1200.01 537.538Z" fill="#ffffff" fill-rule="nonzero" filter="url(#Filter_2)" stroke="#000000" stroke-linecap="butt" stroke-linejoin="round" stroke-width="2.79234" vectornator:shadowAngle="-1.56298" vectornator:shadowColor="#ffac00" vectornator:shadowOffset="0" vectornator:shadowOpacity="1" vectornator:shadowRadius="9.77397"/>
</g>
</g>
<g opacity="1">
<path d="M1200 1203.88C1200 1231.99 1200 1914.87 1200 1914.87" fill="none" stroke="#df364c" stroke-linecap="square" stroke-linejoin="round" stroke-width="3"/>
<g fill="#df364c" stroke="none">
<path d="M1200 1934.37C1205.8 1934.37 1210.5 1929.66 1210.5 1923.87C1210.5 1918.07 1205.8 1913.37 1200 1913.37C1194.2 1913.37 1189.5 1918.07 1189.5 1923.87C1189.5 1929.66 1194.2 1934.37 1200 1934.37Z" fill="#df364c"/>
<path d="M1210.16 1212.43L1201.16 1201.43L1200 1200.01L1198.84 1201.43L1189.84 1212.43C1189.31 1213.07 1189.41 1214.01 1190.05 1214.54C1190.69 1215.06 1191.64 1214.97 1192.16 1214.33L1201.16 1203.33L1198.84 1203.33L1207.84 1214.33C1208.36 1214.97 1209.31 1215.06 1209.95 1214.54C1210.59 1214.01 1210.69 1213.07 1210.16 1212.43Z" fill="#df364c"/>
</g>
</g>
</g>
<g opacity="0">
<path d="M1202.44 523.141L1174.43 502.785L1185.13 469.85L1219.76 469.85L1230.46 502.785L1202.44 523.141Z" fill="#000000" fill-rule="nonzero" opacity="1" stroke="#ffe9ab" stroke-linecap="round" stroke-linejoin="round" stroke-width="8.39383"/>
<path d="M1697.12 717.702L1691.56 683.521L1722.35 667.668L1746.94 692.052L1731.35 722.974L1697.12 717.702Z" fill="#000000" fill-rule="nonzero" opacity="1" stroke="#ffe9ab" stroke-linecap="round" stroke-linejoin="round" stroke-width="8.39383"/>
<path d="M1876.86 1216.45L1896.98 1188.26L1930 1198.68L1930.3 1233.31L1897.45 1244.29L1876.86 1216.45Z" fill="#000000" fill-rule="nonzero" opacity="1" stroke="#ffe9ab" stroke-linecap="round" stroke-linejoin="round" stroke-width="8.39383"/>
<path d="M1668.93 1683.73L1703.06 1677.88L1719.17 1708.54L1695 1733.33L1663.95 1718L1668.93 1683.73Z" fill="#000000" fill-rule="nonzero" opacity="1" stroke="#ffe9ab" stroke-linecap="round" stroke-linejoin="round" stroke-width="8.39383"/>
<path d="M1199.65 1876.86L1228.01 1896.74L1217.87 1929.85L1183.24 1930.44L1171.98 1897.69L1199.65 1876.86Z" fill="#000000" fill-rule="nonzero" opacity="1" stroke="#ffe9ab" stroke-linecap="round" stroke-linejoin="round" stroke-width="8.39383"/>
<path d="M711.401 1682.88L717.542 1716.96L687.026 1733.33L662.025 1709.37L677.089 1678.19L711.401 1682.88Z" fill="#000000" fill-rule="nonzero" opacity="1" stroke="#ffe9ab" stroke-linecap="round" stroke-linejoin="round" stroke-width="8.39383"/>
<path d="M523.141 1199.48L503.504 1228.01L470.307 1218.15L469.427 1183.53L502.079 1171.99L523.141 1199.48Z" fill="#000000" fill-rule="nonzero" opacity="1" stroke="#ffe9ab" stroke-linecap="round" stroke-linejoin="round" stroke-width="8.39383"/>
<path d="M712.684 716.817L678.655 723.247L662.025 692.871L685.775 667.668L717.084 682.468L712.684 716.817Z" fill="#000000" fill-rule="nonzero" opacity="1" stroke="#ffe9ab" stroke-linecap="round" stroke-linejoin="round" stroke-width="8.39383"/>
</g>
<g opacity="1">
<g opacity="1">
<path d="M1160.86 2306.94C1154.26 2306.94 1148.89 2312.31 1148.89 2318.91C1148.89 2325.52 1154.26 2330.89 1160.86 2330.89C1167.47 2330.89 1172.84 2325.52 1172.84 2318.91C1172.84 2312.31 1167.47 2306.94 1160.86 2306.94ZM1158.32 2321.45C1159.45 2322.58 1161.29 2322.77 1162.65 2322.02C1163.14 2321.75 1163.73 2321.78 1164.13 2322.18L1164.15 2322.2C1164.71 2322.76 1164.57 2323.68 1163.89 2324.08C1162.99 2324.61 1161.95 2324.9 1160.86 2324.9C1158.91 2324.9 1157.09 2323.97 1155.93 2322.31C1154.52 2320.3 1154.52 2317.52 1155.93 2315.52C1157.09 2313.86 1158.91 2312.93 1160.86 2312.93C1161.95 2312.93 1162.99 2313.21 1163.89 2313.75C1164.57 2314.15 1164.71 2315.07 1164.15 2315.62L1164.13 2315.65C1163.73 2316.05 1163.14 2316.08 1162.65 2315.81C1161.29 2315.06 1159.45 2315.24 1158.32 2316.37C1156.92 2317.77 1156.92 2320.05 1158.32 2321.45Z" fill="#ffe9ab" fill-rule="nonzero" opacity="1" stroke="#000000" stroke-linecap="round" stroke-linejoin="round" stroke-width="0.87" vectornator:layerName="path"/>
</g>
<g opacity="1">
<path d="M1044.48 2310.81C1046.27 2310.81 1047.62 2311.61 1048.77 2312.63L1048.77 2310.11C1047.22 2308.8 1045.47 2308.56 1044.48 2308.56C1042.45 2308.56 1036.83 2308.75 1036.83 2318.92C1036.83 2329.09 1042.45 2329.28 1044.48 2329.28C1045.47 2329.28 1047.22 2329.04 1048.77 2327.73L1048.77 2325.21C1047.62 2326.23 1046.27 2327.03 1044.48 2327.03C1042.91 2327.03 1039.64 2326.71 1039.64 2318.92C1039.64 2311.13 1042.91 2310.81 1044.48 2310.81Z" fill="#ffffff" fill-rule="nonzero" opacity="1" stroke="#ffe9ab" stroke-linecap="round" stroke-linejoin="round" stroke-width="0.87"/>
<path d="M1056.3 2315.34C1054.87 2315.34 1050.62 2315.77 1050.62 2322.31C1050.62 2328.85 1054.87 2329.28 1056.3 2329.28C1057.74 2329.28 1061.99 2328.85 1061.99 2322.31C1061.99 2315.77 1057.74 2315.34 1056.3 2315.34ZM1056.3 2327.03C1055.37 2327.03 1053.43 2326.38 1053.43 2322.31C1053.43 2318.24 1055.37 2317.6 1056.3 2317.6C1057.24 2317.6 1059.18 2318.24 1059.18 2322.31C1059.18 2326.38 1057.24 2327.03 1056.3 2327.03Z" fill="#ffffff" fill-rule="nonzero" opacity="1" stroke="#ffe9ab" stroke-linecap="round" stroke-linejoin="round" stroke-width="0.87"/>
<path d="M1067.36 2315.48L1064.55 2315.48L1064.55 2329.15L1067.36 2329.15L1067.36 2323.44C1070.01 2323.44 1073.68 2323.15 1073.68 2319.46C1073.68 2315.77 1070.01 2315.48 1067.36 2315.48ZM1067.36 2321.19L1067.36 2317.73C1068 2317.73 1070.86 2317.74 1070.86 2319.46C1070.86 2321.17 1068 2321.19 1067.36 2321.19Z" fill="#ffffff" fill-rule="nonzero" opacity="1" stroke="#ffe9ab" stroke-linecap="round" stroke-linejoin="round" stroke-width="0.87"/>
<path d="M1081.53 2315.48L1079.47 2320.84L1077.41 2315.48L1074.6 2315.48L1078.06 2323.44L1078.06 2323.44L1078.06 2329.15L1080.87 2329.15L1080.87 2323.44L1084.34 2315.48L1081.53 2315.48Z" fill="#ffffff" fill-rule="nonzero" opacity="1" stroke="#ffe9ab" stroke-linecap="round" stroke-linejoin="round" stroke-width="0.87"/>
<path d="M1095.41 2325.56L1095.41 2325.47C1095.41 2323.7 1094.57 2322.79 1093.4 2322.31C1094.57 2321.84 1095.41 2320.92 1095.41 2319.16C1095.41 2315.74 1091.74 2315.48 1089.09 2315.48L1086.28 2315.48L1086.28 2329.15L1089.09 2329.15L1089.09 2323.44C1089.73 2323.44 1092.62 2323.45 1092.62 2325.17L1092.62 2325.56C1092.62 2329.37 1094.99 2329.99 1096.75 2328.61L1096.75 2327.28C1096.03 2327.61 1095.41 2327.44 1095.41 2325.56ZM1089.09 2317.73C1089.73 2317.73 1092.58 2317.74 1092.58 2319.46C1092.58 2321.17 1089.73 2321.19 1089.09 2321.19L1089.09 2317.73Z" fill="#ffffff" fill-rule="nonzero" opacity="1" stroke="#ffe9ab" stroke-linecap="round" stroke-linejoin="round" stroke-width="0.87"/>
<path d="M1101.8 2329.15L1101.8 2315.48L1098.99 2315.48L1098.99 2329.15L1101.8 2329.15Z" fill="#ffffff" fill-rule="nonzero" opacity="1" stroke="#ffe9ab" stroke-linecap="round" stroke-linejoin="round" stroke-width="0.87"/>
<path d="M1112.91 2322.31L1110.56 2322.31L1110.56 2324.56L1112.65 2324.56C1112.09 2326.63 1110.76 2327.03 1110.04 2327.03C1109.11 2327.03 1107.17 2326.38 1107.17 2322.31C1107.17 2318.24 1109.11 2317.6 1110.04 2317.6C1111.72 2317.6 1114.14 2319.08 1114.14 2319.08L1114.15 2316.89C1114.15 2316.89 1112.21 2315.34 1110.04 2315.34C1108.61 2315.34 1104.36 2315.77 1104.36 2322.31C1104.36 2328.85 1108.61 2329.28 1110.04 2329.28C1111.47 2329.28 1115.73 2328.85 1115.73 2322.31C1115.73 2322.31 1115.73 2322.31 1115.73 2322.31L1112.91 2322.31C1112.91 2322.31 1112.91 2322.31 1112.91 2322.31Z" fill="#ffffff" fill-rule="nonzero" opacity="1" stroke="#ffe9ab" stroke-linecap="round" stroke-linejoin="round" stroke-width="0.87"/>
<path d="M1122.99 2315.48L1122.99 2321.19L1120.89 2321.19L1120.89 2315.48L1118.09 2315.48L1118.09 2329.15L1120.89 2329.15L1120.89 2323.44L1122.99 2323.44L1122.99 2329.15L1125.8 2329.15L1125.8 2315.48L1122.99 2315.48Z" fill="#ffffff" fill-rule="nonzero" opacity="1" stroke="#ffe9ab" stroke-linecap="round" stroke-linejoin="round" stroke-width="0.87"/>
<path d="M1135.61 2315.48L1127.9 2315.48L1127.9 2317.73L1130.35 2317.73L1130.35 2329.15L1133.16 2329.15L1133.16 2317.73L1135.61 2317.73L1135.61 2315.48Z" fill="#ffffff" fill-rule="nonzero" opacity="1" stroke="#ffe9ab" stroke-linecap="round" stroke-linejoin="round" stroke-width="0.87"/>
<path d="M1188.71 2320.22C1190.07 2317.95 1191.38 2315.79 1191.38 2313.11C1191.38 2308.7 1187.25 2308.55 1185.76 2308.55C1185.13 2308.55 1184.02 2308.58 1182.95 2308.95L1182.95 2311.28C1182.95 2311.28 1184.75 2310.8 1185.76 2310.8C1186.77 2310.8 1188.57 2311.26 1188.57 2313.11C1188.57 2315.02 1187.54 2316.77 1186.33 2318.78C1184.69 2321.51 1182.82 2324.6 1182.82 2329.15L1191.38 2329.15L1191.38 2326.9L1185.8 2326.9C1186.27 2324.27 1187.5 2322.21 1188.71 2320.22Z" fill="#ffffff" fill-rule="nonzero" opacity="1" stroke="#ffe9ab" stroke-linecap="round" stroke-linejoin="round" stroke-width="0.87"/>
<path d="M1198.36 2308.54C1196.91 2308.54 1193.69 2308.68 1193.69 2318.91C1193.69 2329.13 1196.91 2329.27 1198.36 2329.27C1199.81 2329.27 1203.03 2329.12 1203.03 2318.91C1203.03 2308.68 1199.81 2308.54 1198.36 2308.54ZM1198.36 2327.02C1197.36 2327.02 1196.5 2325.76 1196.5 2318.91C1196.5 2311.57 1197.36 2310.8 1198.36 2310.8C1199.36 2310.8 1200.21 2311.57 1200.21 2318.91C1200.21 2325.76 1199.36 2327.02 1198.36 2327.02Z" fill="#ffffff" fill-rule="nonzero" opacity="1" stroke="#ffe9ab" stroke-linecap="round" stroke-linejoin="round" stroke-width="0.87"/>
<path d="M1210.67 2320.22C1212.04 2317.95 1213.34 2315.79 1213.34 2313.11C1213.34 2308.7 1209.21 2308.55 1207.72 2308.55C1207.09 2308.55 1205.98 2308.58 1204.91 2308.95L1204.91 2311.28C1204.91 2311.28 1206.71 2310.8 1207.72 2310.8C1208.73 2310.8 1210.53 2311.26 1210.53 2313.11C1210.53 2315.02 1209.5 2316.77 1208.29 2318.78C1206.65 2321.51 1204.78 2324.6 1204.78 2329.15L1213.34 2329.15L1213.34 2326.9L1207.76 2326.9C1208.23 2324.27 1209.46 2322.21 1210.67 2320.22Z" fill="#ffffff" fill-rule="nonzero" opacity="1" stroke="#ffe9ab" stroke-linecap="round" stroke-linejoin="round" stroke-width="0.87"/>
<path d="M1218.28 2308.55C1217.65 2308.55 1216.54 2308.58 1215.47 2308.95L1215.47 2311.28C1215.47 2311.28 1217.27 2310.8 1218.28 2310.8C1219.3 2310.8 1221.09 2311.26 1221.09 2313.11C1221.09 2314.97 1219.29 2315.42 1218.28 2315.42C1218.28 2315.42 1218.28 2315.54 1218.28 2315.73L1218.28 2317.67C1219.3 2317.67 1221.09 2317.95 1221.09 2322.35C1221.09 2326.74 1219.3 2327.02 1218.28 2327.02C1217.13 2327.01 1215.47 2326.41 1215.47 2326.41L1215.47 2328.75C1216.49 2329.24 1217.56 2329.27 1218.28 2329.27C1220.04 2329.27 1223.9 2329.15 1223.9 2322.35L1223.9 2322.34C1223.9 2319.18 1222.82 2317.51 1221.54 2316.64C1222.81 2316.03 1223.9 2314.96 1223.9 2313.11C1223.9 2313.11 1223.9 2313.11 1223.9 2313.11C1223.9 2308.7 1219.77 2308.55 1218.28 2308.55Z" fill="#ffffff" fill-rule="nonzero" opacity="1" stroke="#ffe9ab" stroke-linecap="round" stroke-linejoin="round" stroke-width="0.87"/>
<path d="M1240.87 2308.69L1236.17 2308.69L1233.78 2329.15L1236.61 2329.15L1236.94 2325.73L1240.1 2325.73L1240.43 2329.15L1243.25 2329.15L1240.87 2308.69ZM1237.16 2323.47L1238.37 2310.95L1238.67 2310.95L1239.88 2323.47L1237.16 2323.47Z" fill="#ffffff" fill-rule="nonzero" opacity="1" stroke="#ffe9ab" stroke-linecap="round" stroke-linejoin="round" stroke-width="0.87"/>
<path d="M1248.45 2326.9L1248.45 2315.48L1245.64 2315.48L1245.64 2329.15L1250.55 2329.15L1250.55 2326.9L1248.45 2326.9Z" fill="#ffffff" fill-rule="nonzero" opacity="1" stroke="#ffe9ab" stroke-linecap="round" stroke-linejoin="round" stroke-width="0.87"/>
<path d="M1255.48 2326.9L1255.48 2315.48L1252.68 2315.48L1252.68 2329.15L1257.58 2329.15L1257.58 2326.9L1255.48 2326.9Z" fill="#ffffff" fill-rule="nonzero" opacity="1" stroke="#ffe9ab" stroke-linecap="round" stroke-linejoin="round" stroke-width="0.87"/>
<path d="M1278.6 2325.56L1278.6 2322.39L1278.6 2322.39C1278.6 2319.77 1277.44 2317.99 1275.75 2316.89C1278 2316.02 1278.6 2314.57 1278.6 2313.18C1278.6 2311.02 1277.15 2308.69 1270.22 2308.69L1267.42 2308.69L1267.42 2329.15L1270.22 2329.15L1270.22 2317.67C1270.8 2317.67 1275.82 2318.05 1275.82 2322.39L1275.82 2322.39L1275.82 2325.56C1275.82 2329.37 1278.19 2329.99 1279.95 2328.6L1279.95 2327.27C1279.3 2327.66 1278.6 2327.44 1278.6 2325.56ZM1270.22 2315.42L1270.22 2310.94C1271.91 2310.94 1275.82 2311.4 1275.82 2313.18C1275.82 2314.97 1271.91 2315.42 1270.22 2315.42Z" fill="#ffffff" fill-rule="nonzero" opacity="1" stroke="#ffe9ab" stroke-linecap="round" stroke-linejoin="round" stroke-width="0.87"/>
<path d="M1284.98 2329.15L1284.98 2315.48L1282.17 2315.48L1282.17 2329.15L1284.98 2329.15Z" fill="#ffffff" fill-rule="nonzero" opacity="1" stroke="#ffe9ab" stroke-linecap="round" stroke-linejoin="round" stroke-width="0.87"/>
<path d="M1296.1 2322.31L1293.74 2322.31L1293.74 2324.56L1295.83 2324.56C1295.27 2326.63 1293.95 2327.03 1293.23 2327.03C1292.3 2327.03 1290.35 2326.38 1290.35 2322.31C1290.35 2318.24 1292.3 2317.6 1293.23 2317.6C1294.9 2317.6 1297.33 2319.08 1297.33 2319.08L1297.34 2316.89C1297.34 2316.89 1295.4 2315.34 1293.23 2315.34C1291.79 2315.34 1287.54 2315.77 1287.54 2322.31C1287.54 2328.85 1291.79 2329.28 1293.23 2329.28C1294.66 2329.28 1298.91 2328.85 1298.91 2322.31C1298.91 2322.31 1298.91 2322.31 1298.91 2322.31L1296.1 2322.31C1296.1 2322.31 1296.1 2322.31 1296.1 2322.31Z" fill="#ffffff" fill-rule="nonzero" opacity="1" stroke="#ffe9ab" stroke-linecap="round" stroke-linejoin="round" stroke-width="0.87"/>
<path d="M1306.18 2315.48L1306.18 2321.19L1304.08 2321.19L1304.08 2315.48L1301.27 2315.48L1301.27 2329.15L1304.08 2329.15L1304.08 2323.44L1306.18 2323.44L1306.18 2329.15L1308.99 2329.15L1308.99 2315.48L1306.18 2315.48Z" fill="#ffffff" fill-rule="nonzero" opacity="1" stroke="#ffe9ab" stroke-linecap="round" stroke-linejoin="round" stroke-width="0.87"/>
<path d="M1318.8 2315.48L1311.08 2315.48L1311.08 2317.73L1313.54 2317.73L1313.54 2329.15L1316.35 2329.15L1316.35 2317.73L1318.8 2317.73L1318.8 2315.48Z" fill="#ffffff" fill-rule="nonzero" opacity="1" stroke="#ffe9ab" stroke-linecap="round" stroke-linejoin="round" stroke-width="0.87"/>
<path d="M1324.58 2320.67C1323.52 2319.58 1323.31 2319.05 1323.31 2318.53C1323.31 2317.97 1323.79 2317.49 1324.37 2317.49C1325.52 2317.49 1326.3 2317.81 1326.3 2317.81L1326.3 2315.74C1325.75 2315.53 1325.14 2315.34 1324.21 2315.34C1322.2 2315.34 1320.63 2316.83 1320.63 2318.76C1320.63 2320.17 1321.14 2320.96 1322.73 2322.74C1323.73 2323.88 1324.03 2324.65 1324.03 2325.6C1324.03 2326.42 1323.36 2327.03 1322.54 2327.03C1321.5 2327.03 1320.37 2326.62 1320.37 2326.62L1320.37 2328.83C1321.03 2329.12 1321.83 2329.28 1322.78 2329.28C1324.98 2329.28 1326.83 2327.67 1326.83 2325.31C1326.83 2323.37 1326.12 2322.21 1324.58 2320.67Z" fill="#ffffff" fill-rule="nonzero" opacity="1" stroke="#ffe9ab" stroke-linecap="round" stroke-linejoin="round" stroke-width="0.87"/>
<path d="M1348.25 2325.56L1348.25 2322.39L1348.25 2322.39C1348.25 2319.77 1347.1 2317.99 1345.4 2316.89C1347.65 2316.02 1348.25 2314.57 1348.25 2313.18C1348.25 2311.02 1346.8 2308.69 1339.87 2308.69L1337.07 2308.69L1337.07 2329.15L1339.87 2329.15L1339.87 2317.67C1340.45 2317.67 1345.47 2318.05 1345.47 2322.39L1345.47 2322.39L1345.47 2325.56C1345.47 2329.37 1347.84 2329.99 1349.61 2328.6L1349.61 2327.27C1348.95 2327.66 1348.25 2327.44 1348.25 2325.56ZM1339.88 2315.42L1339.88 2310.94C1341.56 2310.94 1345.47 2311.4 1345.47 2313.18C1345.47 2314.97 1341.56 2315.42 1339.88 2315.42Z" fill="#ffffff" fill-rule="nonzero" opacity="1" stroke="#ffe9ab" stroke-linecap="round" stroke-linejoin="round" stroke-width="0.87"/>
<path d="M1356.73 2317.73L1356.73 2315.48L1351.82 2315.48L1351.82 2329.15L1356.73 2329.15L1356.73 2326.9L1354.63 2326.9L1354.63 2323.44L1356.73 2323.44L1356.73 2321.19L1354.63 2321.19L1354.63 2317.73L1356.73 2317.73Z" fill="#ffffff" fill-rule="nonzero" opacity="1" stroke="#ffe9ab" stroke-linecap="round" stroke-linejoin="round" stroke-width="0.87"/>
<path d="M1363.1 2320.67C1362.04 2319.58 1361.83 2319.05 1361.83 2318.53C1361.83 2317.97 1362.31 2317.49 1362.89 2317.49C1364.04 2317.49 1364.82 2317.81 1364.82 2317.81L1364.82 2315.74C1364.27 2315.53 1363.66 2315.34 1362.73 2315.34C1360.72 2315.34 1359.15 2316.83 1359.15 2318.76C1359.15 2320.17 1359.66 2320.96 1361.25 2322.74C1362.25 2323.88 1362.54 2324.65 1362.54 2325.6C1362.54 2326.42 1361.88 2327.03 1361.06 2327.03C1360.01 2327.03 1358.89 2326.62 1358.89 2326.62L1358.89 2328.83C1359.55 2329.12 1360.35 2329.28 1361.3 2329.28C1363.5 2329.28 1365.35 2327.67 1365.35 2325.31C1365.35 2323.37 1364.64 2322.21 1363.1 2320.67Z" fill="#ffffff" fill-rule="nonzero" opacity="1" stroke="#ffe9ab" stroke-linecap="round" stroke-linejoin="round" stroke-width="0.87"/>
<path d="M1372.79 2317.73L1372.79 2315.48L1367.88 2315.48L1367.88 2329.15L1372.79 2329.15L1372.79 2326.9L1370.69 2326.9L1370.69 2323.44L1372.79 2323.44L1372.79 2321.19L1370.69 2321.19L1370.69 2317.73L1372.79 2317.73Z" fill="#ffffff" fill-rule="nonzero" opacity="1" stroke="#ffe9ab" stroke-linecap="round" stroke-linejoin="round" stroke-width="0.87"/>
<path d="M1384.6 2325.56L1384.6 2325.47C1384.6 2323.7 1383.76 2322.79 1382.59 2322.31C1383.76 2321.84 1384.6 2320.92 1384.6 2319.16C1384.6 2315.74 1380.93 2315.48 1378.28 2315.48L1375.47 2315.48L1375.47 2329.15L1378.28 2329.15L1378.28 2323.44C1378.92 2323.44 1381.81 2323.45 1381.81 2325.17L1381.81 2325.56C1381.81 2329.37 1384.18 2329.99 1385.94 2328.61L1385.94 2327.28C1385.22 2327.61 1384.6 2327.44 1384.6 2325.56ZM1378.28 2317.73C1378.92 2317.73 1381.78 2317.74 1381.78 2319.46C1381.78 2321.17 1378.92 2321.19 1378.28 2321.19L1378.28 2317.73Z" fill="#ffffff" fill-rule="nonzero" opacity="1" stroke="#ffe9ab" stroke-linecap="round" stroke-linejoin="round" stroke-width="0.87"/>
<path d="M1393.79 2315.48L1391.37 2324.89L1388.94 2315.48L1386.13 2315.48L1389.96 2329.15L1392.78 2329.15L1396.6 2315.48L1393.79 2315.48Z" fill="#ffffff" fill-rule="nonzero" opacity="1" stroke="#ffe9ab" stroke-linecap="round" stroke-linejoin="round" stroke-width="0.87"/>
<path d="M1403.57 2317.73L1403.57 2315.48L1398.66 2315.48L1398.66 2329.15L1403.57 2329.15L1403.57 2326.9L1401.47 2326.9L1401.47 2323.44L1403.57 2323.44L1403.57 2321.19L1401.47 2321.19L1401.47 2317.73L1403.57 2317.73Z" fill="#ffffff" fill-rule="nonzero" opacity="1" stroke="#ffe9ab" stroke-linecap="round" stroke-linejoin="round" stroke-width="0.87"/>
<path d="M1409.06 2315.48L1406.26 2315.48L1406.26 2329.15L1409.06 2329.15C1412.02 2329.15 1415.48 2328.11 1415.48 2322.31C1415.48 2316.52 1412.02 2315.48 1409.06 2315.48ZM1409.06 2326.9L1409.06 2317.73C1410.14 2317.73 1412.66 2317.9 1412.66 2322.31C1412.66 2326.73 1410.14 2326.9 1409.06 2326.9Z" fill="#ffffff" fill-rule="nonzero" opacity="1" stroke="#ffe9ab" stroke-linecap="round" stroke-linejoin="round" stroke-width="0.87"/>
<path d="M1419.59 2326.04L1422.57 2326.04L1422.57 2329.15L1419.59 2329.15L1419.59 2326.04Z" fill="#ffffff" fill-rule="nonzero" opacity="1" stroke="#ffe9ab" stroke-linecap="round" stroke-linejoin="round" stroke-width="0.87"/>
</g>
<g filter="url(#Filter_3)" vectornator:layerName="Tapehead" vectornator:shadowAngle="-1.56298" vectornator:shadowColor="#000000" vectornator:shadowOffset="0" vectornator:shadowOpacity="1" vectornator:shadowRadius="3.93363">
<g opacity="1" vectornator:layerName="Outline">
<path d="M921.564 2304.8C913.493 2304.8 907.709 2307.85 904.249 2313.18C902.907 2315.24 901.987 2317.58 901.44 2319.93C898.365 2320.83 896.114 2323.63 896.114 2327.01C896.114 2332.65 896.114 2343.92 896.114 2349.55C896.114 2353.66 899.428 2356.97 903.537 2356.97C912.043 2356.97 929.055 2356.97 937.561 2356.97C941.67 2356.97 944.985 2353.66 944.984 2349.55C944.984 2343.92 944.984 2332.65 944.984 2327.01C944.984 2323.83 942.974 2321.17 940.172 2320.12C940.102 2318.68 939.976 2317.62 939.707 2316.68C939.362 2315.46 938.777 2314.48 937.905 2313.81C937.033 2313.15 935.925 2312.84 934.627 2312.84C932.197 2312.84 930.6 2313.08 928.389 2313.66C928.236 2313.7 927.662 2313.86 927.526 2313.89C924.959 2314.57 923.068 2314.85 919.556 2314.85C918.731 2314.85 918.347 2314.66 918.219 2314.54C918.198 2314.52 918.201 2314.52 918.192 2314.51C918.231 2314.48 918.28 2314.44 918.465 2314.39C918.918 2314.26 919.787 2314.15 921.13 2314.06C921.134 2314.06 921.144 2314.06 921.144 2314.06C921.148 2314.06 921.153 2314.06 921.157 2314.06C921.16 2314.06 921.163 2314.06 921.166 2314.06C922.945 2313.95 923.763 2313.86 924.659 2313.57C925.389 2313.34 926.029 2312.98 926.488 2312.44C926.95 2311.9 927.199 2311.21 927.199 2310.43C927.199 2307.21 924.856 2304.8 921.564 2304.8ZM921.564 2308.03C922.349 2308.03 922.931 2308.28 923.326 2308.68C923.71 2309.07 923.952 2309.63 923.966 2310.37C923.94 2310.39 923.866 2310.44 923.657 2310.5C923.2 2310.64 922.326 2310.75 920.961 2310.84C920.943 2310.84 920.928 2310.84 920.911 2310.84L920.893 2310.84L920.889 2310.84C919.159 2310.96 918.344 2311.04 917.463 2311.32C916.734 2311.55 916.098 2311.91 915.639 2312.45C915.177 2312.98 914.928 2313.67 914.928 2314.45C914.928 2315.32 915.294 2316.22 916.014 2316.9C916.869 2317.7 918.087 2318.07 919.556 2318.07C923.31 2318.07 925.552 2317.76 928.353 2317.02C928.497 2316.98 929.07 2316.83 929.216 2316.79C931.218 2316.26 932.465 2316.06 934.627 2316.06C935.311 2316.06 935.695 2316.19 935.946 2316.38C936.198 2316.57 936.416 2316.91 936.599 2317.55C936.749 2318.08 936.841 2318.74 936.908 2319.59C928.592 2319.59 913.257 2319.59 904.87 2319.59C905.351 2317.95 906.036 2316.35 906.954 2314.94C909.791 2310.57 914.481 2308.03 921.564 2308.03Z" fill="none" opacity="1" stroke="#000000" stroke-linecap="butt" stroke-linejoin="round" stroke-width="2.24912"/>
<path d="M921.564 2305.41C913.652 2305.41 908.095 2308.37 904.758 2313.51C903.397 2315.61 902.465 2318 901.945 2320.4C898.948 2321.12 896.722 2323.79 896.722 2327.01L896.722 2349.55C896.722 2353.32 899.764 2356.37 903.537 2356.37L937.561 2356.37C941.334 2356.37 944.376 2353.32 944.376 2349.55L944.376 2327.01C944.376 2323.95 942.361 2321.4 939.591 2320.54C939.527 2318.87 939.398 2317.82 939.122 2316.84C938.48 2314.58 937.035 2313.45 934.627 2313.45C932.236 2313.45 930.729 2313.68 928.545 2314.25C928.397 2314.29 927.823 2314.45 927.682 2314.48C925.079 2315.17 923.097 2315.46 919.556 2315.46C918.661 2315.46 918.105 2315.27 917.803 2314.99C917.627 2314.82 917.548 2314.62 917.548 2314.45C917.548 2313.88 918.361 2313.63 921.117 2313.45C921.123 2313.45 921.12 2313.45 921.126 2313.45C922.907 2313.34 923.659 2313.25 924.476 2312.99C925.785 2312.57 926.591 2311.74 926.591 2310.43C926.591 2307.53 924.523 2305.41 921.564 2305.41ZM921.564 2307.42C923.402 2307.42 924.578 2308.63 924.578 2310.43C924.578 2311.01 923.763 2311.27 921.001 2311.44C920.995 2311.44 920.993 2311.45 920.987 2311.45C919.205 2311.56 918.46 2311.65 917.647 2311.9C916.34 2312.32 915.536 2313.15 915.536 2314.45C915.536 2315.16 915.831 2315.89 916.43 2316.45C917.136 2317.11 918.184 2317.46 919.556 2317.46C923.279 2317.46 925.432 2317.16 928.196 2316.43C928.341 2316.39 928.915 2316.24 929.059 2316.2C931.087 2315.66 932.427 2315.46 934.627 2315.46C936.121 2315.46 936.785 2315.98 937.185 2317.39C937.391 2318.11 937.506 2318.93 937.57 2320.2C937.567 2320.2 937.564 2320.2 937.561 2320.2L904.061 2320.2C904.552 2318.24 905.342 2316.3 906.444 2314.61C909.407 2310.04 914.327 2307.42 921.564 2307.42Z" fill="none" opacity="1" stroke="#ffffff" stroke-linecap="butt" stroke-linejoin="round" stroke-width="11.8009"/>
</g>
<path d="M937.559 2355.08L903.538 2355.08C900.476 2355.08 898.01 2352.61 898.01 2349.55L898.01 2327.01C898.01 2323.95 900.476 2321.48 903.538 2321.48L937.559 2321.48C940.62 2321.48 943.087 2323.95 943.087 2327.01L943.087 2349.55C943.087 2352.61 940.62 2355.08 937.559 2355.08Z" fill="#ffffff" fill-rule="nonzero" opacity="1" stroke="#000000" stroke-linecap="butt" stroke-linejoin="round" stroke-width="2.5759" vectornator:layerName="Head"/>
<path d="M921.564 2305.41C913.652 2305.41 908.095 2308.37 904.758 2313.51C902.579 2316.87 901.508 2321 901.449 2324.65C901.449 2324.67 901.445 2324.67 901.445 2324.69L901.445 2324.71L901.445 2335.24L903.452 2335.24L903.452 2326.13C903.459 2326.08 903.48 2326.04 903.479 2325.98L903.479 2325.95C903.271 2322.38 904.232 2318.01 906.444 2314.61C909.407 2310.04 914.327 2307.42 921.564 2307.42C923.402 2307.42 924.578 2308.63 924.578 2310.43C924.578 2311.01 923.763 2311.27 921.001 2311.44C920.995 2311.44 920.993 2311.45 920.987 2311.45C919.205 2311.56 918.461 2311.65 917.647 2311.9C916.34 2312.32 915.536 2313.15 915.536 2314.45C915.536 2315.16 915.831 2315.89 916.43 2316.45C917.136 2317.11 918.184 2317.46 919.556 2317.46C923.279 2317.46 925.432 2317.16 928.196 2316.43C928.341 2316.39 928.915 2316.24 929.059 2316.2C931.087 2315.66 932.427 2315.46 934.627 2315.46C936.121 2315.46 936.785 2315.98 937.185 2317.39C937.573 2318.76 937.647 2320.31 937.641 2325C937.641 2325.48 937.641 2336.55 937.641 2336.55L939.649 2336.55C939.649 2336.55 939.649 2325.48 939.649 2325C939.656 2320.07 939.584 2318.47 939.122 2316.84C938.48 2314.58 937.035 2313.45 934.627 2313.45C932.236 2313.45 930.729 2313.68 928.545 2314.25C928.397 2314.29 927.823 2314.45 927.682 2314.48C925.079 2315.17 923.097 2315.46 919.556 2315.46C918.661 2315.46 918.105 2315.27 917.803 2314.99C917.627 2314.82 917.548 2314.62 917.548 2314.45C917.548 2313.88 918.361 2313.63 921.117 2313.45C921.123 2313.45 921.12 2313.45 921.126 2313.45C922.907 2313.34 923.659 2313.25 924.476 2312.99C925.785 2312.57 926.591 2311.73 926.591 2310.43C926.591 2307.53 924.523 2305.41 921.564 2305.41Z" fill="#000000" fill-rule="nonzero" opacity="1" stroke="none" vectornator:layerName="Tape"/>
<g opacity="1" vectornator:layerName="Mouth">
<path d="M928.143 2347.36L928.143 2347.36C928.492 2347.36 928.774 2347.61 928.774 2347.91L928.774 2349.84C928.774 2350.15 928.492 2350.4 928.143 2350.4L928.143 2350.4C927.794 2350.4 927.511 2350.15 927.511 2349.84L927.511 2347.91C927.511 2347.61 927.794 2347.36 928.143 2347.36Z" fill="#000000" fill-rule="nonzero" opacity="1" stroke="#000000" stroke-linecap="butt" stroke-linejoin="round" stroke-width="0.76006"/>
<path d="M925.527 2347.36L925.527 2347.36C925.875 2347.36 926.158 2347.61 926.158 2347.91L926.158 2349.84C926.158 2350.15 925.875 2350.4 925.527 2350.4L925.527 2350.4C925.178 2350.4 924.895 2350.15 924.895 2349.84L924.895 2347.91C924.895 2347.61 925.178 2347.36 925.527 2347.36Z" fill="#000000" fill-rule="nonzero" opacity="1" stroke="#000000" stroke-linecap="butt" stroke-linejoin="round" stroke-width="0.76006"/>
<path d="M922.979 2347.36L922.979 2347.36C923.328 2347.36 923.611 2347.61 923.611 2347.91L923.611 2349.84C923.611 2350.15 923.328 2350.4 922.979 2350.4L922.979 2350.4C922.631 2350.4 922.348 2350.15 922.348 2349.84L922.348 2347.91C922.348 2347.61 922.631 2347.36 922.979 2347.36Z" fill="#000000" fill-rule="nonzero" opacity="1" stroke="#000000" stroke-linecap="butt" stroke-linejoin="round" stroke-width="0.76006"/>
<path d="M920.343 2347.36L920.343 2347.36C919.994 2347.36 919.711 2347.61 919.711 2347.91L919.711 2349.84C919.711 2350.15 919.994 2350.4 920.343 2350.4L920.343 2350.4C920.691 2350.4 920.974 2350.15 920.974 2349.84L920.974 2347.91C920.974 2347.61 920.691 2347.36 920.343 2347.36Z" fill="#000000" fill-rule="nonzero" opacity="1" stroke="#000000" stroke-linecap="butt" stroke-linejoin="round" stroke-width="0.76006"/>
<path d="M917.795 2347.36L917.795 2347.36C917.447 2347.36 917.164 2347.61 917.164 2347.91L917.164 2349.84C917.164 2350.15 917.447 2350.4 917.795 2350.4L917.795 2350.4C918.144 2350.4 918.427 2350.15 918.427 2349.84L918.427 2347.91C918.427 2347.61 918.144 2347.36 917.795 2347.36Z" fill="#000000" fill-rule="nonzero" opacity="1" stroke="#000000" stroke-linecap="butt" stroke-linejoin="round" stroke-width="0.76006"/>
<path d="M915.179 2347.36L915.179 2347.36C914.83 2347.36 914.548 2347.61 914.548 2347.91L914.548 2349.84C914.548 2350.15 914.83 2350.4 915.179 2350.4L915.179 2350.4C915.528 2350.4 915.811 2350.15 915.811 2349.84L915.811 2347.91C915.811 2347.61 915.528 2347.36 915.179 2347.36Z" fill="#000000" fill-rule="nonzero" opacity="1" stroke="#000000" stroke-linecap="butt" stroke-linejoin="round" stroke-width="0.76006"/>
</g>
<g opacity="1" vectornator:layerName="LeftEye">
<path d="M911.004 2327.31C906.266 2327.31 902.411 2331.16 902.411 2335.9C902.411 2340.64 906.266 2344.5 911.004 2344.5C915.742 2344.5 919.597 2340.64 919.597 2335.9C919.597 2331.16 915.742 2327.31 911.004 2327.31L911.004 2327.31Z" fill="#ffac00" fill-rule="nonzero" opacity="1" stroke="#000000" stroke-linecap="butt" stroke-linejoin="round" stroke-width="2.06072"/>
<path d="M909.151 2332.98C907.43 2333.97 906.841 2336.17 907.834 2337.89C908.827 2339.61 911.028 2340.2 912.748 2339.21C914.469 2338.22 915.058 2336.02 914.065 2334.3C913.072 2332.58 910.871 2331.99 909.151 2332.98Z" fill="#ffffff" fill-rule="nonzero" opacity="1" stroke="#000000" stroke-linecap="butt" stroke-linejoin="round" stroke-width="2.05569" vectornator:layerName="path"/>
</g>
<g opacity="1" vectornator:layerName="RightEye">
<path d="M931.097 2327.36C926.389 2327.36 922.558 2331.19 922.558 2335.9C922.558 2340.61 926.389 2344.44 931.097 2344.44C935.806 2344.44 939.637 2340.61 939.637 2335.9C939.637 2331.19 935.806 2327.36 931.097 2327.36L931.097 2327.36Z" fill="#000000" fill-rule="nonzero" opacity="1" stroke="none"/>
<path d="M927.992 2330.76C925.087 2332.44 924.091 2336.16 925.769 2339.06C927.446 2341.97 931.162 2342.96 934.067 2341.29C936.973 2339.61 937.969 2335.89 936.291 2332.99C934.613 2330.08 930.898 2329.09 927.992 2330.76Z" fill="none" opacity="1" stroke="#ffac00" stroke-linecap="butt" stroke-linejoin="round" stroke-width="1.14484" vectornator:layerName="path"/>
<path d="M931.005 2332.08L931.005 2332.08C931.332 2332.08 931.597 2332.43 931.597 2332.86L931.597 2339.17C931.597 2339.6 931.332 2339.94 931.005 2339.94L931.005 2339.94C930.678 2339.94 930.413 2339.6 930.413 2339.17L930.413 2332.86C930.413 2332.43 930.678 2332.08 931.005 2332.08ZM934.937 2336.01L934.937 2336.01C934.937 2336.34 934.589 2336.6 934.159 2336.6L927.851 2336.6C927.422 2336.6 927.073 2336.34 927.073 2336.01L927.073 2336.01C927.073 2335.68 927.422 2335.42 927.851 2335.42L934.159 2335.42C934.589 2335.42 934.937 2335.68 934.937 2336.01Z" fill="#ffffff" fill-rule="nonzero" opacity="1" stroke="none" vectornator:layerName="Spokes"/>
</g>
<g opacity="1" vectornator:layerName="SmallReels">
<path d="M935.778 2324.69C935.223 2324.69 934.773 2325.14 934.773 2325.69C934.773 2326.25 935.223 2326.7 935.778 2326.7C936.333 2326.7 936.782 2326.25 936.782 2325.69C936.782 2325.14 936.333 2324.69 935.778 2324.69Z" fill="#000000" fill-rule="nonzero" opacity="1" stroke="none"/>
<path d="M905.179 2324.69C904.625 2324.69 904.175 2325.14 904.175 2325.69C904.175 2326.25 904.625 2326.7 905.179 2326.7C905.734 2326.7 906.184 2326.25 906.184 2325.69C906.184 2325.14 905.734 2324.69 905.179 2324.69Z" fill="#000000" fill-rule="nonzero" opacity="1" stroke="none"/>
</g>
</g>
<g opacity="1">
<path d="M986.959 2360.08L979.496 2340.29L974.056 2340.29L966.679 2360.08L971.834 2360.08L976.733 2346.89L981.718 2360.08L986.959 2360.08ZM979.183 2360.08L976.762 2353.42L974.341 2360.08L979.183 2360.08Z" fill="#ffffff" fill-rule="nonzero" opacity="1" stroke="none"/>
<path d="M1003.14 2360.08L999.007 2354.1C1001.54 2352.85 1003.14 2350.57 1003.14 2347.44C1003.14 2343.13 999.805 2340.03 995.732 2340.03C991.687 2340.03 988.326 2343.02 988.326 2347.44L988.326 2360.08L993.254 2360.08L993.254 2354.41L997.213 2360.08L1003.14 2360.08ZM998.21 2347.44C998.21 2348.97 997.099 2349.91 995.732 2349.91C994.336 2349.91 993.254 2348.97 993.254 2347.44C993.254 2345.9 994.336 2344.96 995.732 2344.96C997.099 2344.96 998.21 2345.9 998.21 2347.44Z" fill="#ffffff" fill-rule="nonzero" opacity="1" stroke="none"/>
<path d="M1012.08 2360.08C1015.24 2360.08 1017.01 2358.32 1017.01 2355.15L1017.01 2340.31L1007.12 2340.31L1007.12 2345.27L1012.08 2345.27L1012.08 2354.19C1012.08 2355.01 1011.91 2355.15 1010.37 2355.15L1004.68 2355.15L1004.68 2360.08L1012.08 2360.08Z" fill="#ffffff" fill-rule="nonzero" opacity="1" stroke="none"/>
<path d="M1037.77 2360.08L1030.31 2340.29L1024.87 2340.29L1017.49 2360.08L1022.65 2360.08L1027.55 2346.89L1032.53 2360.08L1037.77 2360.08ZM1030 2360.08L1027.58 2353.42L1025.15 2360.08L1030 2360.08Z" fill="#ffffff" fill-rule="nonzero" opacity="1" stroke="none"/>
<path d="M1046.18 2352.68C1049.34 2352.68 1051.13 2350.85 1051.13 2347.72L1051.13 2340.31L1046.18 2340.31L1046.18 2346.01C1046.18 2347.41 1045.86 2347.72 1044.47 2347.72L1042.22 2347.72C1041.36 2347.72 1041.25 2347.58 1041.25 2346.01L1041.25 2340.31L1036.29 2340.31L1036.29 2347.72C1036.29 2350.91 1038.09 2352.68 1041.25 2352.68L1046.18 2352.68ZM1046.18 2360.08L1046.18 2355.15L1041.25 2355.15L1041.25 2360.08L1046.18 2360.08Z" fill="#ffffff" fill-rule="nonzero" opacity="1" stroke="none"/>
<path d="M1067.22 2360.08C1070.39 2360.08 1072.15 2358.32 1072.15 2355.15L1072.15 2340.31L1062.27 2340.31L1062.27 2345.27L1067.22 2345.27L1067.22 2354.19C1067.22 2355.01 1067.05 2355.15 1065.52 2355.15L1059.82 2355.15L1059.82 2360.08L1067.22 2360.08Z" fill="#ffffff" fill-rule="nonzero" opacity="1" stroke="none"/>
<path d="M1083.43 2360.37C1088.96 2360.37 1093.32 2356.09 1093.32 2350.2C1093.32 2344.3 1088.96 2340.03 1083.43 2340.03C1077.91 2340.03 1073.55 2344.3 1073.55 2350.2C1073.55 2356.09 1077.91 2360.37 1083.43 2360.37ZM1083.43 2355.44C1080.73 2355.44 1078.45 2353.56 1078.45 2350.2C1078.45 2346.84 1080.73 2344.96 1083.43 2344.96C1086.14 2344.96 1088.44 2346.84 1088.44 2350.2C1088.44 2353.56 1086.14 2355.44 1083.43 2355.44ZM1083.43 2352.68C1084.83 2352.68 1085.85 2351.57 1085.85 2350.2C1085.85 2348.83 1084.83 2347.72 1083.43 2347.72C1082.04 2347.72 1081.04 2348.83 1081.04 2350.2C1081.04 2351.57 1082.04 2352.68 1083.43 2352.68Z" fill="#ffffff" fill-rule="nonzero" opacity="1" stroke="none"/>
<path d="M1109.66 2360.08L1109.66 2345.27C1109.66 2342.11 1107.87 2340.31 1104.74 2340.31L1094.71 2340.31L1094.71 2360.08L1099.64 2360.08L1099.64 2345.27L1103.46 2345.27C1104.45 2345.27 1104.74 2345.61 1104.74 2346.75L1104.74 2360.08L1109.66 2360.08Z" fill="#ffffff" fill-rule="nonzero" opacity="1" stroke="none"/>
<path d="M1126.41 2360.08L1126.41 2355.15L1117.75 2355.15C1116.96 2355.15 1116.56 2354.64 1116.56 2353.87C1116.56 2352.85 1117.07 2352.45 1117.75 2352.45L1126.36 2352.45L1126.36 2347.95L1117.75 2347.95C1116.96 2347.95 1116.56 2347.46 1116.56 2346.69C1116.56 2345.78 1117.07 2345.27 1117.75 2345.27L1126.41 2345.27L1126.41 2340.31L1116.53 2340.31C1113.4 2340.31 1111.72 2342.11 1111.72 2345.27L1111.72 2347.72C1111.72 2348.86 1112.28 2349.77 1113.05 2350.23C1112.14 2350.65 1111.6 2351.65 1111.6 2352.68L1111.6 2355.15C1111.6 2358.32 1113.37 2360.08 1116.53 2360.08L1126.41 2360.08Z" fill="#ffffff" fill-rule="nonzero" opacity="1" stroke="none"/>
<path d="M1142.88 2345.27L1142.88 2340.31L1132.99 2340.31C1129.83 2340.31 1128.04 2342.08 1128.04 2345.27L1128.04 2347.72C1128.04 2350.88 1129.89 2352.68 1132.99 2352.68L1134.73 2352.68L1134.73 2347.72L1134.25 2347.72C1133.53 2347.72 1133.05 2347.12 1133.05 2346.41C1133.05 2345.64 1133.45 2345.27 1134.25 2345.27L1142.88 2345.27ZM1137.92 2360.08C1141.11 2360.08 1142.88 2358.32 1142.88 2355.15L1142.88 2352.68C1142.88 2349.54 1141.08 2347.72 1137.92 2347.72L1136.21 2347.72L1136.21 2352.68L1136.72 2352.68C1137.41 2352.68 1137.89 2353.27 1137.89 2353.99C1137.89 2354.76 1137.49 2355.15 1136.72 2355.15L1128.04 2355.15L1128.04 2360.08L1137.92 2360.08Z" fill="#ffffff" fill-rule="nonzero" opacity="1" stroke="none"/>
</g>
<g opacity="1">
<path d="M1192.93 2360.98L1192.93 2355.83L1184.15 2355.83L1192.93 2345.51L1192.93 2340.33L1177.43 2340.33L1177.43 2345.51L1186.21 2345.51L1177.43 2355.83L1177.43 2360.98L1192.93 2360.98Z" fill="#ffe9ab" fill-rule="nonzero" opacity="1" stroke="none"/>
<path d="M1205.95 2361.28C1211.72 2361.28 1216.27 2356.82 1216.27 2350.66C1216.27 2344.49 1211.72 2340.03 1205.95 2340.03C1200.17 2340.03 1195.62 2344.49 1195.62 2350.66C1195.62 2356.82 1200.17 2361.28 1205.95 2361.28ZM1205.95 2356.13C1203.12 2356.13 1200.74 2354.17 1200.74 2350.66C1200.74 2347.14 1203.12 2345.18 1205.95 2345.18C1208.77 2345.18 1211.18 2347.14 1211.18 2350.66C1211.18 2354.17 1208.77 2356.13 1205.95 2356.13ZM1205.95 2353.24C1207.4 2353.24 1208.48 2352.08 1208.48 2350.66C1208.48 2349.23 1207.4 2348.07 1205.95 2348.07C1204.49 2348.07 1203.45 2349.23 1203.45 2350.66C1203.45 2352.08 1204.49 2353.24 1205.95 2353.24Z" fill="#ffe9ab" fill-rule="nonzero" opacity="1" stroke="none"/>
<path d="M1235.24 2360.98L1235.24 2345.51C1235.24 2342.2 1233.36 2340.33 1230.09 2340.33L1219.61 2340.33L1219.61 2360.98L1224.76 2360.98L1224.76 2345.51L1228.75 2345.51C1229.79 2345.51 1230.09 2345.86 1230.09 2347.05L1230.09 2360.98L1235.24 2360.98Z" fill="#ffe9ab" fill-rule="nonzero" opacity="1" stroke="none"/>
<path d="M1263.94 2360.98L1263.94 2355.83L1255.4 2355.83C1253.76 2355.83 1253.61 2355.69 1253.61 2354.82L1253.61 2347.32C1253.61 2345.83 1253.94 2345.51 1255.4 2345.51L1263.94 2345.51L1263.94 2340.33L1253.61 2340.33C1250.34 2340.33 1248.46 2342.2 1248.46 2345.51L1248.46 2355.83C1248.46 2359.14 1250.31 2360.98 1253.61 2360.98L1263.94 2360.98Z" fill="#ffe9ab" fill-rule="nonzero" opacity="1" stroke="none"/>
<path d="M1282.75 2360.98L1278.44 2354.73C1281.09 2353.42 1282.75 2351.04 1282.75 2347.77C1282.75 2343.27 1279.27 2340.03 1275.02 2340.03C1270.79 2340.03 1267.28 2343.16 1267.28 2347.77L1267.28 2360.98L1272.43 2360.98L1272.43 2355.06L1276.56 2360.98L1282.75 2360.98ZM1277.6 2347.77C1277.6 2349.38 1276.44 2350.36 1275.02 2350.36C1273.56 2350.36 1272.43 2349.38 1272.43 2347.77C1272.43 2346.16 1273.56 2345.18 1275.02 2345.18C1276.44 2345.18 1277.6 2346.16 1277.6 2347.77Z" fill="#ffe9ab" fill-rule="nonzero" opacity="1" stroke="none"/>
<path d="M1301.72 2360.98L1301.72 2355.83L1292.67 2355.83C1291.84 2355.83 1291.42 2355.3 1291.42 2354.5C1291.42 2353.42 1291.95 2353.01 1292.67 2353.01L1301.66 2353.01L1301.66 2348.3L1292.67 2348.3C1291.84 2348.3 1291.42 2347.8 1291.42 2346.99C1291.42 2346.04 1291.95 2345.51 1292.67 2345.51L1301.72 2345.51L1301.72 2340.33L1291.39 2340.33C1288.12 2340.33 1286.36 2342.2 1286.36 2345.51L1286.36 2348.07C1286.36 2349.26 1286.95 2350.21 1287.76 2350.69C1286.81 2351.13 1286.24 2352.17 1286.24 2353.24L1286.24 2355.83C1286.24 2359.14 1288.09 2360.98 1291.39 2360.98L1301.72 2360.98Z" fill="#ffe9ab" fill-rule="nonzero" opacity="1" stroke="none"/>
<path d="M1326.22 2360.98L1318.42 2340.3L1312.73 2340.3L1305.03 2360.98L1310.41 2360.98L1315.53 2347.2L1320.74 2360.98L1326.22 2360.98ZM1318.09 2360.98L1315.56 2354.02L1313.03 2360.98L1318.09 2360.98Z" fill="#ffe9ab" fill-rule="nonzero" opacity="1" stroke="none"/>
<path d="M1337.26 2360.98L1337.26 2345.51L1342.89 2345.51L1342.89 2340.33L1326.49 2340.33L1326.49 2345.51L1332.09 2345.51L1332.09 2360.98L1337.26 2360.98Z" fill="#ffe9ab" fill-rule="nonzero" opacity="1" stroke="none"/>
<path d="M1356.73 2360.98L1356.73 2355.83L1354.17 2355.83L1354.17 2345.51L1356.73 2345.51L1356.73 2340.33L1346.41 2340.33L1346.41 2345.51L1349 2345.51L1349 2355.83L1346.41 2355.83L1346.41 2360.98L1356.73 2360.98Z" fill="#ffe9ab" fill-rule="nonzero" opacity="1" stroke="none"/>
<path d="M1370.49 2347.29L1372.99 2340.33L1367.93 2340.33L1370.49 2347.29ZM1373.11 2360.98L1380.91 2340.33L1375.64 2340.33L1370.43 2354.08L1365.31 2340.33L1359.71 2340.33L1367.42 2360.98L1373.11 2360.98Z" fill="#ffe9ab" fill-rule="nonzero" opacity="1" stroke="none"/>
<path d="M1398.5 2360.98L1398.5 2355.83L1389.45 2355.83C1388.62 2355.83 1388.2 2355.3 1388.2 2354.5C1388.2 2353.42 1388.74 2353.01 1389.45 2353.01L1398.44 2353.01L1398.44 2348.3L1389.45 2348.3C1388.62 2348.3 1388.2 2347.8 1388.2 2346.99C1388.2 2346.04 1388.74 2345.51 1389.45 2345.51L1398.5 2345.51L1398.5 2340.33L1388.17 2340.33C1384.9 2340.33 1383.14 2342.2 1383.14 2345.51L1383.14 2348.07C1383.14 2349.26 1383.74 2350.21 1384.54 2350.69C1383.59 2351.13 1383.02 2352.17 1383.02 2353.24L1383.02 2355.83C1383.02 2359.14 1384.87 2360.98 1388.17 2360.98L1398.5 2360.98Z" fill="#ffe9ab" fill-rule="nonzero" opacity="1" stroke="none"/>
<path d="M1417.88 2360.98C1421.16 2360.98 1423.06 2359.11 1423.06 2355.83L1423.06 2340.33L1417.88 2340.33L1417.88 2354.14C1417.88 2355.42 1417.61 2355.83 1416.39 2355.83L1415.29 2355.83L1415.29 2340.33L1410.14 2340.33L1410.14 2355.83L1409.13 2355.83C1407.91 2355.83 1407.55 2355.48 1407.55 2354.14L1407.55 2340.33L1402.4 2340.33L1402.4 2355.83C1402.4 2359.11 1404.31 2360.98 1407.55 2360.98L1417.88 2360.98Z" fill="#ffe9ab" fill-rule="nonzero" opacity="1" stroke="none"/>
<path d="M1436.7 2361.28C1442.47 2361.28 1447.02 2356.82 1447.02 2350.66C1447.02 2344.49 1442.47 2340.03 1436.7 2340.03C1430.92 2340.03 1426.37 2344.49 1426.37 2350.66C1426.37 2356.82 1430.92 2361.28 1436.7 2361.28ZM1436.7 2356.13C1433.87 2356.13 1431.49 2354.17 1431.49 2350.66C1431.49 2347.14 1433.87 2345.18 1436.7 2345.18C1439.52 2345.18 1441.93 2347.14 1441.93 2350.66C1441.93 2354.17 1439.52 2356.13 1436.7 2356.13ZM1436.7 2353.24C1438.15 2353.24 1439.23 2352.08 1439.23 2350.66C1439.23 2349.23 1438.15 2348.07 1436.7 2348.07C1435.24 2348.07 1434.2 2349.23 1434.2 2350.66C1434.2 2352.08 1435.24 2353.24 1436.7 2353.24Z" fill="#ffe9ab" fill-rule="nonzero" opacity="1" stroke="none"/>
<path d="M1465.84 2360.98L1461.52 2354.73C1464.17 2353.42 1465.84 2351.04 1465.84 2347.77C1465.84 2343.27 1462.36 2340.03 1458.1 2340.03C1453.87 2340.03 1450.36 2343.16 1450.36 2347.77L1450.36 2360.98L1455.51 2360.98L1455.51 2355.06L1459.65 2360.98L1465.84 2360.98ZM1460.69 2347.77C1460.69 2349.38 1459.53 2350.36 1458.1 2350.36C1456.64 2350.36 1455.51 2349.38 1455.51 2347.77C1455.51 2346.16 1456.64 2345.18 1458.1 2345.18C1459.53 2345.18 1460.69 2346.16 1460.69 2347.77Z" fill="#ffe9ab" fill-rule="nonzero" opacity="1" stroke="none"/>
<path d="M1479.65 2349.38C1482.9 2349.38 1484.8 2347.47 1484.8 2344.23L1484.8 2340.33L1479.65 2340.33L1479.65 2342.59C1479.65 2344.05 1479.3 2344.41 1477.81 2344.41L1474.48 2344.41L1474.48 2340.33L1469.33 2340.33L1469.33 2349.38L1479.65 2349.38ZM1484.8 2360.98L1484.8 2357.11C1484.8 2353.84 1482.9 2351.97 1479.65 2351.97L1469.33 2351.97L1469.33 2360.98L1474.48 2360.98L1474.48 2356.94L1477.81 2356.94C1479.3 2356.94 1479.65 2357.29 1479.65 2358.72L1479.65 2360.98L1484.8 2360.98Z" fill="#ffe9ab" fill-rule="nonzero" opacity="1" stroke="none"/>
<path d="M1503.89 2345.51L1503.89 2340.33L1493.56 2340.33C1490.25 2340.33 1488.38 2342.17 1488.38 2345.51L1488.38 2348.07C1488.38 2351.37 1490.31 2353.24 1493.56 2353.24L1495.37 2353.24L1495.37 2348.07L1494.87 2348.07C1494.12 2348.07 1493.62 2347.44 1493.62 2346.7C1493.62 2345.89 1494.03 2345.51 1494.87 2345.51L1503.89 2345.51ZM1498.71 2360.98C1502.04 2360.98 1503.89 2359.14 1503.89 2355.83L1503.89 2353.24C1503.89 2349.97 1502.01 2348.07 1498.71 2348.07L1496.92 2348.07L1496.92 2353.24L1497.46 2353.24C1498.17 2353.24 1498.68 2353.87 1498.68 2354.61C1498.68 2355.42 1498.26 2355.83 1497.46 2355.83L1488.38 2355.83L1488.38 2360.98L1498.71 2360.98Z" fill="#ffe9ab" fill-rule="nonzero" opacity="1" stroke="none"/>
</g>
</g>
<path d="M1160.86 2337.61L1160.86 2364.2" fill="none" filter="url(#Filter_4)" stroke="#282828" stroke-linecap="round" stroke-linejoin="round" stroke-width="3" vectornator:shadowAngle="-1.56298" vectornator:shadowColor="#000000" vectornator:shadowOffset="0" vectornator:shadowOpacity="1" vectornator:shadowRadius="3"/>
<g opacity="0">
<path d="M278.101 1176.94L278.101 1138.71L384.821 1138.71L333.853 1248.79L384.013 1249.27L384.191 1285.6L278.101 1285.54L326.678 1176.94L278.101 1176.94Z" fill="#ffe9ab" fill-rule="nonzero" opacity="1" stroke="none"/>
<path d="M384.531 1139.02L383.828 1139.96L402.574 1156.12L358.757 1247.74L382.891 1247.74L382.891 1248.91L400.933 1265.08L400.933 1300.23L294.32 1300.23L275.809 1284.29L274.169 1284.29L318.454 1191.51L295.492 1191.51L277.449 1175.57L276.043 1175.57L276.043 1139.02L384.531 1139.02ZM278.855 1141.6L278.855 1172.76L330.405 1172.76L278.855 1281.48L379.611 1281.48L379.611 1250.55L328.296 1250.55L379.611 1141.6L278.855 1141.6ZM285.182 1157.06C285.182 1160.03 286.275 1162.61 288.462 1164.79C290.649 1166.98 293.227 1168.07 296.195 1168.07C299.787 1168.07 302.56 1166.98 304.513 1164.79C306.465 1162.61 307.442 1160.03 307.442 1157.06C307.442 1153.94 306.348 1151.32 304.161 1149.21C301.974 1147.1 299.319 1146.05 296.195 1146.05C293.227 1146.05 290.649 1147.1 288.462 1149.21C286.275 1151.32 285.182 1153.94 285.182 1157.06ZM314.237 1156.59C314.237 1159.56 315.291 1162.1 317.4 1164.21C319.509 1166.32 322.125 1167.37 325.25 1167.37C328.218 1167.37 330.795 1166.32 332.982 1164.21C335.169 1162.1 336.262 1159.56 336.262 1156.59C336.262 1153.47 335.169 1150.85 332.982 1148.74C330.795 1146.63 328.218 1145.58 325.25 1145.58C322.125 1145.58 319.509 1146.63 317.4 1148.74C315.291 1150.85 314.237 1153.47 314.237 1156.59ZM324.547 1225.95L327.827 1225.95L327.827 1222.44L324.547 1222.44L324.547 1225.95ZM324.547 1220.56L327.827 1220.56L327.827 1217.05L324.547 1217.05L324.547 1220.56ZM324.547 1209.55L327.827 1209.55L327.827 1206.03L324.547 1206.03L324.547 1209.55ZM318.923 1215.17L322.438 1215.17L322.438 1211.66L318.923 1211.66L318.923 1215.17ZM324.547 1204.16L327.827 1204.16L327.827 1200.64L324.547 1200.64L324.547 1204.16ZM333.451 1266.25L329.936 1266.25L329.936 1269.53L333.451 1269.53L333.451 1266.25ZM324.547 1236.96L326.421 1236.96L327.827 1233.92L327.827 1233.45L324.547 1233.45L324.547 1236.96ZM324.547 1231.34L327.827 1231.34L327.827 1228.06L324.547 1228.06L324.547 1231.34ZM329.936 1215.17L333.451 1215.17L333.451 1211.66L329.936 1211.66L329.936 1215.17ZM329.936 1204.16L333.451 1204.16L333.451 1200.64L329.936 1200.64L329.936 1204.16ZM329.936 1198.77L333.451 1198.77L333.451 1195.25L329.936 1195.25L329.936 1198.77ZM329.936 1193.15L333.451 1193.15L333.451 1189.87L329.936 1189.87L329.936 1193.15ZM335.325 1218.22L335.794 1217.05L335.325 1217.05L335.325 1218.22ZM329.936 1229.7L330.639 1228.06L329.936 1228.06L329.936 1229.7ZM329.936 1220.56L333.451 1220.56L333.451 1217.05L329.936 1217.05L329.936 1220.56ZM329.936 1225.95L331.576 1225.95L333.216 1222.44L329.936 1222.44L329.936 1225.95ZM318.923 1220.56L322.438 1220.56L322.438 1217.05L318.923 1217.05L318.923 1220.56ZM329.936 1209.55L333.451 1209.55L333.451 1206.03L329.936 1206.03L329.936 1209.55ZM318.923 1252.66L320.329 1249.85L318.923 1249.85L318.923 1252.66ZM313.534 1253.36L317.049 1253.36L317.049 1249.85L313.534 1249.85L313.534 1253.36ZM322.438 1266.25L318.923 1266.25L318.923 1269.53L322.438 1269.53L322.438 1266.25ZM322.438 1260.63L318.923 1260.63L318.923 1264.14L322.438 1264.14L322.438 1260.63ZM313.534 1242.35L317.049 1242.35L317.049 1238.84L313.534 1238.84L313.534 1242.35ZM313.534 1247.74L317.049 1247.74L317.049 1244.23L313.534 1244.23L313.534 1247.74ZM318.923 1225.95L322.438 1225.95L322.438 1222.44L318.923 1222.44L318.923 1225.95ZM327.827 1260.63L324.547 1260.63L324.547 1264.14L327.827 1264.14L327.827 1260.63ZM327.827 1256.88L324.547 1256.88L324.547 1258.75L327.827 1258.75L327.827 1256.88ZM327.827 1266.25L324.547 1266.25L324.547 1269.53L327.827 1269.53L327.827 1266.25ZM322.438 1256.88L318.923 1256.88L318.923 1258.75L322.438 1258.75L322.438 1256.88ZM318.923 1242.35L322.438 1242.35L322.438 1238.84L318.923 1238.84L318.923 1242.35ZM318.923 1247.74L321.266 1247.74L322.438 1245.4L322.438 1244.23L318.923 1244.23L318.923 1247.74ZM318.923 1236.96L322.438 1236.96L322.438 1233.45L318.923 1233.45L318.923 1236.96ZM318.923 1231.34L322.438 1231.34L322.438 1228.06L318.923 1228.06L318.923 1231.34ZM313.534 1225.95L317.049 1225.95L317.049 1222.44L313.534 1222.44L313.534 1225.95ZM313.534 1231.34L317.049 1231.34L317.049 1228.06L313.534 1228.06L313.534 1231.34ZM313.534 1236.96L317.049 1236.96L317.049 1233.45L313.534 1233.45L313.534 1236.96ZM335.325 1215.17L336.731 1215.17L338.606 1211.66L335.325 1211.66L335.325 1215.17ZM324.547 1241.18L325.484 1238.84L324.547 1238.84L324.547 1241.18ZM351.727 1160.58L355.242 1160.58L355.242 1157.06L351.727 1157.06L351.727 1160.58ZM351.727 1165.97L355.242 1165.97L355.242 1162.45L351.727 1162.45L351.727 1165.97ZM335.325 1209.55L338.84 1209.55L338.84 1206.03L335.325 1206.03L335.325 1209.55ZM357.116 1165.97L360.163 1165.97L360.631 1165.03L360.631 1162.45L357.116 1162.45L357.116 1165.97ZM351.727 1171.35L355.242 1171.35L355.242 1167.84L351.727 1167.84L351.727 1171.35ZM346.338 1160.58L349.853 1160.58L349.853 1157.06L346.338 1157.06L346.338 1160.58ZM346.338 1165.97L349.853 1165.97L349.853 1162.45L346.338 1162.45L346.338 1165.97ZM351.727 1176.98L355.008 1176.98L355.242 1176.51L355.242 1173.46L351.727 1173.46L351.727 1176.98ZM357.116 1160.58L360.631 1160.58L360.631 1157.06L357.116 1157.06L357.116 1160.58ZM313.534 1269.53L317.049 1269.53L317.049 1266.25L313.534 1266.25L313.534 1269.53ZM317.049 1256.88L317.049 1256.88L317.049 1256.88L317.049 1255.24L313.534 1255.24L313.534 1258.75L317.049 1258.75L317.049 1256.88ZM346.338 1171.35L349.853 1171.35L349.853 1167.84L346.338 1167.84L346.338 1171.35ZM351.727 1178.85L351.727 1182.37L352.43 1182.37L354.07 1178.85L351.727 1178.85ZM357.116 1154.95L360.631 1154.95L360.631 1151.67L357.116 1151.67L357.116 1154.95ZM317.049 1260.63L313.534 1260.63L313.534 1264.14L317.049 1264.14L317.049 1260.63ZM362.74 1154.95L365.317 1154.95L366.02 1153.55L366.02 1151.67L362.74 1151.67L362.74 1154.95ZM362.74 1157.06L362.74 1160.58L362.74 1160.58L364.38 1157.06L362.74 1157.06ZM357.116 1167.84L357.116 1171.35L357.585 1171.35L359.225 1167.84L357.116 1167.84ZM351.727 1154.95L355.242 1154.95L355.242 1151.67L351.727 1151.67L351.727 1154.95ZM340.714 1206.74L341.183 1206.03L340.714 1206.03L340.714 1206.74ZM335.325 1182.37L338.84 1182.37L338.84 1178.85L335.325 1178.85L335.325 1182.37ZM340.714 1204.16L342.12 1204.16L343.76 1200.64L340.714 1200.64L340.714 1204.16ZM340.714 1198.77L344.229 1198.77L344.229 1195.25L340.714 1195.25L340.714 1198.77ZM335.325 1193.15L338.84 1193.15L338.84 1189.87L335.325 1189.87L335.325 1193.15ZM335.325 1204.16L338.84 1204.16L338.84 1200.64L335.325 1200.64L335.325 1204.16ZM335.325 1198.77L338.84 1198.77L338.84 1195.25L335.325 1195.25L335.325 1198.77ZM335.325 1187.76L338.84 1187.76L338.84 1184.24L335.325 1184.24L335.325 1187.76ZM340.714 1193.15L344.229 1193.15L344.229 1189.87L340.714 1189.87L340.714 1193.15ZM340.714 1171.35L344.229 1171.35L344.229 1167.84L340.714 1167.84L340.714 1171.35ZM346.338 1193.15L347.275 1193.15L348.915 1189.87L346.338 1189.87L346.338 1193.15ZM340.714 1187.76L344.229 1187.76L344.229 1184.24L340.714 1184.24L340.714 1187.76ZM346.338 1182.37L349.853 1182.37L349.853 1178.85L346.338 1178.85L346.338 1182.37ZM346.338 1187.76L349.853 1187.76L349.853 1184.24L346.338 1184.24L346.338 1187.76ZM346.338 1176.98L349.853 1176.98L349.853 1173.46L346.338 1173.46L346.338 1176.98ZM340.714 1182.37L344.229 1182.37L344.229 1178.85L340.714 1178.85L340.714 1182.37ZM340.714 1176.98L344.229 1176.98L344.229 1173.46L340.714 1173.46L340.714 1176.98ZM324.547 1215.17L327.827 1215.17L327.827 1211.66L324.547 1211.66L324.547 1215.17ZM302.521 1269.53L306.036 1269.53L306.036 1266.25L302.521 1266.25L302.521 1269.53ZM306.036 1255.24L302.521 1255.24L302.521 1258.75L306.036 1258.75L306.036 1255.24ZM306.036 1260.63L302.521 1260.63L302.521 1264.14L306.036 1264.14L306.036 1260.63ZM297.132 1269.53L300.647 1269.53L300.647 1266.25L297.132 1266.25L297.132 1269.53ZM306.036 1242.35L306.036 1238.84L305.801 1238.84L303.927 1242.35L306.036 1242.35ZM300.647 1260.63L297.132 1260.63L297.132 1264.14L300.647 1264.14L300.647 1260.63ZM306.036 1249.85L302.521 1249.85L302.521 1253.36L306.036 1253.36L306.036 1249.85ZM300.647 1258.75L300.647 1255.24L297.835 1255.24L297.132 1256.88L297.132 1258.75L300.647 1258.75ZM300.647 1253.36L300.647 1249.85L300.412 1249.85L298.772 1253.36L300.647 1253.36ZM306.036 1247.74L306.036 1244.23L302.99 1244.23L302.521 1245.4L302.521 1247.74L306.036 1247.74ZM311.659 1231.34L311.659 1228.06L310.956 1228.06L309.316 1231.34L311.659 1231.34ZM311.659 1238.84L308.145 1238.84L308.145 1242.35L311.659 1242.35L311.659 1238.84ZM317.049 1217.05L316.111 1217.05L314.471 1220.56L317.049 1220.56L317.049 1217.05ZM311.659 1260.63L308.145 1260.63L308.145 1264.14L311.659 1264.14L311.659 1260.63ZM311.659 1236.96L311.659 1233.45L308.379 1233.45L308.145 1233.92L308.145 1236.96L311.659 1236.96ZM311.659 1244.23L308.145 1244.23L308.145 1247.74L311.659 1247.74L311.659 1244.23ZM311.659 1249.85L308.145 1249.85L308.145 1253.36L311.659 1253.36L311.659 1249.85ZM311.659 1255.24L308.145 1255.24L308.145 1258.75L311.659 1258.75L311.659 1255.24ZM308.145 1269.53L311.659 1269.53L311.659 1266.25L308.145 1266.25L308.145 1269.53ZM295.257 1260.86L293.617 1264.14L295.257 1264.14L295.257 1260.86ZM344.229 1271.64L340.714 1271.64L340.714 1274.69L344.229 1274.69L344.229 1271.64ZM349.853 1271.64L346.338 1271.64L346.338 1274.69L349.853 1274.69L349.853 1271.64ZM338.84 1271.64L335.325 1271.64L335.325 1274.69L338.84 1274.69L338.84 1271.64ZM333.451 1260.63L329.936 1260.63L329.936 1264.14L333.451 1264.14L333.451 1260.63ZM371.644 1271.64L368.129 1271.64L368.129 1274.69L371.644 1274.69L371.644 1271.64ZM333.451 1271.64L329.936 1271.64L329.936 1274.69L333.451 1274.69L333.451 1271.64ZM360.631 1271.64L357.116 1271.64L357.116 1274.69L360.631 1274.69L360.631 1271.64ZM289.634 1272.34L288.696 1274.69L289.634 1274.69L289.634 1272.34ZM366.02 1271.64L362.74 1271.64L362.74 1274.69L366.02 1274.69L366.02 1271.64ZM355.242 1271.64L351.727 1271.64L351.727 1274.69L355.242 1274.69L355.242 1271.64ZM295.257 1274.69L295.257 1271.64L291.743 1271.64L291.743 1274.69L295.257 1274.69ZM300.647 1271.64L297.132 1271.64L297.132 1274.69L300.647 1274.69L300.647 1271.64ZM295.257 1269.53L295.257 1266.25L292.68 1266.25L291.743 1268.13L291.743 1269.53L295.257 1269.53ZM306.036 1271.64L302.521 1271.64L302.521 1274.69L306.036 1274.69L306.036 1271.64ZM327.827 1271.64L324.547 1271.64L324.547 1274.69L327.827 1274.69L327.827 1271.64ZM322.438 1271.64L318.923 1271.64L318.923 1274.69L322.438 1274.69L322.438 1271.64ZM311.659 1271.64L308.145 1271.64L308.145 1274.69L311.659 1274.69L311.659 1271.64ZM317.049 1271.64L313.534 1271.64L313.534 1274.69L317.049 1274.69L317.049 1271.64ZM322.438 1206.03L321.266 1206.03L319.626 1209.55L322.438 1209.55L322.438 1206.03ZM355.242 1266.25L351.727 1266.25L351.727 1269.53L355.242 1269.53L355.242 1266.25ZM355.242 1256.88L351.727 1256.88L351.727 1258.75L355.242 1258.75L355.242 1256.88ZM366.02 1260.63L362.74 1260.63L362.74 1264.14L366.02 1264.14L366.02 1260.63ZM349.853 1256.88L346.338 1256.88L346.338 1258.75L349.853 1258.75L349.853 1256.88ZM360.631 1260.63L357.116 1260.63L357.116 1264.14L360.631 1264.14L360.631 1260.63ZM366.02 1266.25L362.74 1266.25L362.74 1269.53L366.02 1269.53L366.02 1266.25ZM360.631 1256.88L357.116 1256.88L357.116 1258.75L360.631 1258.75L360.631 1256.88ZM349.853 1260.63L346.338 1260.63L346.338 1264.14L349.853 1264.14L349.853 1260.63ZM360.631 1266.25L357.116 1266.25L357.116 1269.53L360.631 1269.53L360.631 1266.25ZM355.242 1260.63L351.727 1260.63L351.727 1264.14L355.242 1264.14L355.242 1260.63ZM338.84 1266.25L335.325 1266.25L335.325 1269.53L338.84 1269.53L338.84 1266.25ZM322.438 1204.16L322.438 1203.69L322.204 1204.16L322.438 1204.16ZM333.451 1256.88L329.936 1256.88L329.936 1258.75L333.451 1258.75L333.451 1256.88ZM349.853 1266.25L346.338 1266.25L346.338 1269.53L349.853 1269.53L349.853 1266.25ZM338.84 1256.88L335.325 1256.88L335.325 1258.75L338.84 1258.75L338.84 1256.88ZM344.229 1256.88L340.714 1256.88L340.714 1258.75L344.229 1258.75L344.229 1256.88ZM344.229 1266.25L340.714 1266.25L340.714 1269.53L344.229 1269.53L344.229 1266.25ZM344.229 1260.63L340.714 1260.63L340.714 1264.14L344.229 1264.14L344.229 1260.63ZM338.84 1260.63L335.325 1260.63L335.325 1264.14L338.84 1264.14L338.84 1260.63ZM338.84 1171.35L338.84 1169.48L337.903 1171.35L338.84 1171.35ZM344.229 1165.97L344.229 1162.45L342.12 1162.45L340.714 1165.26L340.714 1165.97L344.229 1165.97ZM338.84 1176.98L338.84 1173.46L336.965 1173.46L335.325 1176.74L335.325 1176.98L338.84 1176.98ZM344.229 1160.58L344.229 1158L343.058 1160.58L344.229 1160.58ZM327.827 1195.25L326.421 1195.25L324.781 1198.77L327.827 1198.77L327.827 1195.25ZM333.451 1182.37L333.451 1180.73L332.748 1182.37L333.451 1182.37ZM327.827 1193.15L327.827 1192.21L327.358 1193.15L327.827 1193.15ZM366.02 1256.88L362.74 1256.88L362.74 1258.75L366.02 1258.75L366.02 1256.88ZM333.451 1184.24L331.81 1184.24L330.17 1187.76L333.451 1187.76L333.451 1184.24ZM349.853 1154.95L349.853 1151.67L347.275 1151.67L346.338 1153.78L346.338 1154.95L349.853 1154.95ZM368.598 1148.39L368.129 1148.39L368.129 1149.33L368.598 1148.39ZM371.644 1260.63L368.129 1260.63L368.129 1264.14L371.644 1264.14L371.644 1260.63ZM371.644 1256.88L368.129 1256.88L368.129 1258.75L371.644 1258.75L371.644 1256.88ZM348.212 1149.56L349.853 1149.56L349.853 1148.39L348.915 1148.39L348.212 1149.56ZM371.644 1266.25L368.129 1266.25L368.129 1269.53L371.644 1269.53L371.644 1266.25ZM355.242 1149.56L355.242 1148.39L351.727 1148.39L351.727 1149.56L355.242 1149.56ZM360.631 1149.56L360.631 1148.39L357.116 1148.39L357.116 1149.56L360.631 1149.56ZM366.02 1149.56L366.02 1148.39L362.74 1148.39L362.74 1149.56L366.02 1149.56Z" fill="#000000" fill-rule="nonzero" opacity="1" stroke="none"/>
</g>
<g opacity="0">
<path d="M2114.23 1277.16L2113.61 1145.33L2077.31 1144.09L2077.93 1204.74L2002.2 1140.99L2002.83 1276.54L2036.62 1275.92L2033.49 1209.7L2114.23 1277.16Z" fill="#ffe9ab" fill-rule="nonzero" opacity="1" stroke="none"/>
<path d="M2076.91 1141.55L2110.95 1141.55L2110.95 1142.64L2128.19 1157.47L2128.19 1293.84L2110.95 1279L2110.95 1279.44L2049.86 1227.07L2049.86 1291.65L2016.48 1291.65L1999.46 1276.82L1998.37 1276.82L1998.37 1138.71L2076.91 1205.91L2076.91 1141.55ZM2079.53 1211.36L2000.77 1143.95L2000.77 1274.2L2029.79 1274.2L2029.79 1207L2108.33 1274.2L2108.33 1143.95L2079.53 1143.95L2079.53 1211.36ZM2087.17 1177.33C2087.17 1179.36 2087.82 1181.07 2089.13 1182.46C2090.44 1183.84 2092.11 1184.53 2094.15 1184.53C2096.04 1184.53 2097.64 1183.84 2098.95 1182.46C2100.26 1181.07 2100.91 1179.36 2100.91 1177.33C2100.91 1175.58 2100.26 1174.06 2098.95 1172.75C2097.64 1171.44 2096.04 1170.78 2094.15 1170.78C2092.11 1170.78 2090.44 1171.44 2089.13 1172.75C2087.82 1174.06 2087.17 1175.58 2087.17 1177.33ZM2087.39 1157.69C2087.39 1159.58 2088 1161.18 2089.24 1162.49C2090.48 1163.8 2092.11 1164.46 2094.15 1164.46C2096.04 1164.46 2097.68 1163.8 2099.06 1162.49C2100.44 1161.18 2101.13 1159.58 2101.13 1157.69C2101.13 1155.66 2100.44 1153.98 2099.06 1152.67C2097.68 1151.36 2096.04 1150.71 2094.15 1150.71C2092.11 1150.71 2090.48 1151.36 2089.24 1152.67C2088 1153.98 2087.39 1155.66 2087.39 1157.69ZM2087.17 1197.84C2087.17 1199.58 2087.82 1201.15 2089.13 1202.53C2090.44 1203.91 2092.11 1204.6 2094.15 1204.6C2096.04 1204.6 2097.64 1203.91 2098.95 1202.53C2100.26 1201.15 2100.91 1199.58 2100.91 1197.84C2100.91 1195.95 2100.26 1194.31 2098.95 1192.93C2097.64 1191.55 2096.04 1190.86 2094.15 1190.86C2092.11 1190.86 2090.44 1191.55 2089.13 1192.93C2087.82 1194.31 2087.17 1195.95 2087.17 1197.84ZM2086.51 1216.38C2086.51 1218.13 2087.17 1219.69 2088.48 1221.07C2089.79 1222.46 2091.46 1223.15 2093.49 1223.15C2095.39 1223.15 2096.99 1222.46 2098.29 1221.07C2099.6 1219.69 2100.26 1218.13 2100.26 1216.38C2100.26 1214.35 2099.6 1212.64 2098.29 1211.26C2096.99 1209.87 2095.39 1209.18 2093.49 1209.18C2091.46 1209.18 2089.79 1209.87 2088.48 1211.26C2087.17 1212.64 2086.51 1214.35 2086.51 1216.38ZM2007.1 1212.67L2007.1 1217.47L2023.89 1232.53L2023.89 1227.95L2007.1 1212.67ZM2007.1 1246.05L2023.89 1261.33L2023.89 1256.53L2007.1 1241.47L2007.1 1246.05ZM2007.1 1234.49L2007.1 1238.86L2023.89 1254.13L2023.89 1249.55L2007.1 1234.49ZM2007.1 1224.46L2023.89 1239.95L2023.89 1235.36L2007.1 1219.87L2007.1 1224.46ZM2007.1 1227.07L2007.1 1231.66L2023.89 1246.93L2023.89 1242.35L2007.1 1227.07ZM2007.1 1267.65L2008.4 1268.96L2013.42 1268.96L2007.1 1263.29L2007.1 1267.65ZM2007.1 1255.87L2007.1 1260.67L2016.48 1268.96L2021.06 1268.96L2007.1 1255.87ZM2007.1 1248.89L2007.1 1253.25L2023.89 1268.31L2023.89 1263.95L2007.1 1248.89ZM2007.1 1162.49L2007.1 1167.07L2102.44 1254.13L2102.44 1249.55L2007.1 1162.49ZM2007.1 1181.47L2023.89 1196.53L2023.89 1194.35L2060.77 1225.76L2007.1 1176.67L2007.1 1181.47ZM2007.1 1169.91L2007.1 1174.27L2102.44 1261.11L2102.44 1256.53L2007.1 1169.91ZM2007.1 1158.35L2007.1 1159.87L2102.44 1247.15L2102.66 1242.35L2059.46 1202.86L2007.1 1158.35ZM2007.1 1184.09L2007.1 1188.67L2023.89 1203.73L2023.89 1199.15L2007.1 1184.09ZM2007.1 1205.47L2007.1 1210.06L2023.89 1225.55L2023.89 1220.75L2007.1 1205.47ZM2007.1 1203.07L2023.89 1218.13L2023.89 1213.76L2007.1 1198.27L2007.1 1203.07ZM2007.1 1191.29L2007.1 1195.87L2023.89 1211.15L2023.89 1206.56L2007.1 1191.29Z" fill="#000000" fill-rule="nonzero" opacity="1" stroke="none"/>
</g>
<g fill="#000000" opacity="0" stroke="none">
<path d="M245.057 2047.27C241.409 2047.7 238.085 2048.76 235.085 2050.44C232.085 2052.12 229.529 2054.23 227.417 2056.77C225.305 2059.32 223.661 2062.2 222.485 2065.41C221.309 2068.63 220.721 2071.97 220.721 2075.42C220.721 2078.88 221.309 2082.21 222.485 2085.43C223.661 2088.65 225.305 2091.53 227.417 2094.07C229.529 2096.61 232.085 2098.73 235.085 2100.41C238.085 2102.09 241.409 2103.14 245.057 2103.57L245.705 2103.65L245.705 2112.86L244.769 2112.72C240.017 2111.95 235.589 2110.43 231.485 2108.15C227.381 2105.87 223.829 2103.07 220.829 2099.76C217.829 2096.45 215.465 2092.7 213.737 2088.53C212.009 2084.35 211.145 2079.98 211.145 2075.42C211.145 2070.86 212.009 2066.51 213.737 2062.35C215.465 2058.2 217.829 2054.46 220.829 2051.12C223.829 2047.79 227.381 2044.99 231.485 2042.73C235.589 2040.48 240.017 2038.94 244.769 2038.13L245.705 2037.98L245.705 2047.2L245.057 2047.27Z" fill="#000000"/>
<path d="M396.489 2100.69C397.401 2101.27 398.325 2101.71 399.261 2102.03C400.197 2102.34 401.229 2102.58 402.357 2102.75C403.485 2102.91 404.781 2103.02 406.245 2103.07C407.709 2103.12 409.425 2103.14 411.393 2103.14L411.393 2112.14C409.281 2112.14 407.349 2112.12 405.597 2112.07C403.845 2112.02 402.189 2111.87 400.629 2111.6C399.069 2111.34 397.569 2110.95 396.129 2110.45C394.689 2109.95 393.225 2109.24 391.737 2108.33C389.433 2106.93 387.369 2105.04 385.545 2102.64C383.721 2100.24 382.281 2097.65 381.225 2094.86L380.289 2096.01L378.057 2098.68L378.057 2112.43L369.057 2112.43L369.057 2041.01L369.129 2041.01L369.129 2040.14L396.705 2040.14L396.993 2040.14C397.329 2040.14 397.545 2040.17 397.641 2040.21L397.641 2040.14L398.721 2040.14C399.777 2040.14 400.869 2040.21 401.997 2040.36C403.125 2040.5 404.169 2041.05 405.129 2042.01C405.657 2042.54 406.065 2043.12 406.353 2043.74C406.641 2044.37 406.845 2045.09 406.965 2045.9C407.085 2046.72 407.145 2047.65 407.145 2048.71C407.145 2049.77 407.145 2051.01 407.145 2052.45L407.145 2056.05C407.145 2057.78 406.941 2059.37 406.533 2060.81C406.125 2062.25 405.453 2063.75 404.517 2065.31C403.581 2066.87 402.369 2068.61 400.881 2070.53C399.393 2072.45 397.569 2074.73 395.409 2077.37L392.601 2080.82C391.737 2081.88 390.981 2082.81 390.333 2083.63C389.685 2084.45 389.097 2085.17 388.569 2085.79C388.521 2087.13 388.689 2088.54 389.073 2090C389.457 2091.47 390.009 2092.88 390.729 2094.25C391.449 2095.62 392.301 2096.87 393.285 2097.99C394.269 2099.12 395.337 2100.02 396.489 2100.69ZM378.057 2084.49C378.057 2084.45 378.081 2084.4 378.129 2084.35C378.129 2084.35 378.201 2084.27 378.345 2084.1C378.489 2083.93 378.813 2083.55 379.317 2082.95C379.821 2082.35 380.577 2081.43 381.585 2080.21C382.593 2078.99 383.961 2077.29 385.689 2075.13L388.497 2071.68C390.513 2069.18 392.157 2067.14 393.429 2065.56C394.701 2063.97 395.685 2062.64 396.381 2061.56C397.077 2060.48 397.557 2059.53 397.821 2058.72C398.085 2057.9 398.217 2057.01 398.217 2056.05L398.217 2052.38L398.217 2049.14L397.641 2049.14L393.177 2049.14L392.097 2049.14L378.057 2049.14L378.057 2084.49Z" fill="#000000"/>
<path d="M545.113 2066.71C544.729 2066.71 544.345 2066.72 543.961 2066.75C543.577 2066.77 543.193 2066.81 542.809 2066.85L542.809 2103.07L564.841 2103.07L564.841 2112.14L533.809 2112.14L533.809 2112L533.737 2112L533.737 2040.86L533.737 2040.14L564.841 2040.14L564.841 2049.21L542.809 2049.21L542.809 2057.71C543.193 2057.66 543.577 2057.63 543.961 2057.6C544.345 2057.58 544.729 2057.57 545.113 2057.57C546.505 2057.57 547.717 2057.73 548.749 2058.07C549.781 2058.41 550.777 2058.74 551.737 2059.08L552.961 2059.51C553.537 2059.75 554.137 2059.81 554.761 2059.69C555.385 2059.57 555.973 2059.37 556.525 2059.08C557.077 2058.79 557.581 2058.48 558.037 2058.14C558.493 2057.81 558.865 2057.52 559.153 2057.28L565.129 2064.12C563.401 2065.65 561.589 2066.81 559.693 2067.57C557.797 2068.34 555.937 2068.73 554.113 2068.73C552.673 2068.73 551.281 2068.51 549.937 2068.08C549.649 2067.89 549.193 2067.72 548.569 2067.57C547.801 2067.29 547.165 2067.07 546.661 2066.93C546.157 2066.78 545.641 2066.71 545.113 2066.71Z" fill="#000000"/>
<path d="M718.866 2070.02C721.026 2073.19 723.126 2076.39 725.166 2079.63C727.206 2082.87 728.922 2086.37 730.314 2090.11C731.658 2093.71 732.45 2097.41 732.69 2101.2C732.93 2104.99 733.05 2108.64 733.05 2112.14L723.978 2112.14C723.978 2108.83 723.894 2105.59 723.726 2102.42C723.558 2099.25 722.922 2096.23 721.818 2093.35C720.57 2090.04 719.034 2086.94 717.21 2084.06C715.386 2081.18 713.442 2078.23 711.378 2075.21C709.602 2072.61 707.838 2070 706.086 2067.36C704.334 2064.72 702.81 2061.89 701.514 2058.86L701.442 2058.79C700.914 2057.69 700.482 2056.62 700.146 2055.59C699.81 2054.55 699.522 2053.56 699.282 2052.6L699.282 2112.07L690.21 2112.07L690.21 2041.44L690.21 2040.14L690.282 2040.14L718.362 2040.14L718.362 2049.21L707.85 2049.21C708.186 2051.09 708.834 2053.08 709.794 2055.19C710.994 2057.78 712.374 2060.28 713.934 2062.68C715.494 2065.08 717.138 2067.53 718.866 2070.02ZM713.394 2091.48C714.498 2091.86 715.242 2092.07 715.626 2092.09C716.01 2092.11 716.274 2092.05 716.418 2091.91L721.746 2097.02C720.882 2097.98 719.958 2098.64 718.974 2099C717.99 2099.36 717.018 2099.54 716.058 2099.54C715.098 2099.54 714.21 2099.43 713.394 2099.22C712.578 2099 711.834 2098.77 711.162 2098.53C710.634 2098.39 710.13 2098.25 709.65 2098.1C709.17 2097.96 708.762 2097.89 708.426 2097.89C707.61 2097.89 706.95 2097.97 706.446 2098.14C705.942 2098.31 705.45 2098.58 704.97 2098.97L700.002 2093.49C702.306 2091.43 705.138 2090.42 708.498 2090.47C709.41 2090.47 710.274 2090.58 711.09 2090.79C711.906 2091.01 712.674 2091.24 713.394 2091.48Z" fill="#000000"/>
<path d="M867.922 2049.21L867.922 2112.14L858.85 2112.14L858.85 2049.21L843.01 2049.21L843.01 2040.14L883.762 2040.14L883.762 2049.21L867.922 2049.21Z" fill="#000000"/>
<path d="M1017.19 2112.14L1007.33 2112.14L1007.33 2040.14L1017.19 2040.14L1017.19 2112.14Z" fill="#000000"/>
<path d="M1176.76 2040.14L1186.12 2040.14L1167.04 2112.14L1158.33 2112.14L1139.25 2040.14L1148.61 2040.14L1162.65 2093.35L1176.76 2040.14Z" fill="#000000"/>
<path d="M1319.41 2066.71C1319.03 2066.71 1318.64 2066.72 1318.26 2066.75C1317.87 2066.77 1317.49 2066.81 1317.11 2066.85L1317.11 2103.07L1339.14 2103.07L1339.14 2112.14L1308.11 2112.14L1308.11 2112L1308.03 2112L1308.03 2040.86L1308.03 2040.14L1339.14 2040.14L1339.14 2049.21L1317.11 2049.21L1317.11 2057.71C1317.49 2057.66 1317.87 2057.63 1318.26 2057.6C1318.64 2057.58 1319.03 2057.57 1319.41 2057.57C1320.8 2057.57 1322.01 2057.73 1323.05 2058.07C1324.08 2058.41 1325.07 2058.74 1326.03 2059.08L1327.26 2059.51C1327.83 2059.75 1328.43 2059.81 1329.06 2059.69C1329.68 2059.57 1330.27 2059.37 1330.82 2059.08C1331.37 2058.79 1331.88 2058.48 1332.33 2058.14C1332.79 2057.81 1333.16 2057.52 1333.45 2057.28L1339.43 2064.12C1337.7 2065.65 1335.89 2066.81 1333.99 2067.57C1332.09 2068.34 1330.23 2068.73 1328.41 2068.73C1326.97 2068.73 1325.58 2068.51 1324.23 2068.08C1323.95 2067.89 1323.49 2067.72 1322.87 2067.57C1322.1 2067.29 1321.46 2067.07 1320.96 2066.93C1320.45 2066.78 1319.94 2066.71 1319.41 2066.71Z" fill="#000000"/>
<path d="M1529.31 2040.36L1510.3 2112.14L1501.59 2112.14L1496.26 2092.2L1491 2112.14L1482.29 2112.14L1463.28 2040.36L1472.64 2040.36L1486.61 2093.35L1491.65 2074.56L1491.65 2074.41L1482.58 2040.14L1491.87 2040.14L1496.33 2056.85L1500.65 2040.36L1510.01 2040.36L1500.94 2074.56L1505.91 2093.35L1519.95 2040.36L1529.31 2040.36Z" fill="#000000"/>
<path d="M1672.6 2040.14C1675.44 2040.14 1678.11 2040.68 1680.63 2041.76C1683.15 2042.84 1685.35 2044.32 1687.22 2046.19C1689.09 2048.06 1690.57 2050.26 1691.65 2052.78C1692.73 2055.3 1693.27 2058 1693.27 2060.88C1693.27 2063.71 1692.73 2066.39 1691.65 2068.91C1690.57 2071.43 1689.09 2073.62 1687.22 2075.49C1685.35 2077.37 1683.15 2078.84 1680.63 2079.92C1678.11 2081 1675.44 2081.54 1672.6 2081.54C1669.72 2081.54 1667.02 2081 1664.5 2079.92C1661.98 2078.84 1659.79 2077.37 1657.92 2075.49C1656.04 2073.62 1654.57 2071.43 1653.49 2068.91C1652.41 2066.39 1651.87 2063.71 1651.87 2060.88C1651.87 2058 1652.41 2055.3 1653.49 2052.78C1654.57 2050.26 1656.04 2048.06 1657.92 2046.19C1659.79 2044.32 1661.98 2042.84 1664.5 2041.76C1667.02 2040.68 1669.72 2040.14 1672.6 2040.14ZM1672.6 2072.47C1674.19 2072.47 1675.69 2072.17 1677.1 2071.57C1678.52 2070.97 1679.76 2070.14 1680.81 2069.09C1681.87 2068.03 1682.7 2066.79 1683.3 2065.38C1683.9 2063.96 1684.2 2062.46 1684.2 2060.88C1684.2 2059.25 1683.9 2057.72 1683.3 2056.31C1682.7 2054.89 1681.87 2053.65 1680.81 2052.6C1679.76 2051.54 1678.52 2050.71 1677.1 2050.11C1675.69 2049.51 1674.19 2049.21 1672.6 2049.21C1670.97 2049.21 1669.45 2049.51 1668.03 2050.11C1666.62 2050.71 1665.38 2051.54 1664.32 2052.6C1663.27 2053.65 1662.44 2054.89 1661.84 2056.31C1661.24 2057.72 1660.94 2059.25 1660.94 2060.88C1660.94 2062.46 1661.24 2063.96 1661.84 2065.38C1662.44 2066.79 1663.27 2068.03 1664.32 2069.09C1665.38 2070.14 1666.62 2070.97 1668.03 2071.57C1669.45 2072.17 1670.97 2072.47 1672.6 2072.47ZM1676.35 2088.67C1677.74 2088.67 1678.93 2088.51 1679.91 2088.2C1680.9 2087.89 1681.8 2087.35 1682.61 2086.58L1688.66 2093.28C1687.56 2094.24 1686.45 2095.02 1685.35 2095.62C1684.24 2096.22 1683.18 2096.67 1682.14 2096.99C1681.11 2097.3 1680.13 2097.5 1679.19 2097.6C1678.26 2097.69 1677.38 2097.74 1676.56 2097.74L1676.28 2097.74C1674.93 2097.74 1673.64 2097.57 1672.39 2097.24C1671.14 2096.9 1669.96 2096.54 1668.86 2096.16C1666.89 2095.53 1665.5 2095.2 1664.68 2095.15C1663.87 2095.1 1663.27 2095.32 1662.88 2095.8L1656.26 2089.53C1657.51 2088.24 1658.82 2087.35 1660.18 2086.87C1661.55 2086.39 1662.91 2086.15 1664.25 2086.15C1665.6 2086.15 1666.9 2086.31 1668.18 2086.62C1669.45 2086.93 1670.59 2087.25 1671.6 2087.59C1672.51 2087.88 1673.36 2088.13 1674.15 2088.35C1674.94 2088.56 1675.68 2088.67 1676.35 2088.67ZM1676.35 2103.07C1677.74 2103.12 1678.93 2102.97 1679.91 2102.64C1680.9 2102.3 1681.8 2101.75 1682.61 2100.98L1688.66 2107.75C1687.56 2108.71 1686.45 2109.48 1685.35 2110.05C1684.24 2110.63 1683.18 2111.07 1682.14 2111.39C1681.11 2111.7 1680.12 2111.9 1679.16 2112C1678.2 2112.09 1677.33 2112.14 1676.56 2112.14L1676.28 2112.14C1674.93 2112.14 1673.64 2111.99 1672.39 2111.67C1671.14 2111.36 1669.96 2111.01 1668.86 2110.63C1666.84 2109.96 1665.45 2109.59 1664.68 2109.51C1663.92 2109.44 1663.32 2109.67 1662.88 2110.2L1656.26 2103.93C1657.51 2102.64 1658.82 2101.74 1660.18 2101.23C1661.55 2100.73 1662.91 2100.48 1664.25 2100.48C1665.6 2100.48 1666.9 2100.65 1668.18 2100.98C1669.45 2101.32 1670.59 2101.65 1671.6 2101.99C1672.51 2102.28 1673.36 2102.53 1674.15 2102.75C1674.94 2102.96 1675.68 2103.07 1676.35 2103.07Z" fill="#000000"/>
<path d="M1842.61 2100.69C1843.52 2101.27 1844.45 2101.71 1845.38 2102.03C1846.32 2102.34 1847.35 2102.58 1848.48 2102.75C1849.61 2102.91 1850.9 2103.02 1852.37 2103.07C1853.83 2103.12 1855.55 2103.14 1857.52 2103.14L1857.52 2112.14C1855.4 2112.14 1853.47 2112.12 1851.72 2112.07C1849.97 2112.02 1848.31 2111.87 1846.75 2111.6C1845.19 2111.34 1843.69 2110.95 1842.25 2110.45C1840.81 2109.95 1839.35 2109.24 1837.86 2108.33C1835.56 2106.93 1833.49 2105.04 1831.67 2102.64C1829.84 2100.24 1828.4 2097.65 1827.35 2094.86L1826.41 2096.01L1824.18 2098.68L1824.18 2112.43L1815.18 2112.43L1815.18 2041.01L1815.25 2041.01L1815.25 2040.14L1842.83 2040.14L1843.12 2040.14C1843.45 2040.14 1843.67 2040.17 1843.76 2040.21L1843.76 2040.14L1844.84 2040.14C1845.9 2040.14 1846.99 2040.21 1848.12 2040.36C1849.25 2040.5 1850.29 2041.05 1851.25 2042.01C1851.78 2042.54 1852.19 2043.12 1852.48 2043.74C1852.76 2044.37 1852.97 2045.09 1853.09 2045.9C1853.21 2046.72 1853.27 2047.65 1853.27 2048.71C1853.27 2049.77 1853.27 2051.01 1853.27 2052.45L1853.27 2056.05C1853.27 2057.78 1853.06 2059.37 1852.66 2060.81C1852.25 2062.25 1851.58 2063.75 1850.64 2065.31C1849.7 2066.87 1848.49 2068.61 1847 2070.53C1845.52 2072.45 1843.69 2074.73 1841.53 2077.37L1838.72 2080.82C1837.86 2081.88 1837.1 2082.81 1836.46 2083.63C1835.81 2084.45 1835.22 2085.17 1834.69 2085.79C1834.64 2087.13 1834.81 2088.54 1835.2 2090C1835.58 2091.47 1836.13 2092.88 1836.85 2094.25C1837.57 2095.62 1838.42 2096.87 1839.41 2097.99C1840.39 2099.12 1841.46 2100.02 1842.61 2100.69ZM1824.18 2084.49C1824.18 2084.45 1824.2 2084.4 1824.25 2084.35C1824.25 2084.35 1824.32 2084.27 1824.47 2084.1C1824.61 2083.93 1824.94 2083.55 1825.44 2082.95C1825.94 2082.35 1826.7 2081.43 1827.71 2080.21C1828.72 2078.99 1830.08 2077.29 1831.81 2075.13L1834.62 2071.68C1836.64 2069.18 1838.28 2067.14 1839.55 2065.56C1840.82 2063.97 1841.81 2062.64 1842.5 2061.56C1843.2 2060.48 1843.68 2059.53 1843.94 2058.72C1844.21 2057.9 1844.34 2057.01 1844.34 2056.05L1844.34 2052.38L1844.34 2049.14L1843.76 2049.14L1839.3 2049.14L1838.22 2049.14L1824.18 2049.14L1824.18 2084.49Z" fill="#000000"/>
<path d="M2018.45 2087.45C2019.17 2089.37 2019.72 2091.38 2020.11 2093.49C2020.49 2095.61 2020.78 2097.73 2020.97 2099.87C2021.16 2102 2021.27 2104.11 2021.3 2106.2C2021.32 2108.29 2021.33 2110.27 2021.33 2112.14L2012.76 2112.14C2012.76 2110.41 2012.75 2108.61 2012.73 2106.74C2012.7 2104.87 2012.62 2103.01 2012.48 2101.16C2012.33 2099.31 2012.1 2097.53 2011.79 2095.8C2011.48 2094.07 2011.04 2092.44 2010.46 2090.9C2009.26 2087.73 2007.72 2084.73 2005.85 2081.9C2003.98 2079.07 2001.94 2076.21 1999.73 2073.33C1998.24 2075.35 1996.9 2077.31 1995.7 2079.2C1994.5 2081.1 1993.49 2083.08 1992.68 2085.14C1991.67 2087.78 1991.08 2090.6 1990.91 2093.6C1990.74 2096.6 1990.66 2099.61 1990.66 2102.64L1990.66 2112.14L1982.02 2112.14L1982.02 2040.14L1990.66 2040.14L1990.66 2071.17C1991.57 2069.88 1992.52 2068.59 1993.5 2067.32C1994.49 2066.05 1995.46 2064.79 1996.42 2063.54C1998.29 2061.19 2000.07 2058.91 2001.75 2056.7C2003.43 2054.49 2004.8 2052.17 2005.85 2049.72C2006.67 2047.89 2007.23 2046.26 2007.54 2044.82C2007.86 2043.38 2008.01 2041.82 2008.01 2040.14L2016.65 2040.14C2016.65 2042.45 2016.44 2044.59 2016 2046.59C2015.57 2048.58 2014.83 2050.77 2013.77 2053.17L2013.7 2053.25C2012.64 2055.6 2011.38 2057.83 2009.92 2059.94C2008.46 2062.05 2006.93 2064.14 2005.35 2066.21C2007.89 2069.47 2010.34 2072.82 2012.69 2076.25C2015.04 2079.68 2016.96 2083.41 2018.45 2087.45Z" fill="#000000"/>
<path d="M2168.3 2068.15C2169.79 2069.16 2171.36 2070.3 2173.02 2071.57C2174.67 2072.84 2176.21 2074.29 2177.62 2075.93C2179.04 2077.56 2180.2 2079.43 2181.12 2081.54C2182.03 2083.65 2182.48 2086.03 2182.48 2088.67C2182.48 2090.11 2182.34 2091.65 2182.05 2093.28C2181.76 2094.91 2181.3 2096.53 2180.65 2098.14C2180 2099.75 2179.16 2101.31 2178.13 2102.82C2177.1 2104.33 2175.84 2105.69 2174.35 2106.89C2171.85 2108.9 2169.1 2110.28 2166.1 2111.03C2163.1 2111.77 2160.02 2112.14 2156.85 2112.14C2155.12 2112.14 2153.42 2112.05 2151.74 2111.85C2150.06 2111.66 2148.45 2111.42 2146.92 2111.13L2146.92 2102.42L2146.99 2102.13C2148.38 2102.42 2150.02 2102.69 2151.92 2102.93C2153.82 2103.17 2155.77 2103.26 2157.79 2103.21C2159.8 2103.17 2161.77 2102.9 2163.69 2102.42C2165.61 2101.94 2167.29 2101.13 2168.73 2099.97L2168.8 2099.9C2169.62 2099.28 2170.33 2098.51 2170.93 2097.6C2171.53 2096.69 2172.03 2095.73 2172.44 2094.72C2172.85 2093.71 2173.15 2092.69 2173.34 2091.66C2173.53 2090.63 2173.63 2089.63 2173.63 2088.67C2173.63 2087.23 2173.38 2085.93 2172.87 2084.78C2172.37 2083.63 2171.67 2082.55 2170.78 2081.54C2169.9 2080.53 2168.82 2079.54 2167.54 2078.55C2166.27 2077.57 2164.84 2076.55 2163.26 2075.49C2162.49 2074.97 2161.8 2074.47 2161.17 2074.02C2160.55 2073.56 2159.9 2073.07 2159.23 2072.54C2156.2 2070.24 2153.89 2067.72 2152.28 2064.98C2150.67 2062.25 2149.82 2059.44 2149.72 2056.56C2149.58 2051.9 2151.38 2047.89 2155.12 2044.53C2156.61 2043.19 2158.24 2042.16 2160.02 2041.44C2161.8 2040.72 2163.57 2040.3 2165.35 2040.18C2167.12 2040.06 2168.84 2040.26 2170.5 2040.79C2172.15 2041.32 2173.6 2042.16 2174.85 2043.31L2168.8 2049.79C2168.47 2049.5 2168.01 2049.3 2167.44 2049.18C2166.86 2049.06 2166.21 2049.03 2165.49 2049.11C2164.77 2049.18 2164.03 2049.38 2163.26 2049.72C2162.49 2050.05 2161.75 2050.53 2161.03 2051.16C2159.4 2052.6 2158.6 2054.28 2158.65 2056.2C2158.7 2057.73 2159.25 2059.31 2160.31 2060.91C2161.36 2062.52 2162.83 2064.07 2164.7 2065.56C2165.23 2065.94 2165.79 2066.35 2166.39 2066.78C2166.99 2067.21 2167.63 2067.67 2168.3 2068.15Z" fill="#000000"/>
</g>
</g>
</svg>
