<?xml version="1.0" encoding="UTF-8" standalone="no"?>
<!-- Created with Inkscape (http://www.inkscape.org/) -->

<svg
   width="211.83174"
   height="224.97983"
   viewBox="0 0 211.83174 224.97983"
   version="1.1"
   id="svg1863"
   inkscape:version="1.2 (dc2aedaf03, 2022-05-15)"
   sodipodi:docname="eben.svg"
   inkscape:export-filename="inkscape_map.png"
   inkscape:export-xdpi="96"
   inkscape:export-ydpi="96"
   xml:space="preserve"
   xmlns:inkscape="http://www.inkscape.org/namespaces/inkscape"
   xmlns:sodipodi="http://sodipodi.sourceforge.net/DTD/sodipodi-0.dtd"
   xmlns="http://www.w3.org/2000/svg"
   xmlns:svg="http://www.w3.org/2000/svg"><sodipodi:namedview
     id="namedview1865"
     pagecolor="#6c6c6c"
     bordercolor="#000000"
     borderopacity="0.25"
     inkscape:showpageshadow="2"
     inkscape:pageopacity="0"
     inkscape:pagecheckerboard="false"
     inkscape:deskcolor="#272727"
     inkscape:document-units="px"
     showgrid="true"
     inkscape:zoom="1.5814815"
     inkscape:cx="101.48712"
     inkscape:cy="73.981263"
     inkscape:window-width="1920"
     inkscape:window-height="1057"
     inkscape:window-x="1912"
     inkscape:window-y="-8"
     inkscape:window-maximized="1"
     inkscape:current-layer="svg1863"
     showguides="true"><inkscape:grid
       type="xygrid"
       id="grid4396"
       originx="707.39239"
       originy="379.02839" /></sodipodi:namedview><defs
     id="defs1860" /><path
     style="fill:#ffffff;fill-opacity:1;stroke:#000000;stroke-width:9.375;stroke-dasharray:none;stroke-opacity:1"
     d="m 496.46545,784.12096 c -1.11901,-0.49341 -8.38184,-1.62469 -16.13963,-2.51395 -7.7578,-0.88926 -15.62048,-2.25001 -17.47264,-3.02389 -1.85215,-0.77388 -6.28932,-1.93371 -9.86037,-2.57741 -3.57104,-0.6437 -7.84281,-1.99553 -9.49281,-3.00407 -1.65,-1.00854 -4.8,-2.15734 -7,-2.55288 -2.2,-0.39554 -5.66957,-1.55832 -7.71016,-2.58396 -2.04059,-1.02564 -4.34019,-1.8648 -5.11022,-1.8648 -1.43289,0 -17.42741,-7.95071 -28.17962,-14.0078 -11.09822,-6.25201 -36.93971,-23.65926 -44,-29.63912 -22.81317,-19.3221 -39.15783,-35.22394 -54.46633,-52.99071 -8.86434,-10.28779 -13.09078,-15.52292 -17.19649,-21.30065 -2.56456,-3.60895 -7.51456,-10.55637 -11,-15.43872 -8.40223,-11.76969 -15.03497,-22.27465 -24.38621,-38.623 -7.94758,-13.89438 -22.44688,-41.86866 -22.4495,-43.31301 -0.001,-0.7768 -3.35375,-8.31751 -8.57432,-19.2869 C 212.09222,528.59513 211,525.60232 211,524.74938 c 0,-0.85293 -1.1206,-3.95797 -2.49023,-6.90008 -1.36963,-2.94212 -2.49463,-6.25596 -2.5,-7.36411 -0.005,-1.10814 -0.94514,-3.76001 -2.08837,-5.89302 -1.14323,-2.13302 -2.50765,-6.5424 -3.03205,-9.79862 -0.5244,-3.25622 -1.83903,-7.5727 -2.9214,-9.59217 C 196.88558,483.18191 196,480.08368 196,478.31643 c 0,-1.76725 -1.10271,-6.72392 -2.45047,-11.01481 C 192.20177,463.01073 190.6351,455.9 190.06804,451.5 c -0.56707,-4.4 -1.72513,-10.475 -2.57348,-13.5 -1.69559,-6.04604 -3.97871,-36.4773 -3.97635,-53 0.003,-20.03333 2.14187,-46.0491 4.31655,-52.5 1.11247,-3.3 2.32411,-8.475 2.69253,-11.5 0.36843,-3.025 1.49677,-7.40474 2.50743,-9.73275 1.01066,-2.32802 2.15082,-6.37802 2.53368,-9 0.38287,-2.62199 1.76161,-6.78867 3.06386,-9.25929 1.30226,-2.47063 2.36774,-5.49816 2.36774,-6.72785 0,-3.85657 17.52582,-40.04815 24.39141,-50.36932 13.67436,-20.55693 16.60209,-24.78874 17.55897,-25.38012 0.58301,-0.36032 4.49012,-5.01462 8.68247,-10.3429 9.9293,-12.61966 24.59785,-27.52912 35.86715,-36.45624 4.95,-3.92121 11.025,-8.97435 13.5,-11.22922 6.5796,-5.99438 26.29993,-19.00188 43.5,-28.69253 7.74904,-4.36587 16.72533,-8.81037 17.80501,-8.81594 0.65724,-0.003 2.54499,-0.73409 4.19499,-1.62377 1.65,-0.88969 5.5875,-2.68692 8.75,-3.99384 3.1625,-1.30693 8.5625,-3.53936 12,-4.96097 11.35807,-4.697227 26.1184,-9.505784 35.25,-11.483597 4.95,-1.072121 10.6145,-2.587487 12.58777,-3.36748 1.97328,-0.779992 7.8845,-1.897281 13.13605,-2.482864 5.25155,-0.585583 13.53705,-2.051954 18.41223,-3.258604 8.3886,-2.076253 10.98225,-2.191663 48.36395,-2.152061 36.76006,0.03894 40.10594,0.189008 48.23542,2.163381 4.80448,1.166844 12.90448,2.606139 18,3.198435 5.09552,0.592295 11.96458,1.943592 15.26458,3.002881 3.3,1.05929 9.6,2.792015 14,3.850501 15.78357,3.796976 44.89599,14.843618 59.5,22.577148 1.375,0.72813 6.64109,3.41023 11.70241,5.96023 5.06133,2.55 12.26133,6.64705 16,9.10455 3.73868,2.45751 7.13386,4.4691 7.54486,4.47021 0.9353,0.003 17.2268,12.01849 29.59649,21.82921 18.71276,14.84157 47.60192,45.26917 56.71456,59.73479 1.01794,1.6159 3.50602,4.96301 5.52905,7.43801 2.02304,2.475 4.43018,6.075 5.34919,8 0.91902,1.925 2.88426,5.59327 4.36719,8.15171 6.48034,11.18023 11.19625,19.8088 11.19625,20.48546 0,0.40226 0.86045,2.56096 1.91211,4.79711 5.31525,11.30181 13.63002,33.65965 15.4581,41.56572 0.82663,3.575 2.2065,8.17305 3.06638,10.21788 0.85987,2.04484 1.56341,5.04631 1.56341,6.66995 0,1.62364 1.23551,7.82559 2.74557,13.78212 2.739,10.80413 2.74557,10.91502 2.74684,46.33005 0.001,33.19912 -0.14148,36.08332 -2.20115,44.5 -1.21134,4.95 -2.68936,13.05 -3.2845,18 -1.10715,9.20855 -4.49801,23.30741 -8.17721,34 -1.13549,3.3 -2.62875,8.7 -3.31836,12 -0.6896,3.3 -2.21173,8.37916 -3.38251,11.28702 -1.17077,2.90786 -2.12868,6.10334 -2.12868,7.10106 0,0.99772 -1.125,3.92988 -2.5,6.5159 -1.375,2.58601 -2.5,5.28601 -2.5,6 0,0.71398 -1.125,3.41398 -2.5,6 -1.375,2.58601 -2.50169,5.24054 -2.50376,5.89893 -0.002,0.6584 -1.35038,3.89709 -2.99624,7.19709 -1.64586,3.3 -2.99417,6.48702 -2.99624,7.08226 -0.007,2.08663 -19.71206,40.03803 -26.9563,51.91774 -15.85854,26.00615 -23.54975,37.21477 -35.98556,52.44278 -14.68752,17.98527 -37.13067,42.13706 -47.0619,50.64481 -1.925,1.64908 -7.52402,6.57899 -12.44228,10.95537 -4.91825,4.37637 -11.53914,9.75704 -14.71309,11.95704 -3.17395,2.2 -10.39993,7.20327 -16.05772,11.11838 -9.84619,6.81341 -31.91134,19.33417 -36.81515,20.89058 -1.28381,0.40747 -3.71515,1.58296 -5.40298,2.61221 -1.68783,1.02924 -3.74736,1.87304 -4.57674,1.87509 -0.82937,0.002 -3.52937,1.06724 -6,2.36707 -2.47062,1.29983 -6.85593,2.92005 -9.74512,3.60048 -2.8892,0.68043 -5.47531,1.59672 -5.74692,2.03619 -0.27161,0.43947 -2.85772,1.33872 -5.74692,1.99833 -2.88919,0.65961 -8.76381,2.27982 -13.0547,3.60048 -4.89004,1.50506 -10.30147,2.40702 -14.5,2.41681 -3.68411,0.009 -9.39838,0.6986 -12.69838,1.53334 -6.95459,1.7592 -39.88218,2.96199 -43.03455,1.572 z M 539,756.38494 c 3.575,-0.8338 10.45656,-1.93481 15.29235,-2.44669 4.83579,-0.51188 10.15661,-1.63618 11.82405,-2.49844 1.66743,-0.86227 6.03588,-2.39065 9.70765,-3.39641 13.58638,-3.72155 33.0488,-12.26751 44.94537,-19.73554 2.89818,-1.81932 5.59818,-3.3322 6,-3.36195 0.40182,-0.0298 3.20558,-1.82391 6.23058,-3.98702 3.025,-2.1631 7.00328,-4.63684 8.84061,-5.49718 4.75735,-2.22767 31.61811,-23.6211 38.15939,-30.39231 3.025,-3.13133 12.1054,-12.52987 20.17868,-20.88566 8.07327,-8.35578 17.32436,-18.67789 20.55798,-22.93803 8.69361,-11.45342 15.98103,-21.31306 18.51888,-25.05544 1.23445,-1.82036 2.91946,-4.02749 3.74446,-4.90475 0.825,-0.87726 2.4,-3.30376 3.5,-5.39223 2.22301,-4.22062 15.33886,-26.15734 19.36778,-32.39329 C 769.04953,568.57529 780,547.13062 780,545.8244 c 0,-0.52273 1.28125,-3.73457 2.84722,-7.13741 1.56597,-3.40284 3.75829,-8.43699 4.87182,-11.18699 1.11354,-2.75 3.03803,-7.475 4.27666,-10.5 1.23863,-3.025 2.77588,-7.3 3.41611,-9.5 0.64023,-2.2 2.09557,-5.8 3.23408,-8 1.13852,-2.2 2.3514,-6.14526 2.6953,-8.76723 0.3439,-2.62198 1.31033,-6.09199 2.14761,-7.71112 0.83729,-1.61914 2.16772,-5.99888 2.95651,-9.73277 0.78879,-3.73388 2.11276,-8.40563 2.94216,-10.38167 0.8294,-1.97603 2.20252,-7.82603 3.05139,-13 0.84887,-5.17396 2.26269,-11.65721 3.14182,-14.40721 1.00815,-3.15359 2.09688,-13.12421 2.94824,-27 1.85844,-30.28948 0.64348,-51.91104 -4.15184,-73.88622 -1.90663,-8.73743 -4.07011,-17.06243 -4.80771,-18.5 -0.73761,-1.43758 -1.8781,-5.31378 -2.53441,-8.61378 -0.65632,-3.3 -2.28268,-8.12922 -3.61413,-10.73159 C 802.08937,294.16603 801,291.46245 801,290.76045 c 0,-0.702 -1.06071,-3.29778 -2.35714,-5.76841 -1.29643,-2.47062 -2.67635,-5.81459 -3.06649,-7.43105 -0.39014,-1.61645 -1.52039,-4.09145 -2.51166,-5.5 -0.99128,-1.40854 -2.13138,-3.68599 -2.53356,-5.06099 -0.40218,-1.375 -1.73576,-4.075 -2.96351,-6 -1.22775,-1.925 -4.80606,-7.775 -7.95179,-13 -7.95627,-13.21519 -11.30481,-17.80447 -22.69324,-31.10183 -19.27086,-22.50105 -40.60062,-41.50026 -62.42261,-55.60218 -3.85,-2.48796 -7.92968,-5.373 -9.06596,-6.4112 -3.14891,-2.8771 -42.73502,-22.53107 -46.98807,-23.32895 -2.0561,-0.38573 -4.6987,-1.33056 -5.87245,-2.09962 -2.59877,-1.70278 -14.89708,-6.04401 -23.07352,-8.14481 -3.3,-0.84788 -9.15,-2.56684 -13,-3.8199 -3.85,-1.25307 -9.25,-2.59146 -12,-2.97422 -2.75,-0.38276 -9.725,-1.85288 -15.5,-3.26694 -10.44578,-2.55774 -10.72463,-2.5712 -54,-2.60498 -43.46367,-0.0339 -43.50919,-0.0318 -54.5,2.57504 -6.05,1.43495 -13.475,2.92279 -16.5,3.30632 -3.025,0.38353 -8.05368,1.72664 -11.17484,2.9847 -3.12116,1.25806 -7.62116,2.6126 -10,3.0101 -2.37884,0.3975 -6.57516,1.61394 -9.32516,2.7032 -2.75,1.08926 -7.25,2.58629 -10,3.32673 -2.75,0.74044 -6.78265,2.26927 -8.96144,3.3974 -2.17879,1.12813 -4.61426,2.05114 -5.41214,2.05114 -0.79789,0 -3.29024,1.07045 -5.53856,2.37879 -2.24832,1.30833 -5.51927,2.68726 -7.26876,3.06428 -1.7495,0.37702 -3.69799,1.30854 -4.32999,2.07006 -0.632,0.76151 -2.69048,1.89327 -4.5744,2.51502 -1.88392,0.62175 -6.91042,3.18071 -11.17001,5.68657 -4.25958,2.50587 -10.88014,6.406 -14.71235,8.66694 -3.83221,2.26095 -9.85193,6.47501 -13.37716,9.36458 -3.52522,2.88957 -6.77892,5.25376 -7.23043,5.25376 -0.88604,0 -12.46063,9.20952 -14.92605,11.87617 -0.82571,0.89311 -4.61369,4.32383 -8.41773,7.62383 -8.3076,7.20684 -26.52086,27.01902 -32.08098,34.89733 -2.2,3.11725 -6.3625,8.63531 -9.25,12.26235 -2.8875,3.62705 -5.25,7.15172 -5.25,7.83262 0,0.68089 -0.8867,2.36524 -1.97044,3.74299 -3.10089,3.94214 -14.9249,25.48678 -15.65457,28.52434 -0.36206,1.5072 -1.71954,4.57991 -3.01664,6.82823 -1.29709,2.24832 -2.35835,4.95498 -2.35835,6.01481 0,1.05982 -0.8961,3.59887 -1.99132,5.64233 -1.09523,2.04346 -2.45631,5.86179 -3.02463,8.48519 -0.56831,2.6234 -1.9121,6.85473 -2.9862,9.40296 -1.0741,2.54823 -2.25186,7.27323 -2.61724,10.5 -0.36538,3.22677 -1.5233,8.07888 -2.57316,10.78248 -2.76224,7.1133 -4.18485,34.25747 -3.4417,65.66917 0.53248,22.50699 0.89475,26.71744 3.01147,35 1.32339,5.17836 2.72387,12.1152 3.11216,15.4152 0.3883,3.3 1.78704,9.31994 3.10831,13.37764 1.32127,4.05771 2.40231,8.6613 2.40231,10.2302 0,1.56891 1.06556,5.67397 2.36792,9.12236 3.78219,10.01454 5.70882,15.81232 7.58888,22.83705 0.96669,3.61199 2.45002,7.66199 3.29628,9 0.84627,1.33801 1.83759,3.55775 2.20294,4.93275 0.36535,1.375 1.64971,4.69246 2.85413,7.37214 3.41255,7.59249 23.05995,46.66297 25.7107,51.12786 1.30611,2.2 3.52324,6.27751 4.92695,9.06114 1.40371,2.78363 4.24651,7.50863 6.31733,10.5 2.07081,2.99137 6.76,9.93886 10.42041,15.43886 6.59451,9.90866 9.97735,14.45961 20.81315,28 12.28376,15.34975 33.80383,37.86919 45.90643,48.03828 3.24782,2.72895 7.76395,6.6177 10.03584,8.64168 4.07031,3.62613 8.30431,6.71325 26.05904,19.00036 12.12082,8.38817 41.82832,23.87861 48.51238,25.29591 1.91819,0.40673 4.83762,1.55198 6.48762,2.545 1.65,0.99301 5.5763,2.27712 8.72511,2.85357 3.1488,0.57645 7.06646,1.74174 8.7059,2.58952 1.63944,0.84779 7.22324,1.98135 12.40844,2.51903 5.1852,0.53768 10.71754,1.47179 12.29409,2.0758 7.99704,3.06386 37.80018,3.25663 50.36646,0.32579 z M 396,593.49678 c -3.575,-0.72341 -7.625,-1.75021 -9,-2.28178 -1.375,-0.53157 -4.975,-1.30088 -8,-1.70958 -3.025,-0.40869 -7.075,-1.53469 -9,-2.50221 -1.925,-0.96753 -4.99863,-2.08274 -6.83028,-2.47826 -4.13901,-0.89376 -21.67826,-9.93883 -25.49645,-13.14863 C 336.11858,570.06934 334.48843,569 334.05073,569 c -1.10506,0 -12.45486,-9.15411 -18.88761,-15.23368 -6.02399,-5.69327 -18.25615,-20.85386 -21.50925,-26.65868 -11.63053,-20.75342 -12.73026,-23.31023 -19.18653,-44.60764 -4.49596,-14.83091 -6.0048,-74.49124 -2.11912,-83.79099 0.84229,-2.01587 3.02101,-4.59609 4.8416,-5.73383 3.21565,-2.00953 4.28114,-2.05636 37.31018,-1.63969 36.74775,0.46357 44.53296,1.26409 59.5,6.11809 9.29421,3.01423 27.68687,11.62288 32.59439,15.25575 1.70192,1.25987 3.43696,2.29067 3.85564,2.29067 0.41869,0 1.99476,1.0125 3.50238,2.25 1.50761,1.2375 4.70591,3.825 7.10733,5.75 15.70462,12.58897 30.21428,30.21956 39.82473,48.39077 1.71354,3.23992 3.11553,6.47861 3.11553,7.19708 0,0.71848 1.125,3.42216 2.5,6.00817 1.375,2.58602 2.5,5.75501 2.5,7.04219 0,1.28719 0.93912,4.70766 2.08693,7.60106 2.57768,6.49783 4.84536,29.92794 5.58524,57.70787 0.62198,23.35311 -0.57704,30.00613 -6.31585,35.04487 L 466.93041,595 434.7152,594.90603 C 412.39647,594.84093 400.50321,594.40801 396,593.49678 Z m 164.18982,-0.52241 c -5.83276,-3.55615 -6.5902,-6.88882 -6.99897,-30.7949 -0.41998,-24.56223 1.73081,-52.02944 4.82973,-61.67947 1.05973,-3.3 2.56466,-8.025 3.34427,-10.5 9.78568,-31.06603 37.81884,-64.7264 66.92629,-80.3607 2.31487,-1.24337 5.10886,-2.75581 6.20886,-3.36098 C 655.50387,394.72299 676.13167,391 719.15185,391 c 25.71058,0 28.704,0.17411 31.83157,1.85144 6.88484,3.69239 7.35775,5.17422 7.78523,24.39482 0.59505,26.75518 -1.09996,55.9302 -3.6695,63.16029 -1.15453,3.2486 -2.09915,7.01733 -2.09915,8.37495 0,1.35763 -1.1938,5.22468 -2.65289,8.59345 -7.77833,17.95875 -9.89506,22.4771 -12.23891,26.12505 -3.20996,4.99595 -17.20506,22.70105 -22.01326,27.84883 C 709.50206,558.40732 689.74073,574 687.38806,574 c -0.61509,0 -2.27475,0.90963 -3.68814,2.0214 -1.41339,1.11178 -4.48924,2.69863 -6.83521,3.52633 -2.34598,0.82771 -4.96276,2.09978 -5.81506,2.82682 -2.28324,1.94767 -11.94179,5.16591 -24.54965,8.17998 -17.58677,4.20433 -19.54094,4.37148 -51.5,4.40498 -29.86611,0.0313 -31.6717,-0.0717 -34.81018,-1.98514 z"
     id="path8651"
     transform="matrix(0.31999999,0,0,0.31999999,-58.725825,-26.132807)"
     sodipodi:nodetypes="sssssssssssssscssscssssssscsssssssssssscssssssssssssssscssssssssssscssssssssssscsssssssssssssscssssssssssssssssssssssssssssssssssssssssssssssssssssssssssssssssssssssssssssssssssssssssssssssssssssssssssssssssssssssssssssssssssscsssssssssssssssssssssss"
     inkscape:label="EbenheadPath" /></svg>
