<?xml version="1.0" encoding="UTF-8" standalone="no"?>
<!-- Created with Inkscape (http://www.inkscape.org/) -->

<svg
   width="226.15573"
   height="156.09988"
   viewBox="0 0 226.15573 156.09988"
   version="1.1"
   id="svg1863"
   inkscape:version="1.2 (dc2aedaf03, 2022-05-15)"
   sodipodi:docname="tapehead.svg"
   inkscape:export-filename="inkscape_map.png"
   inkscape:export-xdpi="96"
   inkscape:export-ydpi="96"
   xml:space="preserve"
   xmlns:inkscape="http://www.inkscape.org/namespaces/inkscape"
   xmlns:sodipodi="http://sodipodi.sourceforge.net/DTD/sodipodi-0.dtd"
   xmlns="http://www.w3.org/2000/svg"
   xmlns:svg="http://www.w3.org/2000/svg"><sodipodi:namedview
     id="namedview1865"
     pagecolor="#6c6c6c"
     bordercolor="#000000"
     borderopacity="0.25"
     inkscape:showpageshadow="2"
     inkscape:pageopacity="0"
     inkscape:pagecheckerboard="false"
     inkscape:deskcolor="#272727"
     inkscape:document-units="px"
     showgrid="true"
     inkscape:zoom="3.162963"
     inkscape:cx="160.45082"
     inkscape:cy="84.730678"
     inkscape:window-width="1920"
     inkscape:window-height="1057"
     inkscape:window-x="1912"
     inkscape:window-y="-8"
     inkscape:window-maximized="1"
     inkscape:current-layer="svg1863"
     showguides="true"><inkscape:grid
       type="xygrid"
       id="grid4396"
       originx="750.30672"
       originy="336.19806" /></sodipodi:namedview><defs
     id="defs1860" /><path
     style="fill:#ffffff;fill-opacity:1;stroke:#000000;stroke-width:9.375;stroke-dasharray:none;stroke-opacity:1"
     d="m 784,685.56542 c 7.975,-0.78241 15.83322,-1.92996 17.46272,-2.55012 1.6295,-0.62015 5.24139,-3.28262 8.02642,-5.91658 2.78503,-2.63397 6.09842,-5.34281 7.36309,-6.01964 1.33369,-0.71377 3.55329,-4.03366 5.28498,-7.90484 1.64206,-3.67083 4.64545,-9.09148 6.67418,-12.04589 L 832.5,645.7567 V 448.54993 251.34316 l -3.24454,-4.92158 c -1.7845,-2.70687 -4.79906,-8.15868 -6.69903,-12.11513 -2.12051,-4.41571 -4.5361,-7.87112 -6.25546,-8.94821 -1.54053,-0.96507 -5.11446,-3.8946 -7.94206,-6.51007 -2.8276,-2.61547 -6.2026,-5.00667 -7.5,-5.31379 -1.2974,-0.30711 -5.28391,-1.04423 -8.85891,-1.63803 -3.85119,-0.63968 -39.30449,-1.50094 -87,-2.11348 -44.275,-0.56861 -87.475,-0.88918 -96,-0.71238 -8.525,0.1768 -20.675,0.29784 -27,0.26899 -6.325,-0.0289 -20.275,-0.0692 -31,-0.0897 -10.725,-0.0205 -25.35,-0.0395 -32.5,-0.0422 -7.15,-0.003 -22.9,0.001 -35,0.009 -12.1,0.007 -27.625,0.01 -34.5,0.005 -6.875,-0.005 -21.275,0.009 -32,0.0312 -10.725,0.0219 -25.125,0.0838 -32,0.13762 -6.875,0.0538 -19.025,-0.0604 -27,-0.25393 -7.975,-0.19349 -50.275,0.0915 -94,0.63334 -50.60404,0.62707 -82.39464,1.41305 -87.46387,2.16244 -4.38012,0.64751 -9.45486,1.88482 -11.27719,2.74958 -1.82234,0.86475 -4.23144,2.73946 -5.35358,4.16602 -1.12213,1.42656 -3.83725,3.78342 -6.03361,5.23746 -2.19635,1.45405 -4.57208,3.49228 -5.2794,4.52941 -0.70732,1.03713 -2.01297,4.05352 -2.90146,6.70309 -0.88848,2.64957 -3.40676,7.49995 -5.59618,10.77863 -2.3442,3.51047 -4.22782,7.69669 -4.58172,10.18259 -0.33054,2.32176 -0.46868,90.4174 -0.30698,195.7681 l 0.29399,191.54671 4.29629,6.59406 c 2.36297,3.62673 5.16027,9.00571 6.21624,11.95328 1.2735,3.5548 3.15334,6.36932 5.5832,8.35923 2.0148,1.65 5.76414,4.8891 8.33187,7.19799 2.56773,2.30889 5.90808,4.66924 7.42299,5.2452 1.51491,0.57597 6.66827,1.57933 11.4519,2.2297 5.5636,0.7564 35.0011,1.43113 81.69751,1.87258 40.15,0.37956 171.1,0.5219 291,0.31631 178.9129,-0.30678 220.59983,-0.62887 232.5,-1.79636 z M 186.79699,654.9968 c -2.58665,-0.44966 -5.63822,-1.47261 -6.78126,-2.27323 -1.14304,-0.80061 -4.54027,-4.74647 -7.5494,-8.76858 -3.00913,-4.0221 -5.91755,-8.91987 -6.46316,-10.88395 -0.63921,-2.30103 -0.99202,-67.94226 -0.99202,-184.57104 0,-121.25277 0.3404,-182.22565 1.03122,-184.71303 0.56718,-2.04217 3.67793,-7.28265 6.91279,-11.64551 4.5203,-6.09652 6.7684,-8.24597 9.71321,-9.28697 C 185.7516,241.76456 200.17245,241.5 256.5,241.5 c 65.03561,0 70.22929,0.12531 73.23307,1.76693 1.77819,0.97181 3.86156,2.99681 4.62971,4.5 0.93416,1.82804 1.53746,7.55898 1.8219,17.30676 0.35578,12.19239 0.74864,40.13353 2.40431,43 1.08848,1.88447 3.53874,4.21311 5.44503,5.17476 2.05126,1.03477 5.72216,1.74908 8.99347,1.75 3.37835,9.5e-4 6.38862,-0.60161 7.74227,-1.54973 1.21812,-0.85321 2.76898,-2.54071 3.44635,-3.75 0.75371,-1.3456 1.453,-33.45027 1.80224,-43.31062 0.455,-12.84628 0.91824,-16.64239 2.28557,-18.72919 0.9432,-1.43951 3.17318,-3.37436 4.9555,-4.29968 2.13725,-1.10958 5.79412,-1.70867 10.74058,-1.75959 5.28662,-0.0544 8.42255,0.4246 10.62605,1.62316 1.96168,1.06702 3.73093,3.21211 4.75,5.75902 1.17521,2.93714 1.62438,7.29989 1.6255,15.78842 10e-4,9.19089 0.38,37.47194 1.75,40.15866 0.96165,1.88589 3.44286,4.78268 5.5138,6.4373 3.00434,2.40037 4.98211,3.09641 9.78561,3.44387 4.87944,0.35294 6.41865,0.0806 8.12266,-1.4373 1.15633,-1.03003 2.80298,-3.44777 3.65922,-5.37277 1.04129,-2.34103 1.75354,-33.13589 2.15091,-42.5 0.4672,-11.00932 0.97214,-14.56905 2.36374,-16.66385 0.9733,-1.46511 3.43078,-3.47133 5.46107,-4.45825 2.12574,-1.03332 6.66044,-1.94023 10.69144,-2.13823 5.67622,-0.2788 7.60434,0.0352 10.19567,1.66051 1.75761,1.10239 4.00761,3.24273 5,4.75632 1.42329,2.17081 1.90992,5.50701 2.30433,15.79774 0.47754,12.45987 0.63473,38.24376 3.5,42.45447 1.65,2.42479 4.27076,5.34979 5.82391,6.5 1.92439,1.42513 4.21408,2.06121 7.18809,1.99687 2.4003,-0.0519 5.43019,-0.79291 6.7331,-1.6466 1.3029,-0.8537 4.08891,-4.04954 6.19113,-7.10187 l 3.82222,-5.54969 0.18956,-36.80371 c 0.0462,-8.97379 0.60442,-12.59378 1.91932,-15.09793 0.95137,-1.81182 3.17042,-4.17264 4.93122,-5.24626 2.2495,-1.3716 4.98555,-1.94662 9.20145,-1.93382 3.66858,0.0111 7.55428,0.73195 10,1.85503 2.2,1.01025 4.9,2.84742 6,4.08261 1.72205,1.9337 2.08859,4.21164 2.63746,16.39123 0.3506,7.77999 1.1536,40.81246 1.78444,42.84994 0.63084,2.03749 2.31718,4.62499 3.7474,5.75 1.83989,1.44726 4.07719,2.04549 7.64983,2.04549 3.04594,0 6.72892,-0.81303 9.28231,-2.04911 2.32809,-1.12701 5.04269,-3.26451 6.03245,-4.75 1.43339,-2.15132 1.9305,-30.666 2.44305,-42.27309 0.40531,-9.17846 1.15791,-15.6226 2.03328,-17.41006 0.76438,-1.56083 2.66352,-3.77834 4.22031,-4.92781 2.36985,-1.74979 4.25387,-2.08652 11.57598,-2.06896 6.57778,0.0158 9.39953,0.44953 11.38429,1.75 1.45136,0.95097 3.20539,2.74153 3.89786,3.97903 0.78202,1.39755 1.4829,8.31186 1.84994,18.25 0.43837,11.86966 1.00659,41.78872 2.20116,44.05531 0.88564,1.68043 2.79017,3.59293 4.2323,4.25 1.44212,0.65708 5.09822,1.19469 8.12465,1.19469 3.02644,0 6.82265,-0.68262 8.43602,-1.51693 1.61338,-0.83431 3.71505,-2.97181 4.67039,-4.75 1.34013,-2.49442 1.86054,-31.67393 2.27781,-43.29365 0.43963,-12.24252 0.8808,-15.57945 2.35773,-17.83353 0.9993,-1.52512 3.4694,-3.52285 5.48912,-4.43942 C 643.13968,241.66352 650.1722,241.5 711.5,241.5 c 37.4,0 69.69712,0.3597 71.77138,0.79932 2.07426,0.43963 5.22876,2.07892 7.01,3.64287 1.78124,1.56395 4.9654,5.35076 7.07591,8.41513 2.11051,3.06437 4.23278,7.27508 4.71615,9.35713 0.48759,2.10023 0.88698,84.36623 0.89713,184.78555 0.0129,127.62082 -0.30332,182.17965 -1.07221,185 -0.59977,2.2 -3.47888,7.19064 -6.39803,11.09032 -3.32826,4.44621 -6.74192,7.80247 -9.15393,9 -3.62908,1.80178 -61.59417,2.21199 -61.59417,2.21199 L 252.5,655.65718 c 0,0 -63.11635,-0.21072 -65.70301,-0.66038 z"
     id="path1534"
     transform="matrix(0.31999999,0,0,-0.31999999,-41.744265,221.48607)"
     sodipodi:nodetypes="cssssscccssssssssssccscsssssssssssscssssssssccssssssssssssssssssssssscssssssssssssssssscssssssssssssssssssssssssssssssssssssccs"
     inkscape:label="Shape" /><path
     id="path1738"
     style="fill:#ffffff;fill-opacity:1;stroke:#000000;stroke-width:3;stroke-linejoin:round;stroke-dasharray:none;stroke-opacity:1;paint-order:markers fill stroke"
     d="M 62.226137 91.952612 A 26.827002 26.827002 0 0 1 35.398012 65.126441 A 26.827002 26.827002 0 0 1 62.226137 38.298316 A 26.827002 26.827002 0 0 1 89.052309 65.126441 A 26.827002 26.827002 0 0 1 62.226137 91.952612 z M 62.335512 84.015112 A 18.969555 18.969555 0 0 0 81.304262 65.046362 A 18.969555 18.969555 0 0 0 62.335512 46.075659 A 18.969555 18.969555 0 0 0 43.364809 65.046362 A 18.969555 18.969555 0 0 0 62.335512 84.015112 z "
     transform="matrix(1,0,0,-1,6.9555033,134.60105)"
     inkscape:label="LeftEye" /><circle
     style="fill:#ffffff;fill-opacity:1;stroke:#000000;stroke-width:5.69826;stroke-linejoin:round;stroke-dasharray:none;stroke-opacity:1;paint-order:markers fill stroke"
     id="path1738-5"
     cx="63.49057"
     cy="62.596336"
     r="26.827002"
     transform="matrix(0.52647651,0,0,-0.52647651,125.35938,104.59526)"
     inkscape:label="RightEye" /></svg>
