<?xml version="1.0" encoding="UTF-8" standalone="no"?>
<!-- Created with Inkscape (http://www.inkscape.org/) -->

<svg
   width="242.5553"
   height="242.43465"
   viewBox="0 0 242.5553 242.43465"
   version="1.1"
   id="svg1863"
   inkscape:version="1.2 (dc2aedaf03, 2022-05-15)"
   sodipodi:docname="robohobb.svg"
   inkscape:export-filename="inkscape_map.png"
   inkscape:export-xdpi="96"
   inkscape:export-ydpi="96"
   xml:space="preserve"
   xmlns:inkscape="http://www.inkscape.org/namespaces/inkscape"
   xmlns:sodipodi="http://sodipodi.sourceforge.net/DTD/sodipodi-0.dtd"
   xmlns="http://www.w3.org/2000/svg"
   xmlns:svg="http://www.w3.org/2000/svg"><sodipodi:namedview
     id="namedview1865"
     pagecolor="#6c6c6c"
     bordercolor="#000000"
     borderopacity="0.25"
     inkscape:showpageshadow="2"
     inkscape:pageopacity="0"
     inkscape:pagecheckerboard="false"
     inkscape:deskcolor="#272727"
     inkscape:document-units="px"
     showgrid="true"
     inkscape:zoom="1.1182763"
     inkscape:cx="98.812789"
     inkscape:cy="105.51954"
     inkscape:window-width="1920"
     inkscape:window-height="1057"
     inkscape:window-x="1912"
     inkscape:window-y="-8"
     inkscape:window-maximized="1"
     inkscape:current-layer="svg1863"
     showguides="true"><inkscape:grid
       type="xygrid"
       id="grid4396"
       originx="723.11552"
       originy="387.39236" /></sodipodi:namedview><defs
     id="defs1860" /><path
     style="fill:#ffffff;fill-opacity:1;stroke:#000000;stroke-width:9.375;stroke-dasharray:none;stroke-opacity:1"
     d="M 293,825.57081 C 288.65724,823.92537 274.37007,822 266.50282,822 c -4.91884,0 -6.32354,-0.41212 -8.49468,-2.4922 -1.49401,-1.43136 -4.57723,-2.86135 -7.24329,-3.35942 -2.5531,-0.47697 -6.05416,-2.05548 -7.78015,-3.5078 C 241.25872,811.18826 239.25783,810 238.53828,810 c -0.71954,0 -2.00917,-1.06973 -2.86585,-2.37718 -0.85667,-1.30745 -2.74174,-2.67438 -4.18904,-3.03763 -2.80124,-0.70307 -15.83558,-13.09328 -19.03536,-18.09467 -1.0523,-1.64479 -2.70859,-3.57854 -3.68065,-4.29722 C 207.79532,781.47461 207,780.07399 207,779.0808 c 0,-0.99318 -1.35,-3.50454 -3,-5.5808 -1.65,-2.07626 -3,-4.80361 -3,-6.06078 0,-1.25717 -1.18264,-3.69126 -2.62809,-5.40907 -1.76034,-2.09206 -2.77658,-4.67628 -3.07781,-7.82673 -0.24735,-2.58688 -1.42721,-7.17842 -2.62191,-10.20342 -1.87931,-4.75842 -2.16342,-7.38765 -2.10712,-19.5 0.0526,-11.32244 0.41392,-14.76502 1.88908,-18 1.00321,-2.2 2.15948,-6.56299 2.5695,-9.69552 0.43934,-3.35654 1.61926,-6.80635 2.87315,-8.40042 1.17022,-1.48768 2.41702,-4.51439 2.77067,-6.72602 0.38544,-2.4104 1.78252,-5.21352 3.48777,-6.9979 1.56462,-1.63722 2.84476,-3.41312 2.84476,-3.94644 0,-0.53332 1.2375,-2.46788 2.75,-4.29902 1.5125,-1.83114 4.1,-5.18314 5.75,-7.4489 3.67571,-5.04742 5.15378,-6.52281 11.00574,-10.98578 2.5241,-1.925 5.98465,-4.7375 7.69009,-6.25 1.70544,-1.5125 3.8823,-2.75 4.83747,-2.75 0.95518,0 2.42061,-1.04381 3.25652,-2.31957 1.04155,-1.5896 3.24511,-2.70567 7.00205,-3.54644 3.01521,-0.67477 6.22684,-2.04967 7.13695,-3.05533 1.16225,-1.28428 3.80007,-2.03522 8.86296,-2.52314 4.26775,-0.41129 8.59575,-1.50482 10.60958,-2.68067 2.83649,-1.65619 5.96369,-2.08607 18.83056,-2.58857 14.41467,-0.56294 15.52325,-0.74609 16.85939,-2.78529 1.19527,-1.82422 1.38735,-9.31245 1.16943,-45.59186 L 312.5,530.5 l -2.39697,-0.33881 c -3.50442,-0.49535 -10.99415,1.84527 -12.42038,3.8815 -0.67757,0.96737 -3.24586,2.28105 -5.7073,2.91928 -2.46144,0.63823 -5.61799,1.97622 -7.01456,2.97332 -1.39657,0.99709 -5.89657,2.37403 -10,3.05986 -4.10343,0.68583 -9.12112,1.90548 -11.15042,2.71033 -4.39679,1.74384 -14.34084,1.29124 -23.31037,-1.06097 -3.3,-0.8654 -9.0069,-1.84699 -12.682,-2.1813 -5.02979,-0.45754 -7.29572,-1.17661 -9.16404,-2.9081 -1.36512,-1.26515 -4.09564,-2.60299 -6.06782,-2.97297 -1.97219,-0.36999 -4.69042,-1.77732 -6.04051,-3.12742 -1.3501,-1.3501 -3.0883,-2.45472 -3.86267,-2.45472 -0.77437,0 -3.08432,-1.33221 -5.13321,-2.96047 -2.0489,-1.62825 -4.58577,-3.23358 -5.63751,-3.56738 C 190.86051,524.13834 190,523.365 190,522.75362 c 0,-0.61139 -1.4625,-2.54773 -3.25,-4.30299 -1.7875,-1.75527 -4.6,-5.08276 -6.25,-7.39443 -1.65,-2.31167 -4.18125,-5.52788 -5.62499,-7.14712 -1.44375,-1.61925 -2.90764,-4.71167 -3.2531,-6.87205 -0.36356,-2.27359 -1.48202,-4.52607 -2.65555,-5.34804 -1.36171,-0.95378 -2.32453,-3.24543 -2.93219,-6.97906 -0.49761,-3.05744 -1.72137,-7.05544 -2.71946,-8.88445 -1.67782,-3.07463 -1.85243,-7.78341 -2.31471,-62.42287 -0.39438,-46.61338 -0.77622,-59.42998 -1.80757,-60.67183 -0.71916,-0.86594 -3.17259,-1.88953 -5.45207,-2.27465 -2.58601,-0.4369 -4.8479,-1.59442 -6.01502,-3.07817 C 146.69657,346.07008 145.40315,345 144.85109,345 c -0.55206,0 -3.8944,-2.9773 -7.42742,-6.61621 C 132.49319,333.30553 131,331.08667 131,328.83833 c 0,-1.79119 -0.97128,-3.90052 -2.5,-5.42924 -2.38783,-2.38783 -2.5,-3.03636 -2.5,-14.45454 C 126,299.71097 126.29976,297 127.32186,297 c 0.72702,0 3.08952,-1.33748 5.25,-2.97218 4.74002,-3.58648 10.761,-4.1429 12.36658,-1.14285 0.55484,1.03674 2.09591,2.15782 3.42459,2.4913 1.46392,0.36742 2.66102,1.58342 3.03818,3.08616 0.34232,1.36391 1.51709,2.95866 2.6106,3.54389 1.34115,0.71776 1.99595,2.11028 2.01205,4.27886 0.0362,4.87641 1.71653,11.12828 3.11642,11.59491 0.68534,0.22845 2.2941,1.46338 3.575,2.74428 3.59506,3.59506 5.69413,4.37563 11.76673,4.37563 4.59876,0 6.01158,-0.42442 7.81574,-2.34789 1.21124,-1.29134 3.19539,-2.87181 4.40922,-3.51215 1.4272,-0.75291 2.42989,-2.48492 2.8379,-4.90211 1.26499,-7.49415 5.98404,-17.27315 9.31222,-19.29713 1.7286,-1.05123 3.14291,-2.36794 3.14291,-2.92602 0,-1.89728 8.55573,-1.1631 10.41731,0.89392 0.95,1.04975 2.99532,2.43387 4.54515,3.07583 3.40599,1.41081 4.03754,3.90764 4.03754,15.96241 0,8.09733 -0.20489,8.96765 -2.97218,12.625 -1.6347,2.16048 -2.9847,4.76747 -3,5.79331 -0.0153,1.02585 -1.147,3.05085 -2.51489,4.5 -7.95497,8.42757 -10.51646,10.86419 -13.59396,12.93127 -8.31457,5.5847 -7.38068,-1.10274 -7.73265,55.37246 -0.36648,58.80187 0.0218,67.38512 3.26454,72.16355 1.2455,1.83535 2.57461,4.98978 2.95358,7.00984 0.42914,2.28755 1.61433,4.27913 3.14229,5.28029 1.3493,0.88409 2.45327,2.22939 2.45327,2.98955 0,1.809 6.86318,9.38787 8.50135,9.38787 0.69775,0 1.9834,1.09087 2.857,2.42416 0.8736,1.33328 2.61286,2.74784 3.86501,3.14346 1.25215,0.39561 2.83843,1.5173 3.52507,2.49264 0.68663,0.97533 3.59326,2.27621 6.45916,2.89084 2.8659,0.61463 5.94098,1.77836 6.8335,2.58608 4.49424,4.06724 26.07255,4.36336 32.70716,0.44885 1.91682,-1.13095 5.54717,-2.33891 8.06744,-2.68435 2.78484,-0.38171 5.38684,-1.48036 6.63331,-2.80081 1.12805,-1.195 3.53329,-2.68005 5.34498,-3.30011 2.82795,-0.96788 11.20451,-8.5594 11.2068,-10.15652 4.3e-4,-0.29933 1.57543,-2.31348 3.5,-4.47589 1.92457,-2.16241 3.49922,-4.68017 3.49922,-5.59502 0,-0.91484 0.89747,-2.47556 1.99439,-3.46825 1.09691,-0.99269 2.4444,-3.42494 2.99442,-5.40499 0.61167,-2.20197 1.05432,-28.45491 1.13982,-67.60009 0.1877,-85.9411 1.34857,-152.54128 2.78887,-160 0.63724,-3.3 1.7624,-12.075 2.50035,-19.5 0.86337,-8.68692 2.04517,-15.10436 3.31477,-18 1.08517,-2.475 2.30179,-6.70385 2.70359,-9.39744 0.40181,-2.69359 1.77051,-6.51859 3.04157,-8.5 1.27106,-1.98141 2.62125,-5.38243 3.00044,-7.55782 0.37918,-2.17539 1.7767,-5.24742 3.1056,-6.82672 1.3289,-1.57931 2.41618,-3.98343 2.41618,-5.34249 0,-1.35907 1.06246,-3.46204 2.36102,-4.67328 1.29856,-1.21124 2.70473,-3.29619 3.12483,-4.63323 0.42009,-1.33704 2.05763,-4.21706 3.63898,-6.40004 C 345.70617,155.486 347,153.14419 347,152.46497 c 0,-0.67922 1.125,-1.97208 2.5,-2.87301 1.375,-0.90094 2.5,-2.17325 2.5,-2.82736 0,-0.65411 1.13226,-2.33124 2.51613,-3.72695 4.74783,-4.78843 9.21903,-10.53935 9.90234,-12.7365 0.37611,-1.20936 1.58825,-2.48589 2.69364,-2.83673 1.10539,-0.35084 2.50461,-1.72386 3.10936,-3.05115 0.60476,-1.3273 1.67496,-2.41327 2.37823,-2.41327 0.70326,0 3.44353,-1.79517 6.08948,-3.98927 2.64595,-2.19409 6.08416,-5.00659 7.64047,-6.25 1.55631,-1.2434 4.09935,-3.49823 5.65121,-5.01073 1.55186,-1.5125 3.28335,-2.75 3.84777,-2.75 0.56442,0 1.881,-1.08669 2.92574,-2.41486 1.04474,-1.32817 3.76975,-2.918453 6.05557,-3.533962 2.28583,-0.615509 4.62799,-2.000943 5.20481,-3.078741 0.60651,-1.133267 2.94654,-2.437499 5.54912,-3.092836 2.47519,-0.623261 5.04993,-1.91784 5.72164,-2.876841 0.67171,-0.959002 3.24476,-2.084037 5.71789,-2.500077 2.47313,-0.416041 5.6933,-1.760956 7.15592,-2.988701 1.62189,-1.361428 4.7428,-2.503821 8,-2.928362 2.93738,-0.382854 6.91568,-1.747187 8.84068,-3.031851 2.71436,-1.811447 5.49332,-2.486537 12.38014,-3.007487 5.27287,-0.398863 11.16302,-1.560242 14.5,-2.859007 C 483.05254,69.674155 485.25168,69.5 505.5,69.5 c 19.44891,0 22.39003,0.212714 25.36355,1.834399 2.03511,1.109898 7.8214,2.352646 14.6506,3.146575 8.42016,0.978885 12.0108,1.84445 14.13645,3.407757 1.56717,1.152569 5.0994,2.369706 7.8494,2.704747 2.75,0.335042 6.17194,1.428574 7.60431,2.430071 1.43238,1.001497 4.5701,2.350235 6.97273,2.997196 2.40263,0.64696 5.65271,2.256958 7.22241,3.577773 1.5697,1.320815 3.941,2.401482 5.26956,2.401482 1.40127,0 3.49373,1.21006 4.98324,2.88178 1.66204,1.865358 3.95735,3.103999 6.50771,3.511818 2.60377,0.416359 3.94004,1.151129 3.94004,2.166492 0,0.84505 1.26375,2.07723 2.80833,2.73818 2.69607,1.15369 4.23416,2.24724 13.29396,9.45173 2.24781,1.7875 4.71936,3.25 5.49232,3.25 0.77297,0 1.40539,0.52113 1.40539,1.15806 0,0.63694 4.1625,5.33715 9.25,10.44493 5.0875,5.10777 10.6,11.13534 12.25,13.3946 1.65,2.25926 4.14293,5.54655 5.53984,7.30508 1.39692,1.75853 3.07477,4.43483 3.72857,5.94733 0.65379,1.5125 1.86804,2.75 2.69833,2.75 0.98995,0 1.73157,1.38797 2.15436,4.03198 0.39188,2.45064 1.53971,4.73595 2.92668,5.82694 1.25506,0.98724 2.78316,3.65637 3.39576,5.93142 0.61261,2.27504 1.93484,4.71541 2.9383,5.42305 1.07867,0.76068 2.10808,3.18932 2.51829,5.94128 0.4207,2.82237 1.65945,5.69659 3.14685,7.30152 1.34916,1.45577 2.45553,3.86117 2.4586,5.34533 0.008,4.00713 1.85201,9.91321 3.65863,11.71984 1.15946,1.15945 1.81062,4.7806 2.40949,13.39917 0.91566,13.17778 1.48109,16.2266 3.81664,20.57947 1.44429,2.69179 1.66103,14.8321 2.10966,118.1698 l 0.5,115.1698 2.12683,2.3302 c 1.16975,1.28161 2.65402,3.97791 3.29837,5.99177 0.64434,2.01387 1.8224,3.91133 2.6179,4.21659 0.7955,0.30527 2.16914,2.36142 3.05253,4.56923 0.94861,2.37082 2.92232,4.82763 4.82106,6.00112 1.76819,1.09281 4.01945,2.87594 5.0028,3.96252 0.98334,1.08659 3.09123,2.26187 4.6842,2.61174 1.59297,0.34988 2.89631,1.01824 2.89631,1.48526 0,1.94124 3.19925,3.79415 7.70046,4.45986 2.63974,0.39041 5.51141,1.34615 6.38146,2.12386 5.10777,4.56561 27.624,4.1998 34.91808,-0.56731 0.825,-0.53919 3.41067,-1.45711 5.74593,-2.03984 2.33527,-0.58272 5.03527,-1.90614 6,-2.94092 0.96474,-1.03478 2.95931,-2.18361 4.43238,-2.55296 4.63839,-1.16301 19.11037,-17.91629 20.16206,-23.34033 0.35721,-1.84228 1.77676,-4.68931 3.15455,-6.32672 L 818,472.84655 v -60.3976 -60.39759 L 815,350.5 c -1.65,-0.85325 -3,-1.97825 -3,-2.5 0,-0.52175 -1.25367,-1.59694 -2.78593,-2.3893 -4.10922,-2.12496 -13.94243,-12.39225 -14.679,-15.327 -0.35075,-1.39748 -1.73962,-4.16247 -3.08639,-6.14442 -2.17757,-3.20458 -2.44717,-4.65734 -2.43503,-13.12141 0.008,-5.23483 0.27743,-10.41787 0.59982,-11.51787 0.32239,-1.1 2.8421,-3.4625 5.59936,-5.25 5.49229,-3.56059 10.71599,-4.24562 12.84189,-1.68406 0.71479,0.86126 2.56989,2.22282 4.12245,3.02568 1.55256,0.80286 2.82283,1.98168 2.82283,2.61961 0,0.63793 0.94484,2.1656 2.09963,3.39483 1.4131,1.50417 2.33814,4.25767 2.82904,8.42104 0.65381,5.54507 1.13569,6.54091 4.65036,9.61038 5.09617,4.45063 7.44823,5.36603 13.73607,5.346 4.84007,-0.0154 5.4795,-0.32151 9.61441,-4.60238 3.87237,-4.00905 4.53416,-5.3511 5.26156,-10.66992 0.54415,-3.97895 1.52005,-6.72504 2.82049,-7.93657 1.09364,-1.01889 1.98844,-2.49843 1.98844,-3.28789 0,-0.78945 1.4625,-2.18288 3.25,-3.09652 1.7875,-0.91364 3.60986,-2.27519 4.04969,-3.02568 1.46755,-2.50409 7.551,-1.58917 12.53683,1.88548 2.56492,1.7875 4.99409,3.7 5.39817,4.25 0.40408,0.55 0.74158,5.86752 0.75,11.81672 0.014,9.91489 -0.18663,11.08213 -2.40683,14 -1.33218,1.7508 -2.71065,4.33984 -3.06326,5.75341 -0.77707,3.1151 -10.18125,13.18901 -14.30093,15.31938 -1.63422,0.84508 -3.21951,2.18332 -3.52286,2.97384 -0.30335,0.79053 -2.35698,1.74235 -4.56361,2.11516 -2.20664,0.37281 -4.60047,1.38632 -5.31963,2.25226 -1.03296,1.24377 -1.41258,14.43648 -1.80757,62.81779 -0.45802,56.10085 -0.64447,61.40293 -2.22057,63.14363 -0.94632,1.04514 -2.26854,4.35446 -2.93827,7.35403 -0.66973,2.99958 -2.25797,6.72581 -3.52942,8.28051 C 839.04028,495.88142 838,497.7594 838,498.5 c 0,0.7406 -1.13667,2.69741 -2.52594,4.34846 -1.38926,1.65104 -3.0116,4.39507 -3.60518,6.09783 -0.59359,1.70276 -1.95346,3.56379 -3.02193,4.13562 -1.06848,0.57183 -2.36001,2.13733 -2.87007,3.47889 -0.51006,1.34156 -1.58287,2.4392 -2.38403,2.4392 -0.80117,0 -2.41795,1.35 -3.59285,3 -1.1749,1.65 -2.7108,3 -3.41311,3 -0.7023,0 -2.13416,0.95831 -3.1819,2.12959 -1.04775,1.17127 -3.81749,2.95528 -6.15499,3.96446 -2.3375,1.00918 -4.25,2.47338 -4.25,3.25378 0,1.46933 -2.89707,2.61479 -6.67327,2.63852 -1.19531,0.008 -3.44831,1.08652 -5.00667,2.39779 -1.98338,1.66891 -5.08139,2.73041 -10.32673,3.53836 -4.12133,0.63482 -9.96833,1.62734 -12.99333,2.2056 -6.94348,1.32731 -12.99722,1.33326 -20,0.0197 -3.025,-0.56743 -9.18394,-1.63722 -13.68653,-2.37731 -4.50259,-0.74009 -9.00259,-2.08241 -10,-2.98294 -0.99741,-0.90053 -3.90974,-2.16416 -6.47185,-2.80807 -3.04523,-0.76533 -4.82462,-1.80646 -5.13845,-3.00652 -0.56109,-2.14563 -7.23786,-4.24489 -12.02534,-3.78092 L 697.5,530.5 l -0.26034,44.16823 c -0.21866,37.09555 -0.0327,44.39587 1.16127,45.58985 1.05144,1.05143 5.60751,1.58641 17.49668,2.05447 13.17922,0.51885 16.77196,0.98839 19.94365,2.60647 2.12772,1.08548 6.29637,2.27279 9.26367,2.63847 2.96729,0.36567 6.97007,1.69841 8.89507,2.96163 1.925,1.26322 5.35769,2.59349 7.6282,2.95615 2.53332,0.40463 4.94537,1.5992 6.24338,3.09205 1.16336,1.33797 2.62126,2.43268 3.23979,2.43268 0.61853,0 2.65476,1.3435 4.52495,2.98555 1.8702,1.64205 4.46065,3.25167 5.75655,3.57692 1.29591,0.32525 2.83522,1.64272 3.4207,2.92771 0.58548,1.28499 1.92365,2.60903 2.97372,2.94231 1.05006,0.33327 2.40006,1.68327 3,3 0.59993,1.31672 1.99521,2.68109 3.1006,3.03193 1.10539,0.35084 2.25286,1.40237 2.54992,2.33673 0.29707,0.93437 1.69662,2.94533 3.11013,4.46881 1.41351,1.52348 3.04081,4.12048 3.61622,5.77111 0.57541,1.65063 1.85833,3.43578 2.85092,3.967 1.0828,0.5795 2.08197,2.67114 2.49783,5.22889 0.38121,2.34467 1.71595,5.38804 2.96609,6.76304 1.46703,1.61355 2.51005,4.38866 2.94158,7.8265 0.36773,2.92957 1.827,8.91787 3.24282,13.30734 2.33121,7.22745 2.53544,9.14571 2.16342,20.32041 -0.24613,7.39298 -0.88234,12.90772 -1.58708,13.75688 -1.40038,1.68736 -4.20401,13.08392 -4.22496,17.1742 -0.009,1.74236 -0.96003,3.76136 -2.401,5.0968 -1.38537,1.28392 -2.68145,3.95892 -3.0901,6.37771 -0.42104,2.49213 -1.44411,4.56239 -2.54606,5.15214 -1.01319,0.54224 -2.1636,1.99863 -2.55646,3.23642 -0.83295,2.62439 -1.89636,3.82209 -15.61773,17.58992 C 774.53361,809.15308 773.57752,810 771.81621,810 c -0.81033,0 -3.46297,1.29516 -5.89477,2.87814 -2.43179,1.58298 -6.10746,3.1781 -8.16814,3.5447 -2.06069,0.3666 -4.9389,1.77144 -6.39603,3.12185 -2.1517,1.99414 -3.69214,2.45531 -8.20139,2.45531 -7.6119,0 -21.80338,1.91743 -26.68931,3.60603 -5.86179,2.02586 -418.11735,1.99157 -423.46657,-0.0352 z m 440.04206,-32.16439 c 1.94813,-1.15148 5.99499,-2.41898 8.99303,-2.81669 3.22311,-0.42756 6.67995,-1.65881 8.45794,-3.01253 1.65384,-1.25918 4.03146,-2.61331 5.28361,-3.00916 1.25215,-0.39585 2.99141,-1.8106 3.86501,-3.14388 C 760.51525,780.09087 761.7054,779 762.28643,779 763.55669,779 772,770.35103 772,769.04983 c 0,-0.50328 0.90765,-1.20313 2.01699,-1.55522 1.10934,-0.35209 2.66138,-2.18242 3.44897,-4.06739 0.78759,-1.88497 1.83272,-3.42722 2.3225,-3.42722 1.19027,0 3.21154,-4.55876 3.21154,-7.2433 0,-1.18206 1.2375,-3.93491 2.75,-6.11745 2.7477,-3.96493 2.75,-3.98313 2.75,-21.71997 0,-16.84697 -0.11481,-17.90701 -2.25264,-20.79857 -1.23895,-1.67577 -2.73889,-5.31418 -3.3332,-8.08536 -0.6167,-2.87556 -1.9021,-5.61392 -2.99431,-6.37893 -1.05255,-0.73724 -2.40272,-2.74315 -3.00038,-4.45757 -0.59765,-1.71442 -1.90428,-3.37664 -2.90364,-3.69382 -0.99935,-0.31719 -2.08273,-1.63544 -2.4075,-2.92945 C 770.94327,675.9258 764.67187,670 762.53259,670 c -0.7688,0 -1.67153,-0.86239 -2.00606,-1.91642 -0.33454,-1.05403 -1.9697,-2.39102 -3.63369,-2.97109 -1.66399,-0.58007 -3.7831,-1.97913 -4.70914,-3.10902 -1.14684,-1.39931 -3.71199,-2.37776 -8.04487,-3.06865 -3.49864,-0.55786 -7.01761,-1.67074 -7.81993,-2.47306 -0.80231,-0.80232 -2.66479,-1.79693 -4.13883,-2.21026 C 730.70603,653.83818 627.72518,653.5 503.33374,653.5 H 277.16749 l -3.08423,2.28029 c -1.69632,1.25417 -5.12522,2.6616 -7.61978,3.12763 -2.49456,0.46603 -5.38955,1.62019 -6.43332,2.56479 -1.04377,0.9446 -3.61506,2.29446 -5.71396,2.99969 -2.09891,0.70523 -4.26041,2.23744 -4.80333,3.40492 C 248.96995,669.04479 248.1019,670 247.58386,670 245.86909,670 232,685.13852 232,687.01026 c 0,1.00996 -1.10905,3.15432 -2.46455,4.76524 -1.35551,1.61093 -2.7787,4.90796 -3.16265,7.32673 -0.38395,2.41877 -1.6374,5.67113 -2.78545,7.22746 -1.81541,2.46104 -2.13067,4.53292 -2.41987,15.90338 -0.36988,14.54275 0.14909,18.94064 2.51416,21.30571 0.88169,0.88169 1.99193,3.70866 2.4672,6.28215 0.47527,2.57349 1.75707,5.80407 2.84845,7.17907 1.09139,1.375 2.62537,3.92628 3.40886,5.66951 0.7835,1.74323 2.36263,3.67156 3.50919,4.28518 1.14656,0.61362 2.08466,1.6059 2.08466,2.20505 0,1.70658 15.27816,15.84026 17.12293,15.84026 0.5986,0 2.38617,1.09204 3.97239,2.42675 1.95752,1.64715 4.73457,2.64931 8.64436,3.11952 3.16817,0.38102 6.52939,1.36704 7.46936,2.19117 0.93998,0.82412 3.18998,1.85127 5,2.28255 1.81003,0.43128 103.64096,0.71571 226.29096,0.63207 L 729.5,795.5 Z M 298,753 c -1.375,-0.44035 -4.00463,-0.8455 -5.84362,-0.90032 -2.37868,-0.0709 -3.48536,-0.64168 -3.83475,-1.97778 -0.27013,-1.03296 -1.58463,-2.37633 -2.92111,-2.98527 -1.33649,-0.60895 -2.94164,-2.23015 -3.56701,-3.60268 -0.62536,-1.37253 -1.93209,-2.74785 -2.90384,-3.05627 -2.25355,-0.71525 -3.48043,-12.10776 -2.46774,-22.91471 0.58815,-6.2764 1.06283,-7.67678 3.04165,-8.97336 1.2896,-0.84498 2.63419,-2.44832 2.98796,-3.56297 0.35378,-1.11465 1.1877,-2.02664 1.85316,-2.02664 0.66546,0 2.39454,-1.35 3.84239,-3 1.74028,-1.98326 3.59504,-3.01106 5.47268,-3.03265 1.56213,-0.018 5.27202,-0.87226 8.24421,-1.89846 5.28647,-1.82524 5.50028,-1.82453 9.8329,0.0326 2.43591,1.04415 5.00475,1.89846 5.70852,1.89846 0.70378,0 3.02897,1.39827 5.1671,3.10727 2.13812,1.70899 4.83687,3.47385 5.9972,3.92191 1.47513,0.5696 2.30428,2.03141 2.75657,4.85989 0.35843,2.24147 1.64721,4.97767 2.8903,6.13632 1.96631,1.83276 2.24005,3.07207 2.21604,10.03276 -0.024,6.96796 -0.29019,8.12578 -2.17081,9.44302 -1.17889,0.82572 -2.4229,2.77372 -2.76448,4.32889 -0.34157,1.55517 -2.80093,4.97469 -5.46524,7.59894 -4.10089,4.03923 -5.8207,4.98076 -11.20814,6.13605 C 307.84405,754.0704 301.82692,754.22559 298,753 Z m 98.5,0.0136 c -1.65,-0.44331 -4.20751,-1.07877 -5.68335,-1.41214 -1.47584,-0.33337 -2.96833,-1.50404 -3.31665,-2.60148 -0.34832,-1.09744 -1.68931,-2.26039 -2.97999,-2.58433 -1.34484,-0.33754 -2.59703,-1.58639 -2.93306,-2.92526 -0.3225,-1.28494 -1.64396,-3.60845 -2.93658,-5.16334 -4.36668,-5.25268 -4.31738,-25.19371 0.0724,-29.28341 1.16655,-1.0868 2.41147,-2.89123 2.7665,-4.00983 0.35503,-1.11861 1.27982,-2.03383 2.05507,-2.03383 0.77526,0 2.13065,-1.10051 3.01197,-2.44558 1.16834,-1.78311 3.13848,-2.76041 7.27305,-3.60785 3.11886,-0.63926 7.14138,-1.76923 8.93895,-2.51105 2.89284,-1.19381 3.79329,-1.12372 7.83826,0.61016 2.51348,1.0774 6.36892,2.24658 8.56763,2.59817 2.82216,0.45128 4.30335,1.31013 5.03721,2.92078 0.57175,1.25485 2.05721,2.53695 3.30103,2.84913 1.6157,0.40552 2.44791,1.56132 2.91432,4.04748 0.35906,1.91394 1.75993,4.79559 3.11304,6.40368 2.1879,2.60017 2.46021,3.85702 2.46021,11.35512 0,7.65281 -0.22605,8.6437 -2.44813,10.73123 -1.34647,1.26494 -2.73087,3.58724 -3.07645,5.16066 -0.34559,1.57342 -1.94393,3.79755 -3.55188,4.94251 -1.60795,1.14496 -2.92354,2.72611 -2.92354,3.51365 0,0.78755 -0.1125,1.43253 -0.25,1.43328 -0.1375,7.5e-4 -4.075,0.67513 -8.75,1.49863 -9.25212,1.62975 -13.86864,1.75792 -18.5,0.51362 z m 99,0 c -1.65,-0.44331 -4.20751,-1.07877 -5.68335,-1.41214 -1.47584,-0.33337 -2.96833,-1.50404 -3.31665,-2.60148 -0.34832,-1.09744 -1.72831,-2.27018 -3.06665,-2.60608 C 482.09501,746.05801 481,745.22468 481,744.54207 c 0,-0.68261 -1.34181,-3.22132 -2.9818,-5.64159 -2.80329,-4.13703 -2.98289,-4.98819 -3,-14.2172 -0.0163,-8.80255 0.22809,-10.14559 2.36573,-13 1.31117,-1.7508 2.68419,-4.17276 3.05116,-5.38213 0.36697,-1.20936 1.55619,-2.48099 2.6427,-2.82584 1.08652,-0.34485 2.66756,-1.68322 3.51342,-2.97416 1.01511,-1.54926 2.9443,-2.58478 5.67497,-3.04612 2.27538,-0.38442 6.06064,-1.52349 8.41168,-2.53127 4.14965,-1.77875 4.39957,-1.77809 8.54838,0.0225 2.35057,1.02016 6.16067,2.15981 8.46689,2.53257 3.99729,0.6461 11.30687,6.0141 11.30687,8.30354 0,0.50417 1.34181,2.89688 2.9818,5.31715 2.79251,4.12113 2.98296,5.01071 3,14.01298 0.0174,9.18768 -0.11438,9.77932 -2.9818,13.3875 -1.65,2.07626 -3,4.3723 -3,5.10232 0,0.73002 -1.0125,1.84581 -2.25,2.47954 -1.2375,0.63372 -2.925,1.99546 -3.75,3.0261 -3.04001,3.79773 -19.30416,6.10763 -27.5,3.90566 z m 105,0.53948 c -0.55,-0.21769 -3.025,-0.67025 -5.5,-1.0057 -2.93729,-0.3981 -5.66045,-1.62756 -7.84164,-3.54035 -1.8379,-1.61174 -4.13173,-3.18121 -5.09739,-3.4877 -0.9855,-0.31279 -2.30467,-2.41341 -3.007,-4.7883 -0.68819,-2.32708 -1.99436,-5.06579 -2.90261,-6.08604 -2.29041,-2.57284 -2.36986,-17.56937 -0.10508,-19.83415 0.85045,-0.85045 2.17648,-3.45579 2.94672,-5.78964 0.82385,-2.4963 2.30333,-4.65474 3.59344,-5.24256 1.20616,-0.54956 2.66266,-2.02996 3.23667,-3.28978 0.74979,-1.64559 2.24551,-2.49363 5.31189,-3.01169 2.34753,-0.39661 6.19427,-1.54671 8.54832,-2.55577 3.75648,-1.61021 4.67991,-1.66996 7.54838,-0.48841 1.79757,0.74043 5.84762,1.91569 9.00013,2.61168 3.90148,0.86134 5.91363,1.83824 6.30115,3.05922 0.31313,0.98658 1.45124,2.07369 2.52914,2.41581 1.0779,0.34211 2.62987,1.91776 3.44883,3.50145 0.81895,1.58368 2.27652,3.32064 3.23903,3.85989 1.53497,0.85998 1.75002,2.67863 1.75002,14.7997 0,15.62524 0.98589,13.29023 -10.32675,24.45833 -1.5688,1.54876 -4.32584,2.89856 -6.67325,3.26711 -6.12187,0.96117 -14.88262,1.58914 -16,1.1469 z m 94.35959,-0.93132 c -4.56847,-0.90859 -6.60441,-2.02552 -10.7129,-5.87715 -3.26382,-3.05978 -5.43887,-6.09058 -6.10001,-8.5 -0.56513,-2.05955 -1.92886,-5.09463 -3.03051,-6.74463 -2.92866,-4.38642 -2.76332,-12.44703 0.33174,-16.17327 1.29134,-1.5547 2.62254,-3.95173 2.9582,-5.32673 1.07165,-4.38986 9.51835,-11.4488 16.69389,-13.95115 7.766,-2.70826 7.33698,-2.71078 17.91813,0.10533 6.44792,1.71607 9.0751,2.95489 11.22518,5.29313 8.60854,9.36187 8.54039,9.23953 9.21987,16.55053 0.35793,3.85119 0.35486,10.1862 -0.007,14.0778 -0.53518,5.75838 -1.0663,7.34343 -2.85285,8.51403 -1.20739,0.7911 -2.70496,2.55707 -3.32794,3.92435 -0.62297,1.36729 -1.76558,2.48598 -2.53911,2.48598 -0.77354,0 -2.09826,1.05586 -2.94382,2.34636 -2.71015,4.1362 -14.97643,5.63351 -26.83304,3.27542 z M 664.06574,620.96482 C 665.96022,619.95092 666,617.65055 666,509.09967 666,398.49019 665.996,398.26448 663.92742,395.63486 L 661.85484,393 h -79.41307 c -85.71281,0 -87.60236,-0.10495 -89.80578,-4.98825 -0.79835,-1.76933 -1.22113,-22.36675 -1.43035,-69.68453 -0.33991,-76.87513 -0.7637,-72.68713 7.65195,-75.61834 2.82833,-0.98512 5.14241,-2.22262 5.14241,-2.75 0,-0.60338 28.45465,-0.96435 76.75,-0.97362 80.10391,-0.0154 80.00798,-0.0105 82.64455,-4.2318 0.82028,-1.31334 0.7279,-2.30549 -0.37244,-4 -0.80759,-1.24367 -1.72429,-5.9109 -2.04573,-10.41547 -0.46385,-6.50026 -1.10781,-8.94342 -3.16293,-12 -1.41927,-2.1109 -2.84422,-5.63799 -3.16656,-7.83799 -0.32314,-2.20553 -1.4761,-4.72796 -2.57002,-5.62267 -1.09117,-0.89247 -2.51192,-3.71942 -3.15721,-6.28211 -0.64529,-2.56269 -1.95164,-5.20749 -2.903,-5.87733 -0.95136,-0.66984 -2.06985,-2.34289 -2.48554,-3.71789 -0.4157,-1.375 -1.79816,-3.625 -3.07214,-5 -1.27398,-1.375 -2.62519,-3.74937 -3.00269,-5.27638 -0.37749,-1.52701 -1.52993,-3.22785 -2.56097,-3.77964 -1.03104,-0.5518 -2.56583,-2.33993 -3.41065,-3.97362 C 630.63985,159.33666 629.2852,158 628.47432,158 627.66344,158 627,157.49545 627,156.87879 627,155.48746 611.61955,140 610.23784,140 c -0.55252,0 -1.23852,-0.89458 -1.52444,-1.98796 -0.28593,-1.09338 -1.66105,-2.42184 -3.05583,-2.95213 -1.39478,-0.5303 -3.02916,-1.88572 -3.63195,-3.01204 C 601.42283,130.92154 600.34891,130 599.63913,130 c -0.70978,0 -2.33512,-1.11194 -3.61187,-2.47098 -1.27675,-1.35904 -3.94269,-2.98614 -5.92431,-3.61579 -1.98162,-0.62964 -4.30077,-2.02039 -5.15366,-3.09054 -0.85288,-1.07015 -3.51995,-2.38819 -5.92681,-2.92897 -2.40686,-0.54079 -5.40006,-2.08811 -6.65155,-3.43849 C 570.86543,112.83077 569.00937,112 566.88561,112 c -1.76544,0 -5.22669,-1.18192 -7.69165,-2.62649 -3.08297,-1.80674 -6.83163,-2.89001 -12.01082,-3.47083 -4.14098,-0.46439 -7.78872,-1.24011 -8.1061,-1.72381 -2.00132,-3.05019 -6.07321,-3.62379 -28.43611,-4.00574 -23.29337,-0.397842 -31.97828,0.3986 -37.93466,3.47876 -1.5506,0.80185 -6.2246,1.8398 -10.38668,2.30656 -5.05722,0.56714 -8.49943,1.53772 -10.37717,2.926 -1.54537,1.14254 -4.97693,2.56302 -7.62569,3.15662 -2.64876,0.5936 -5.78438,1.98908 -6.96804,3.10107 -1.18366,1.11199 -4.02753,2.27335 -6.31971,2.5808 -2.88255,0.38663 -4.64421,1.28638 -5.7133,2.91803 -0.85014,1.29746 -2.08974,2.35903 -2.75467,2.35903 -0.66493,0 -3.42424,1.575 -6.13179,3.5 -2.70755,1.925 -5.49641,3.5 -6.19746,3.5 -0.70105,0 -1.77145,1.09039 -2.37867,2.42308 -0.60721,1.3327 -2.18848,2.69527 -3.51393,3.02793 -1.32544,0.33267 -2.83284,1.71728 -3.34978,3.07692 -0.51693,1.35964 -1.52581,2.47207 -2.24194,2.47207 -0.71614,0 -2.48506,1.2375 -3.93093,2.75 -1.44588,1.5125 -3.16984,3.26375 -3.83102,3.89167 -3.80806,3.61644 -7.98549,8.41064 -7.98549,9.16448 0,0.48005 -1.125,1.3854 -2.5,2.0119 -1.43187,0.6524 -2.5,1.97851 -2.5,3.10381 0,1.0806 -0.89104,2.58884 -1.98008,3.35163 -1.08904,0.7628 -2.65973,3.01355 -3.49043,5.00168 -0.83069,1.98813 -2.63965,4.74409 -4.01992,6.12435 -1.38026,1.38026 -2.50957,3.04092 -2.50957,3.69035 0,0.64944 -1.0738,2.17595 -2.38622,3.39226 -1.43432,1.32928 -2.68168,3.96799 -3.12688,6.61467 -0.40736,2.42176 -1.78131,5.64284 -3.05322,7.15795 -1.29973,1.54827 -2.61416,4.83302 -3.0012,7.5 -0.37876,2.60989 -1.50202,5.52327 -2.49613,6.47418 -1.01147,0.9675 -2.05666,3.8301 -2.37327,6.5 -1.09351,9.22112 -2.35703,15.80986 -3.79149,19.77107 -1.24664,3.44258 -1.43617,30.33401 -1.36005,192.97031 l 0.0885,188.9703 2.5,1.26495 c 3.26671,1.6529 313.98697,1.90696 317.06574,0.25926 z m -3.3528,-257.01464 c 1.65626,-0.57737 3.52341,-2.17355 4.14922,-3.54705 C 665.65543,358.66214 666,345.07157 666,315.52438 666,278.32906 665.80771,272.95056 664.42857,271.57143 663.03071,270.17356 655.32041,270 594.6197,270 c -72.80901,0 -69.51293,-0.2246 -72.9734,4.97251 -1.45954,2.19201 -1.6463,6.99589 -1.6463,42.3457 0,35.45349 0.18513,40.18661 1.6702,42.70063 0.91861,1.55508 2.60611,3.28156 3.75,3.83661 2.9231,1.41839 131.23797,1.50827 135.29274,0.0948 z"
     id="path1588"
     transform="matrix(0.31999999,0,0,0.31999999,-40.319999,-22.239999)"
     inkscape:label="HobbMain"
     sodipodi:nodetypes="sssssssssssssssssssssssssssssssssssscssssssssssssssssssssssssssssssssssssssssssssssssssssssssssssssssssssssssssssssssssssssssssssssssssssssssssssssssssssssssssssssssssssssscsssscsssssssssssssssscccssssscssssssssssssssssssssssssssssssssssssssscssssssssscsssssssssssssssssssssssssssssssssssssssssssssssssssssssssssssssssscssssssssssssssssssssssscssssssssssssssssssssssssssssssssssssssssssssssssssssssssssssssssssssssssssssssssssssssssssssssssssscssssssssscssssccssscssssssssssssssssssssssssssssssssssssssssssssssssssssssssssssssssssscssssssssssssss" /><path
     d="m 93.120951,160.99892 c -1.157731,-0.25866 -1.868761,-0.60798 -2.08,-1.02189 -0.176524,-0.34589 -0.648976,-0.95424 -1.049894,-1.3519 l -0.728941,-0.72301 0.08894,-15.32847 c 0.08198,-14.12912 0.13303,-15.37406 0.652413,-15.91107 0.30991,-0.32042 0.824214,-0.92656 1.142896,-1.34698 0.497606,-0.65645 0.922294,-0.7864 3.007577,-0.92022 1.335488,-0.0857 3.782112,-0.0543 5.436944,0.0697 l 3.008784,0.22558 0.87168,2.00087 0.87167,2.00088 -0.86479,1.94815 c -0.74627,1.68114 -1.00498,1.97445 -1.88758,2.14003 -0.56253,0.10553 -1.29456,0.49191 -1.626721,0.85861 -0.553702,0.61127 -0.611862,1.35872 -0.69927,8.9865 -0.105578,9.21329 0.0094,9.84919 1.782711,9.85915 1.2053,0.007 1.43103,0.21665 2.47784,2.30395 l 0.9172,1.82885 -0.94121,1.9362 c -0.78509,1.61506 -1.12698,1.99199 -2.0612,2.27252 -1.716301,0.51536 -6.354019,0.61153 -8.31905,0.1725 z"
     style="fill:#ffffff;fill-opacity:1;stroke:#000000;stroke-width:3;stroke-dasharray:none;stroke-opacity:1"
     id="path1717"
     transform="matrix(-1,0,0,1,184.45027,0.1177559)"
     inkscape:label="LeftVent" /><path
     d="m 136.60401,160.93091 c -2.8736,-0.90192 -2.68401,0.36987 -2.68401,-18.00444 V 126.72 l 1.08311,-1.12 1.08312,-1.12 h 4.71377 4.71376 l 1.04881,1.12 c 0.97072,1.03662 1.0489,1.28102 1.05017,3.2828 0.002,2.43014 -0.39945,3.12351 -2.33274,4.03367 -1.71203,0.80599 -1.95448,2.24508 -1.84824,10.97062 0.0804,6.60582 0.14218,7.30664 0.69783,7.92 0.33528,0.3701 0.77503,0.67291 0.97723,0.67291 0.2022,0 0.85475,0.50258 1.45012,1.11685 1.01317,1.04532 1.08123,1.25159 1.0627,3.22081 -0.0173,1.83848 -0.12946,2.21844 -0.88889,3.01112 -1.04393,1.08962 -1.99102,1.32981 -5.77075,1.46352 -1.8877,0.0668 -3.38855,-0.0577 -4.35599,-0.36137 z"
     style="fill:#ffffff;fill-opacity:1;stroke:#000000;stroke-width:3;stroke-dasharray:none;stroke-opacity:1"
     id="path1750"
     transform="translate(14.048926,-0.4143677)"
     inkscape:label="RightVent" /><g
     id="g4090"
     inkscape:label="MiddleVents"><rect
       style="fill:#ffffff;fill-opacity:1;stroke:#000000;stroke-width:3;stroke-linejoin:round;stroke-dasharray:none;stroke-opacity:1;paint-order:markers fill stroke"
       id="rect1903"
       width="8.2201405"
       height="32.880562"
       x="117.45316"
       y="124.25058"
       transform="translate(-16,2)"
       inkscape:label="Vent" /><rect
       style="fill:#ffffff;fill-opacity:1;stroke:#000000;stroke-width:3;stroke-linejoin:round;stroke-dasharray:none;stroke-opacity:1;paint-order:markers fill stroke"
       id="rect1903-7"
       width="8.2201405"
       height="32.880562"
       x="117.45316"
       y="124.25058"
       transform="translate(-0.20960504,-0.8934393)"
       inkscape:label="Vent" /><rect
       style="fill:#ffffff;fill-opacity:1;stroke:#000000;stroke-width:3;stroke-linejoin:round;stroke-dasharray:none;stroke-opacity:1;paint-order:markers fill stroke"
       id="rect1903-0"
       width="8.2201405"
       height="32.880562"
       x="117.45316"
       y="124.25058"
       transform="translate(16.4192,1.7904015)"
       inkscape:label="Vent" /></g></svg>
