<?xml version="1.0" encoding="UTF-8" standalone="no"?>
<!-- Created with Inkscape (http://www.inkscape.org/) -->

<svg
   width="222.81386"
   height="221.74921"
   viewBox="0 0 222.81386 221.74921"
   version="1.1"
   id="svg1863"
   inkscape:version="1.2 (dc2aedaf03, 2022-05-15)"
   sodipodi:docname="tillibot.svg"
   inkscape:export-filename="inkscape_map.png"
   inkscape:export-xdpi="96"
   inkscape:export-ydpi="96"
   xml:space="preserve"
   xmlns:inkscape="http://www.inkscape.org/namespaces/inkscape"
   xmlns:sodipodi="http://sodipodi.sourceforge.net/DTD/sodipodi-0.dtd"
   xmlns="http://www.w3.org/2000/svg"
   xmlns:svg="http://www.w3.org/2000/svg"><sodipodi:namedview
     id="namedview1865"
     pagecolor="#6c6c6c"
     bordercolor="#000000"
     borderopacity="0.25"
     inkscape:showpageshadow="2"
     inkscape:pageopacity="0"
     inkscape:pagecheckerboard="false"
     inkscape:deskcolor="#272727"
     inkscape:document-units="px"
     showgrid="true"
     inkscape:zoom="1.4142136"
     inkscape:cx="399.86889"
     inkscape:cy="84.145707"
     inkscape:window-width="1920"
     inkscape:window-height="1057"
     inkscape:window-x="1912"
     inkscape:window-y="-8"
     inkscape:window-maximized="1"
     inkscape:current-layer="svg1863"
     showguides="true"><inkscape:grid
       type="xygrid"
       id="grid4396"
       originx="622.29618"
       originy="277.00129" /></sodipodi:namedview><defs
     id="defs1860" /><path
     style="fill:#ffffff;fill-opacity:1;stroke:#000000;stroke-width:9.375;stroke-dasharray:none;stroke-opacity:1"
     d="m 279.37648,777.97334 c -5.01794,-0.41705 -9.97674,-1.02908 -11.01957,-1.36006 -1.04282,-0.33098 -8.30982,-1.49393 -16.14889,-2.58435 -14.94981,-2.07951 -16.47374,-2.56772 -22.32457,-7.15196 -1.9891,-1.5585 -5.80158,-3.77025 -8.47217,-4.915 -2.6706,-1.14475 -7.38994,-4.417 -10.48743,-7.27167 -3.09749,-2.85466 -6.71002,-6.17446 -8.02783,-7.37732 -6.96249,-6.35515 -12.93194,-13.36251 -15.17458,-17.81298 -1.38575,-2.75 -3.92352,-6.76013 -5.63948,-8.91139 -3.11643,-3.90701 -5.32907,-10.09826 -6.64322,-18.58861 -0.38309,-2.475 -1.87485,-8.1 -3.31503,-12.5 l -2.61851,-8 -0.27505,-125.17488 C 168.93558,422.26741 168.65318,431.15888 173.87744,410 c 1.15428,-4.675 2.58856,-11.09999 3.18729,-14.27775 0.82081,-4.35653 2.04157,-6.87884 4.96276,-10.25401 2.1308,-2.46195 5.24757,-7.35396 6.92617,-10.87114 1.6786,-3.51718 4.51617,-7.68044 6.30571,-9.25168 1.78955,-1.57125 4.8229,-4.80944 6.74078,-7.19598 1.91788,-2.38655 6.15941,-5.9054 9.42563,-7.81968 3.26621,-1.91427 7.8757,-5.18563 10.24331,-7.26968 2.90197,-2.55442 6.34567,-4.35389 10.56782,-5.52211 3.4447,-0.95311 9.54777,-3.53282 13.56238,-5.7327 6.45542,-3.53737 8.42077,-4.10002 17,-4.86685 5.33539,-0.47689 51.77571,-0.88563 103.20071,-0.90832 60.57957,-0.0267 94.79771,-0.40168 97.18572,-1.06493 2.02715,-0.56303 4.81914,-2.37066 6.20441,-4.01697 2.42804,-2.88556 2.51217,-3.45132 2.33784,-15.72074 -0.10404,-7.32216 0.38174,-15.5604 1.14383,-19.39797 1.14838,-5.7828 1.11197,-7.60566 -0.27357,-13.69741 -3.68287,-16.19235 -1.14271,-21.84789 10.57851,-23.55251 10.19584,-1.48279 14.55281,-8.04954 13.32257,-20.07957 -1.34101,-13.11307 -4.80021,-17.99202 -14.8221,-20.90546 -3.24256,-0.94264 -6.41831,-2.67641 -7.81881,-4.26861 -1.29712,-1.47468 -4.69935,-5.04538 -7.5605,-7.93491 -4.03451,-4.0745 -5.5786,-6.55965 -6.87958,-11.07234 -0.92261,-3.20028 -3.29929,-8.96868 -5.28152,-12.81868 -3.30703,-6.42313 -3.60404,-7.70048 -3.60404,-15.5 0,-7.79952 0.29701,-9.07687 3.60404,-15.5 1.98223,-3.85 4.36346,-9.63406 5.29164,-12.85347 0.92817,-3.21941 2.73694,-6.81941 4.01948,-8 1.28253,-1.18059 5.01207,-4.7013 8.28786,-7.82379 4.6364,-4.41943 7.24888,-6.05312 11.79149,-7.37369 3.20952,-0.93303 9.44257,-3.44077 13.85122,-5.572738 C 504.19644,95.579226 506.3776,95 511.97531,95 c 5.44128,0 7.82399,0.595631 13.75718,3.439037 3.94684,1.891473 10.2198,4.352183 13.93992,5.468243 5.46987,1.641 7.63888,2.94399 11.33775,6.81096 2.51565,2.62997 5.93411,5.97871 7.59659,7.44165 1.69795,1.49415 3.57725,4.56199 4.28806,7 0.69596,2.38706 3.14184,7.47835 5.43529,11.31399 l 4.1699,6.97387 v 13.04899 c 0,13.03869 -0.003,13.05301 -3.27734,18.15628 -1.80254,2.80901 -4.36682,7.8873 -5.6984,11.28508 -3.18163,8.11852 -12.91937,17.57845 -23.29753,22.63285 -5.21167,2.5382 -7.95876,4.58913 -9.69169,7.23565 -6.41736,9.80054 -5.53778,25.58804 1.67663,30.09352 1.08828,0.67964 4.46805,1.64087 7.5106,2.13605 6.95024,1.13119 10.02385,3.12659 12.00174,7.79161 1.35276,3.19061 1.38454,4.5247 0.24232,10.17222 -0.72305,3.575 -1.25432,9.65 -1.1806,13.5 0.7964,41.59381 0.72161,41.08432 6.49391,44.23965 2.99527,1.63731 10.38462,1.79958 105.72036,2.32167 70.38363,0.38545 103.49433,0.90502 105.67342,1.65823 1.74537,0.6033 6.02037,2.67351 9.5,4.60047 3.47962,1.92696 9.57268,4.45742 13.54012,5.62326 4.42338,1.29981 8.87153,3.45425 11.5,5.56997 2.35756,1.89765 6.68232,4.87026 9.61058,6.6058 2.97351,1.76235 6.37849,4.82575 7.71224,6.93854 1.31346,2.08066 4.01186,5.02151 5.99645,6.53523 1.98459,1.51372 4.66233,4.81209 5.95053,7.3297 1.28821,2.51761 4.38423,7.1905 6.88004,10.3842 5.02497,6.43005 4.9615,6.2825 7.01566,16.31029 0.80185,3.91436 2.84461,9.86406 4.53947,13.22156 1.77322,3.51273 3.49772,8.9825 4.06172,12.88299 1.42134,9.82958 1.35444,252.09182 -0.0718,259.84478 -0.60034,3.26351 -2.59333,9.19026 -4.42887,13.17054 -1.83554,3.98029 -4.09695,10.6512 -5.02537,14.82425 -1.34672,6.05326 -2.47843,8.5006 -5.5972,12.10406 -2.15005,2.48418 -4.78093,6.16327 -5.84641,8.17575 -4.02454,7.60157 -24.79725,26.85272 -32.57039,30.18468 -2.58893,1.10974 -6.38231,3.34447 -8.42974,4.96607 -5.17286,4.09699 -7.22927,4.74036 -26.51049,8.29416 l -17,3.13334 -230.5,0.15622 c -126.775,0.0859 -234.60559,-0.18502 -239.62352,-0.60207 z m 477.91204,-31.97112 c 19.13574,-2.5665 18.64368,-2.41578 26.27291,-8.04756 3.59182,-2.65144 8.54388,-5.79541 11.00457,-6.98661 2.86689,-1.38784 5.6153,-3.83655 7.65127,-6.81694 1.7475,-2.55811 5.01056,-6.45111 7.25124,-8.65111 3.11714,-3.06055 4.49986,-5.52661 5.88733,-10.5 0.99735,-3.575 3.4628,-11.675 5.47876,-18 L 824.5,675.5 V 551 426.5 l -3.13343,-7.5 c -1.72339,-4.125 -3.68628,-10.2 -4.36197,-13.5 -1.542,-7.53092 -2.2157,-8.82085 -7.8922,-15.11113 -2.53682,-2.81112 -5.57198,-6.18612 -6.74479,-7.5 -6.73314,-7.54298 -15.59637,-14.08634 -22.08587,-16.30509 -3.72996,-1.27527 -9.93174,-4.06582 -13.78174,-6.20122 l -7,-3.88256 h -248 -248 l -7,3.88256 c -3.85,2.1354 -10.07914,4.93526 -13.84252,6.22189 -5.34924,1.82881 -8.24886,3.6549 -13.28659,8.36745 -3.54424,3.31545 -6.85863,6.0281 -7.36532,6.0281 -0.5067,0 -2.05023,1.92644 -3.43008,4.28097 -1.37984,2.35453 -3.91399,5.61703 -5.63143,7.25 -5.44351,5.17578 -6.26833,7.83724 -10.99221,35.46903 -0.55036,3.2193 -0.94267,54.37736 -0.94606,123.36967 L 201,669.23934 l 2.53874,16.00491 c 2.76139,17.40851 3.40246,19.14214 10.50525,28.40918 2.62397,3.42349 5.60001,7.63348 6.61343,9.35552 1.01342,1.72205 4.99258,5.20574 8.84258,7.74154 3.85,2.5358 9.13082,6.29209 11.73515,8.34731 5.52202,4.35772 6.41643,4.59395 26.23725,6.92971 13.94306,1.64311 31.62661,1.77767 245.0276,1.86453 224.00514,0.0912 230.38546,0.0419 244.78852,-1.88982 z M 491.5,659.56158 c -3.3,-0.76151 -8.55229,-2.56626 -11.67175,-4.01056 -5.78394,-2.67793 -14.7632,-4.83596 -25.09938,-6.03227 -4.37346,-0.50618 -6.83708,-1.4816 -10.17252,-4.0276 -5.54631,-4.23359 -8.91261,-5.97379 -14.42437,-7.45665 -2.62125,-0.70521 -6.22036,-2.87412 -9,-5.42362 -2.54759,-2.33666 -6.65698,-5.40838 -9.13198,-6.82604 -8.76126,-5.01838 -20,-18.99049 -20,-24.86419 0,-3.232 6.55909,-13.39873 9.51234,-14.74432 4.06893,-1.85393 216.35998,-1.67435 220.81431,0.18679 1.79432,0.74972 5.15487,3.51307 7.46788,6.14079 3.49291,3.96816 4.20547,5.47857 4.20547,8.91437 0,2.27519 -0.64223,5.02434 -1.42719,6.10921 -4.01052,5.54292 -14.11794,14.8548 -19.6311,18.08598 -3.42496,2.00731 -7.90312,5.16375 -9.95147,7.01431 -2.04834,1.85056 -6.26639,4.4889 -9.37343,5.86298 -3.10703,1.37408 -7.89719,4.0447 -10.64477,5.93471 -4.83387,3.32511 -7.44479,4.11159 -21.97204,6.61861 -3.575,0.61695 -8.525,2.02877 -11,3.13737 -12.92188,5.78796 -14.57048,6.10026 -34,6.44062 -13.22776,0.23173 -20.20992,-0.0705 -24.5,-1.06049 z M 358.65539,515.01795 c -6.08057,-1.10353 -7.32982,-2.25612 -13.17604,-12.15652 -5.7609,-9.75592 -6.0711,-13.081 -1.97212,-21.13951 4.54628,-8.93791 9.54829,-14.98545 14.50051,-17.53144 3.82169,-1.96477 5.71103,-2.26331 12.65699,-2 11.17632,0.42369 15.04529,3.11365 21.21617,14.75088 6.22109,11.73192 6.08915,13.37825 -2.54317,31.73137 -0.8296,1.76382 -2.97257,3.87517 -4.82576,4.75457 -4.01572,1.90558 -19.03137,2.82931 -25.85658,1.59065 z m 285.19323,-0.34248 c -7.2189,-2.04275 -9.34696,-3.95361 -12.12153,-10.88436 -3.91479,-9.77897 -4.3012,-14.54233 -1.83764,-22.65304 1.82577,-6.01098 2.8622,-7.62435 7.79257,-12.13043 6.84442,-6.25541 8.63518,-7.00927 16.63308,-7.00206 10.46853,0.009 12.72583,1.12132 20.55855,10.12654 5.83129,6.70419 7.21726,8.9888 8.13503,13.40967 1.44639,6.96724 0.46672,11.69718 -3.37931,16.31556 -1.72115,2.06679 -4.24613,5.39467 -5.61105,7.39527 -1.36493,2.00061 -3.61493,4.16855 -5,4.81765 -3.77745,1.77025 -19.69957,2.1531 -25.1697,0.6052 z M 524.54543,180.3959 c 7.68463,-3.76369 8.11576,-4.16475 12.70457,-11.81832 6.56099,-10.94293 6.52396,-14.2786 -0.28125,-25.33669 -4.95098,-8.04508 -5.16665,-8.23983 -13.51935,-12.2082 C 518.78094,128.81471 513.51149,127 511.7395,127 c -3.47033,0 -16.86482,6.06721 -20.39911,9.24005 -1.18778,1.06631 -3.60308,5.94189 -5.36732,10.83462 l -3.20771,8.89589 2.36732,7.23382 c 3.4956,10.68152 5.20834,12.70436 14.87536,17.5686 10.36777,5.21686 13.2048,5.17326 24.53739,-0.37708 z"
     id="path4873"
     transform="matrix(0.31999999,0,0,0.31999999,-52.610231,-28.899999)"
     sodipodi:nodetypes="ssssssssssscssssssssssssssssssssssssssssssssssssssscscsssssssssssssssssssssssssssssscsssssssssscccsssssscccsssssssscsssssssssssssssssssssssssssssssssssssssssscssssssssssssscsss"
     inkscape:label="TillibotPath" /></svg>
