<?xml version="1.0" encoding="UTF-8" standalone="no"?>
<!-- Created with Inkscape (http://www.inkscape.org/) -->

<svg
   width="1024"
   height="1024"
   viewBox="0 0 1024 1023.9999"
   version="1.1"
   id="svg1863"
   inkscape:version="1.2 (dc2aedaf03, 2022-05-15)"
   sodipodi:docname="TapeHead_NoSpoke.svg"
   inkscape:export-filename="icon_192x192.png"
   inkscape:export-xdpi="96"
   inkscape:export-ydpi="96"
   xml:space="preserve"
   xmlns:inkscape="http://www.inkscape.org/namespaces/inkscape"
   xmlns:sodipodi="http://sodipodi.sourceforge.net/DTD/sodipodi-0.dtd"
   xmlns="http://www.w3.org/2000/svg"
   xmlns:svg="http://www.w3.org/2000/svg"><sodipodi:namedview
     id="namedview1865"
     pagecolor="#6c6c6c"
     bordercolor="#000000"
     borderopacity="0.25"
     inkscape:showpageshadow="2"
     inkscape:pageopacity="0"
     inkscape:pagecheckerboard="false"
     inkscape:deskcolor="#272727"
     inkscape:document-units="px"
     showgrid="true"
     inkscape:zoom="1.3739356"
     inkscape:cx="618.66073"
     inkscape:cy="547.33279"
     inkscape:window-width="1920"
     inkscape:window-height="1057"
     inkscape:window-x="1912"
     inkscape:window-y="-8"
     inkscape:window-maximized="1"
     inkscape:current-layer="svg1863"
     showguides="true"><inkscape:grid
       type="xygrid"
       id="grid4396"
       originx="902.00001"
       originy="647.99989" /><sodipodi:guide
       position="483.28318,536.34976"
       orientation="0,-1"
       id="guide3294"
       inkscape:locked="false" /><sodipodi:guide
       position="382.11396,471.57234"
       orientation="1,0"
       id="guide3296"
       inkscape:locked="false" /><sodipodi:guide
       position="633.94525,457.01562"
       orientation="1,0"
       id="guide3298"
       inkscape:locked="false" /><sodipodi:guide
       position="518.21933,398.78871"
       orientation="0,-1"
       id="guide6208"
       inkscape:locked="false" /></sodipodi:namedview><defs
     id="defs1860" /><path
     id="rect23044"
     style="display:inline;fill:#ffffff;fill-opacity:1;stroke:none;stroke-width:12.7846;stroke-linecap:square;stroke-miterlimit:6;stroke-dasharray:none;stroke-opacity:1;paint-order:markers stroke fill"
     inkscape:label="Outline"
     d="m 261.99911,351.99924 c 0,0 -22.50588,2.93938 -29.65159,9.47633 -8.52543,7.7991 -10.34653,30.52403 -10.34653,30.52403 v 100.48451 h -8.22777 c -18.84799,1.11719 -21.84833,4.80366 -22.17464,16.45239 0.0926,0.18688 0.13009,0.4374 0.19383,0.65914 h -41.95647 a 27.04544,22.667068 0 0 0 -24.13077,-12.43032 27.04544,22.667068 0 0 0 -27.044901,22.66662 27.04544,22.667068 0 0 0 27.044901,22.66662 27.04544,22.667068 0 0 0 24.43377,-13.05399 h 41.47301 c 0.38648,13.27145 4.58306,16.31549 30.38904,16.97149 v 101.58432 c 0,0 1.51155,21.68479 9.46649,29.29351 7.27067,6.95421 30.53163,10.70685 30.53163,10.70685 h 512.00177 c 0,0 22.75365,-4.29989 29.94345,-11.1998 7.85088,-7.53436 10.05467,-28.80056 10.05467,-28.80056 V 546.431 c 26.46977,-0.61795 30.77913,-3.59661 31.17995,-16.98643 h 41.23685 a 27.04544,22.667068 0 0 0 24.43154,13.05399 27.04544,22.667068 0 0 0 27.04491,-22.66662 27.04544,22.667068 0 0 0 -27.04491,-22.66662 27.04544,22.667068 0 0 0 -24.12185,12.43032 h -41.56436 c -0.36387,-12.28455 -3.65974,-16.03219 -23.79658,-17.11153 H 813.999 V 391.9996 c 0,0 -2.07771,-22.72294 -10.64062,-30.52403 -7.0999,-6.46825 -29.3575,-9.47633 -29.3575,-9.47633 z m 121.11723,95.58297 a 50.644929,42.446048 0 0 1 50.6432,42.44646 50.644929,42.446048 0 0 1 -50.6432,42.44646 50.644929,42.446048 0 0 1 -50.64542,-42.44646 50.644929,42.446048 0 0 1 50.64542,-42.44646 z"
     transform="matrix(0.87665254,0,0,1.0459868,49.89399,-23.913126)"
     sodipodi:insensitive="true" /><path
     id="path15100-1"
     style="display:inline;fill:#000000;fill-opacity:1;stroke:none;stroke-width:9.24822;stroke-linecap:square;stroke-linejoin:miter;stroke-dasharray:none;stroke-dashoffset:0;stroke-opacity:1;paint-order:markers stroke fill"
     inkscape:label="Antenna"
     inkscape:transform-center-x="-1.0997274e-05"
     inkscape:transform-center-y="4.8440962e-06"
     d="m -263.52838,332.33367 c 0,84.02969 34.58438,168.06017 103.74841,196.76207 57.07603,23.68559 139.206987,37.5712 225.702648,41.71079 0.898766,26.67685 6.997808,27.82046 42.384062,27.73108 v 41.59476 a 42.063729,17.704918 0 0 0 -29.253624,16.85817 42.063729,17.704918 0 0 0 42.064654,17.70531 42.063729,17.704918 0 0 0 42.06466,-17.70531 42.063729,17.704918 0 0 0 -28.9736,-16.81949 v -41.62976 c 33.21756,0.0406 39.03045,-2.13054 40.03012,-27.63531 87.35771,-3.99839 170.46778,-17.91003 228.06097,-41.81024 138.32804,-57.4038 138.32804,-336.12034 0,-393.52414 C 344.70673,111.67139 261.59666,97.759755 174.23895,93.761359 173.27485,67.956224 167.56085,65.698511 134.20883,65.739311 V 24.113235 A 42.063729,17.704918 0 0 0 163.18243,7.2900612 42.063729,17.704918 0 0 0 121.11777,-10.415247 42.063729,17.704918 0 0 0 79.053116,7.2900612 42.063729,17.704918 0 0 0 108.30674,24.148226 V 65.742994 C 73.078237,65.654003 67.076964,67.527829 66.062689,93.855282 -20.483965,97.986624 -102.67338,111.87332 -159.77997,135.5716 -228.944,164.2735 -263.52838,248.30398 -263.52838,332.33367 Z m 215.354944,111.62779 a 99.459586,41.863237 0 0 1 99.460554,-41.8618 99.459586,41.863237 0 0 1 99.460552,41.8618 99.459586,41.863237 0 0 1 -99.460552,41.86364 99.459586,41.863237 0 0 1 -99.460554,-41.86364 z"
     transform="matrix(0,0.44639242,-1.0605488,0,856.5967,465.75621)"
     sodipodi:insensitive="true" /><path
     id="rect23044-1"
     style="display:inline;fill:#000000;fill-opacity:1;stroke:none;stroke-width:26.4235;stroke-linecap:square;stroke-miterlimit:6;stroke-dasharray:none;stroke-opacity:1;paint-order:markers stroke fill"
     inkscape:label="TapeHeadOuter"
     d="m 261.9993,352.00065 c 0,0 -24.22408,0.2252 -31.99867,7.99979 -7.77459,7.77459 -8.0008,31.99915 -8.0008,31.99915 v 256.0008 c 0,0 0.22621,24.22456 8.0008,31.99915 7.77459,7.77459 31.99867,7.99979 31.99867,7.99979 l 510.21517,1.0045 c 0,0 24.81344,-3.21344 32.59484,-10.51009 8.74847,-8.20348 10.08285,-32.00105 10.08285,-32.00105 l -0.89198,-254.4931 c 0,0 -0.22621,-24.22456 -8.0008,-31.99915 -7.7746,-7.77459 -31.99868,-7.99979 -31.99868,-7.99979 z m 119.28483,94.07612 a 51.332874,43.328422 0 0 1 51.33112,43.32885 51.332874,43.328422 0 0 1 -51.33112,43.32884 51.332874,43.328422 0 0 1 -51.33337,-43.32884 51.332874,43.328422 0 0 1 51.33337,-43.32885 z"
     transform="matrix(0.86490395,0,0,1.0246855,55.979752,-12.83645)"
     sodipodi:insensitive="true" /><path
     id="rect23044-7"
     style="display:inline;stroke:#ffffff;stroke-width:7.13426;stroke-linecap:square;stroke-miterlimit:6;stroke-dasharray:none;paint-order:markers stroke fill"
     inkscape:label="TapeHeadInner"
     d="m 778.22695,351.89957 c -2.58587,0.0135 -4.22602,0.10131 -4.22602,0.10131 H 262.00115 c 0,0 -25.60086,-1.17004 -33.51438,6.01352 -9.10984,8.26956 -6.48711,33.98616 -6.48711,33.98616 v 255.99839 c 0,0 -3.5418,26.26044 5.73263,34.64667 8.06863,7.29589 34.26886,5.35504 34.26886,5.35504 h 511.99978 c 0,0 24.87198,2.09966 32.7552,-4.6925 9.73796,-8.39016 7.24394,-35.30921 7.24394,-35.30921 V 392.00056 c 0,0 3.28311,-25.68329 -5.73028,-33.98616 -6.01747,-5.54311 -22.28522,-6.15532 -30.04284,-6.11483 z m -402.1467,89.75717 a 53.428814,46.057339 0 0 1 53.42699,46.05779 53.428814,46.057339 0 0 1 -53.42699,46.05778 53.428814,46.057339 0 0 1 -53.42933,-46.05778 53.428814,46.057339 0 0 1 53.42933,-46.05779 z"
     transform="matrix(0.83097494,0,0,0.96397244,73.24064,18.507028)"
     sodipodi:insensitive="true" /><g
     inkscape:groupmode="layer"
     id="layer7"
     inkscape:label="RightEyewheel"
     inkscape:highlight-color="#d00fd0"
     style="display:inline"
     transform="translate(-11.322474)"><circle
       style="display:inline;fill:#060606;fill-opacity:1;stroke:#ffffff;stroke-width:4.58932;stroke-linecap:round;stroke-miterlimit:6;stroke-dasharray:none;stroke-opacity:1;paint-order:markers stroke fill"
       id="path29138-3-3"
       cx="665.30963"
       cy="448.90515"
       r="11.401476"
       transform="matrix(1.7065429,0,0,1.7065429,-490.25101,-277.93825)"
       sodipodi:insensitive="true" /><circle
       style="display:inline;fill:none;fill-opacity:1;stroke:#ac00ff;stroke-width:2.85383;stroke-linecap:round;stroke-miterlimit:6;stroke-dasharray:none;stroke-opacity:1;paint-order:markers stroke fill"
       id="path29138-3"
       cx="665.30963"
       cy="448.90515"
       r="11.401476"
       transform="matrix(2.7443391,0,0,2.7443391,-1180.7067,-743.81025)"
       sodipodi:insensitive="true" /></g><g
     id="g34966"
     transform="rotate(123.51507,396.99977,504.4364)"
     inkscape:label="LeftEyewheel"
     style="display:inline"
     inkscape:highlight-color="#f623ff"
     sodipodi:insensitive="true"><g
       inkscape:groupmode="layer"
       id="layer6"
       inkscape:label="Spokes"
       style="display:none;fill:#fcfcfc;fill-opacity:1;stroke:#000000;stroke-width:3;stroke-dasharray:none;stroke-opacity:1"
       transform="matrix(-0.13884792,-0.80486201,0.80486201,-0.13884792,42.98035,895.20572)"><rect
         style="fill:#fcfcfc;fill-opacity:1;stroke:#ffffff;stroke-width:3;stroke-linecap:round;stroke-miterlimit:6;stroke-dasharray:none;stroke-opacity:1;paint-order:markers fill stroke"
         id="rect36155"
         width="10.807816"
         height="75.654709"
         x="392.68396"
         y="467.30936"
         transform="matrix(1.3495207,-0.00423638,-0.00443042,1.146682,-157.48467,-81.833421)"
         inkscape:label="Spoke2" /><rect
         style="display:inline;fill:#fcfcfc;fill-opacity:1;stroke:#ffffff;stroke-width:3;stroke-linecap:round;stroke-miterlimit:6;stroke-dasharray:none;stroke-opacity:1;paint-order:markers fill stroke"
         id="rect36155-7"
         width="10.807816"
         height="75.654709"
         x="392.68396"
         y="467.30936"
         transform="matrix(0.00762937,1.5450576,-1.1392106,-0.00797883,949.92513,-115.32699)"
         inkscape:label="Spoke1" /><circle
         style="display:inline;fill:#060606;fill-opacity:1;stroke:#ffffff;stroke-width:2.89683;stroke-linecap:round;stroke-miterlimit:6;stroke-dasharray:none;stroke-opacity:1;paint-order:markers fill stroke"
         id="path29138-3-3-9"
         cx="665.30963"
         cy="448.90515"
         r="11.401476"
         transform="matrix(2.2720551,-0.99865049,0.99865049,2.2720551,-1582.3609,140.1642)"
         inkscape:label="SpokeCenter" /></g><rect
       style="display:inline;fill:#ffffff;fill-opacity:1;stroke:none;stroke-width:12;stroke-linecap:round;stroke-miterlimit:6;stroke-dasharray:none;stroke-opacity:1;paint-order:markers stroke fill"
       id="rect32839"
       width="6"
       height="123.30209"
       x="340.81967"
       y="555.17566"
       transform="matrix(-0.63718723,-0.96213496,1.3025703,-0.86264518,-72.895786,1390.8692)"
       inkscape:label="MonacleTape" /><circle
       style="display:inline;fill:none;fill-opacity:1;stroke:#ffffff;stroke-width:1.09278;stroke-linecap:round;stroke-miterlimit:6;stroke-dasharray:none;stroke-opacity:1;paint-order:markers stroke fill"
       id="path29138-5"
       cx="665.30963"
       cy="448.90515"
       r="11.401476"
       transform="matrix(-3.4985308,-5.2826841,5.2826841,-3.4985308,345.51917,5607.3524)"
       inkscape:label="ReelOuter" /><circle
       style="display:inline;fill:none;fill-opacity:1;stroke:#ffffff;stroke-width:1.0544;stroke-linecap:round;stroke-miterlimit:6;stroke-dasharray:none;stroke-opacity:1;paint-order:markers stroke fill"
       id="path29138-3-3-9-4"
       cx="665.30963"
       cy="448.90515"
       r="11.401476"
       transform="matrix(-2.1703254,-3.277131,3.277131,-2.1703254,362.3363,3677.0747)"
       inkscape:label="ReelInner" /><circle
       style="display:inline;fill:none;fill-opacity:1;stroke:#ac00ff;stroke-width:1.09874;stroke-linecap:round;stroke-miterlimit:6;stroke-dasharray:none;stroke-opacity:1;paint-order:markers stroke fill"
       id="path34829-0-9-4"
       cx="399.28293"
       cy="505.11697"
       r="20.311583"
       transform="matrix(3.1508879,0,0,3.1508879,-868.6952,-1069.204)"
       inkscape:label="TapeLoop2" /><circle
       style="display:inline;fill:none;fill-opacity:1;stroke:#ac00ff;stroke-width:1.11706;stroke-linecap:round;stroke-miterlimit:6;stroke-dasharray:none;stroke-opacity:1;paint-order:markers stroke fill"
       id="path34829-0-9-4-4-9"
       cx="399.28293"
       cy="505.11697"
       r="20.311583"
       transform="matrix(2.6856273,0,0,2.6856273,-682.92456,-834.19327)"
       inkscape:label="TapeLoop1" /><circle
       style="display:inline;fill:#ffffff;fill-opacity:1;stroke:#000000;stroke-width:4.58932;stroke-linecap:round;stroke-miterlimit:6;stroke-dasharray:none;stroke-opacity:1;paint-order:markers stroke fill"
       id="path29138-3-3-6"
       cx="665.30963"
       cy="448.90515"
       r="11.401476"
       transform="matrix(-0.59601983,-0.89997335,0.89997335,-0.59601983,382.05393,1388.8151)"
       inkscape:label="WheelCore" /></g><g
     inkscape:groupmode="layer"
     id="layer8"
     inkscape:label="Mouth"
     inkscape:highlight-color="#00bfff"
     style="display:inline"
     transform="translate(20.455672,7.0979518)"
     sodipodi:insensitive="true"><path
       id="rect31554-2"
       style="display:inline;fill:#000000;fill-opacity:1;stroke:#ffffff;stroke-width:3.48641;stroke-linecap:round;stroke-miterlimit:6;stroke-dasharray:none;stroke-opacity:1;paint-order:markers stroke fill"
       d="m 616.13304,465.14346 a 3.1298169,3.9304677 0 0 0 -3.12934,3.93241 3.1298169,3.9304677 0 0 0 0.0223,0.39681 h -0.0284 v 25.03924 h 0.0446 a 3.1298169,3.9304677 0 0 0 -0.0385,0.61047 3.1298169,3.9304677 0 0 0 3.12934,3.92986 3.1298169,3.9304677 0 0 0 3.12934,-3.92986 3.1298169,3.9304677 0 0 0 -0.0385,-0.61047 h 0.0324 v -25.03924 h -0.0162 a 3.1298169,3.9304677 0 0 0 0.0223,-0.39681 3.1298169,3.9304677 0 0 0 -3.12934,-3.93241 z"
       transform="matrix(1.4461766,0,0,1.0239594,-457.21144,130.76314)"
       inkscape:label="SpectrumTooth" /><path
       id="rect31554-2-4"
       style="display:inline;fill:#000000;fill-opacity:1;stroke:#ffffff;stroke-width:3.48641;stroke-linecap:round;stroke-miterlimit:6;stroke-dasharray:none;stroke-opacity:1;paint-order:markers stroke fill"
       d="m 616.13304,465.14346 a 3.1298169,3.9304677 0 0 0 -3.12934,3.93241 3.1298169,3.9304677 0 0 0 0.0223,0.39681 h -0.0284 v 25.03924 h 0.0446 a 3.1298169,3.9304677 0 0 0 -0.0385,0.61047 3.1298169,3.9304677 0 0 0 3.12934,3.92986 3.1298169,3.9304677 0 0 0 3.12934,-3.92986 3.1298169,3.9304677 0 0 0 -0.0385,-0.61047 h 0.0324 v -25.03924 h -0.0162 a 3.1298169,3.9304677 0 0 0 0.0223,-0.39681 3.1298169,3.9304677 0 0 0 -3.12934,-3.93241 z"
       transform="matrix(1.4461766,0,0,1.0239594,-433.21144,130.76314)"
       inkscape:label="SpectrumTooth" /><path
       id="rect31554-2-4-8"
       style="display:inline;fill:#000000;fill-opacity:1;stroke:#ffffff;stroke-width:3.48641;stroke-linecap:round;stroke-miterlimit:6;stroke-dasharray:none;stroke-opacity:1;paint-order:markers stroke fill"
       d="m 616.13304,465.14346 a 3.1298169,3.9304677 0 0 0 -3.12934,3.93241 3.1298169,3.9304677 0 0 0 0.0223,0.39681 h -0.0284 v 25.03924 h 0.0446 a 3.1298169,3.9304677 0 0 0 -0.0385,0.61047 3.1298169,3.9304677 0 0 0 3.12934,3.92986 3.1298169,3.9304677 0 0 0 3.12934,-3.92986 3.1298169,3.9304677 0 0 0 -0.0385,-0.61047 h 0.0324 v -25.03924 h -0.0162 a 3.1298169,3.9304677 0 0 0 0.0223,-0.39681 3.1298169,3.9304677 0 0 0 -3.12934,-3.93241 z"
       transform="matrix(1.4461766,0,0,1.0239594,-409.21144,130.76314)"
       inkscape:label="SpectrumTooth" /><path
       id="rect31554-2-4-8-8"
       style="display:inline;fill:#000000;fill-opacity:1;stroke:#ffffff;stroke-width:3.48641;stroke-linecap:round;stroke-miterlimit:6;stroke-dasharray:none;stroke-opacity:1;paint-order:markers stroke fill"
       d="m 616.13304,465.14346 a 3.1298169,3.9304677 0 0 0 -3.12934,3.93241 3.1298169,3.9304677 0 0 0 0.0223,0.39681 h -0.0284 v 25.03924 h 0.0446 a 3.1298169,3.9304677 0 0 0 -0.0385,0.61047 3.1298169,3.9304677 0 0 0 3.12934,3.92986 3.1298169,3.9304677 0 0 0 3.12934,-3.92986 3.1298169,3.9304677 0 0 0 -0.0385,-0.61047 h 0.0324 v -25.03924 h -0.0162 a 3.1298169,3.9304677 0 0 0 0.0223,-0.39681 3.1298169,3.9304677 0 0 0 -3.12934,-3.93241 z"
       transform="matrix(1.4461766,0,0,1.0239594,-385.21144,130.76314)"
       inkscape:label="SpectrumTooth" /><path
       id="rect31554-2-4-8-8-4"
       style="display:inline;fill:#000000;fill-opacity:1;stroke:#ffffff;stroke-width:3.48641;stroke-linecap:round;stroke-miterlimit:6;stroke-dasharray:none;stroke-opacity:1;paint-order:markers stroke fill"
       d="m 616.13304,465.14346 a 3.1298169,3.9304677 0 0 0 -3.12934,3.93241 3.1298169,3.9304677 0 0 0 0.0223,0.39681 h -0.0284 v 25.03924 h 0.0446 a 3.1298169,3.9304677 0 0 0 -0.0385,0.61047 3.1298169,3.9304677 0 0 0 3.12934,3.92986 3.1298169,3.9304677 0 0 0 3.12934,-3.92986 3.1298169,3.9304677 0 0 0 -0.0385,-0.61047 h 0.0324 v -25.03924 h -0.0162 a 3.1298169,3.9304677 0 0 0 0.0223,-0.39681 3.1298169,3.9304677 0 0 0 -3.12934,-3.93241 z"
       transform="matrix(1.4461766,0,0,1.0239594,-361.21144,130.76314)"
       inkscape:label="SpectrumTooth" /><path
       id="rect31554-2-4-8-8-4-8"
       style="display:inline;fill:#000000;fill-opacity:1;stroke:#ffffff;stroke-width:3.48641;stroke-linecap:round;stroke-miterlimit:6;stroke-dasharray:none;stroke-opacity:1;paint-order:markers stroke fill"
       d="m 616.13304,465.14346 a 3.1298169,3.9304677 0 0 0 -3.12934,3.93241 3.1298169,3.9304677 0 0 0 0.0223,0.39681 h -0.0284 v 25.03924 h 0.0446 a 3.1298169,3.9304677 0 0 0 -0.0385,0.61047 3.1298169,3.9304677 0 0 0 3.12934,3.92986 3.1298169,3.9304677 0 0 0 3.12934,-3.92986 3.1298169,3.9304677 0 0 0 -0.0385,-0.61047 h 0.0324 v -25.03924 h -0.0162 a 3.1298169,3.9304677 0 0 0 0.0223,-0.39681 3.1298169,3.9304677 0 0 0 -3.12934,-3.93241 z"
       transform="matrix(1.4461766,0,0,1.0239594,-337.21144,130.76314)"
       inkscape:label="SpectrumTooth" /></g></svg>
