<?xml version="1.0" encoding="UTF-8" standalone="no"?>
<!-- Created with Inkscape (http://www.inkscape.org/) -->

<svg
   width="141.51483"
   height="139.03453"
   viewBox="0 0 141.51483 139.03453"
   version="1.1"
   id="svg1863"
   inkscape:version="1.2 (dc2aedaf03, 2022-05-15)"
   sodipodi:docname="gyro.svg"
   inkscape:export-filename="inkscape_map.png"
   inkscape:export-xdpi="96"
   inkscape:export-ydpi="96"
   xml:space="preserve"
   xmlns:inkscape="http://www.inkscape.org/namespaces/inkscape"
   xmlns:sodipodi="http://sodipodi.sourceforge.net/DTD/sodipodi-0.dtd"
   xmlns="http://www.w3.org/2000/svg"
   xmlns:svg="http://www.w3.org/2000/svg"><sodipodi:namedview
     id="namedview1865"
     pagecolor="#6c6c6c"
     bordercolor="#000000"
     borderopacity="0.25"
     inkscape:showpageshadow="2"
     inkscape:pageopacity="0"
     inkscape:pagecheckerboard="false"
     inkscape:deskcolor="#272727"
     inkscape:document-units="px"
     showgrid="true"
     inkscape:zoom="3.162963"
     inkscape:cx="100.0644"
     inkscape:cy="82.833722"
     inkscape:window-width="1920"
     inkscape:window-height="1057"
     inkscape:window-x="1912"
     inkscape:window-y="-8"
     inkscape:window-maximized="1"
     inkscape:current-layer="svg1863"
     showguides="true"><inkscape:grid
       type="xygrid"
       id="grid4396"
       originx="845.69515"
       originy="351.94316" /></sodipodi:namedview><defs
     id="defs1860" /><path
     style="fill:#fefefe;fill-opacity:1;stroke:#000000;stroke-width:9.375;stroke-dasharray:none;stroke-opacity:1"
     d="m 178,491.33629 c -0.825,-0.23744 -2.32821,-2.21789 -3.34048,-4.40099 -1.73005,-3.73115 -1.74784,-4.4235 -0.29651,-11.54034 1.21557,-5.96077 1.28969,-7.97821 0.34848,-9.48532 -0.65751,-1.05285 -2.54908,-2.32322 -4.20348,-2.82306 -1.65441,-0.49984 -7.8637,-1.1496 -13.79843,-1.44392 -8.86466,-0.43961 -11.7293,-0.99447 -16.05115,-3.10895 -2.8934,-1.41561 -7.93771,-3.0122 -11.20958,-3.54798 -3.27187,-0.53578 -8.02447,-0.97675 -10.56135,-0.97994 -3.59592,-0.005 -5.42999,-0.65546 -8.32176,-2.95355 -2.48433,-1.97429 -6.17886,-3.49718 -11.187512,-4.6115 -5.853486,-1.30228 -7.837688,-2.21233 -9.132641,-4.18868 -0.909917,-1.38871 -3.075302,-3.11862 -4.811967,-3.84424 -2.530693,-1.05739 -3.282057,-2.0726 -3.784591,-5.11357 -0.34486,-2.08684 -0.627018,-5.59425 -0.627018,-7.79425 0,-2.2 0.284725,-5.72323 0.632721,-7.8294 0.479392,-2.9014 1.261849,-4.06859 3.228847,-4.81644 1.42787,-0.54287 3.950693,-2.4561 5.606274,-4.25161 2.362602,-2.5623 4.349901,-3.52594 9.238063,-4.47954 3.973014,-0.77507 7.370984,-2.17679 9.385004,-3.87148 2.70503,-2.27613 4.73526,-2.83647 14.17878,-3.91334 8.03498,-0.91624 12.49423,-1.97726 16.45571,-3.91543 4.95877,-2.42611 7.15336,-2.76203 25.0933,-3.84104 11.26768,-0.67769 20.60466,-1.70145 21.87404,-2.39838 1.22556,-0.67288 2.67751,-2.88357 3.25086,-4.94966 0.68599,-2.47198 1.12031,-50.26339 1.28526,-141.42673 L 191.5,102.11391 l 2.21243,-2.06092 c 1.21684,-1.133496 2.90434,-4.3908 3.75,-7.238449 0.84567,-2.847649 1.54042,-5.658368 1.54389,-6.246042 0.003,-0.587675 1.35755,-1.837404 3.00904,-2.777177 1.6515,-0.939773 3.42287,-2.813767 3.9364,-4.164431 0.51352,-1.350664 1.97195,-2.758212 3.24096,-3.127883 1.269,-0.369672 4.75356,-2.320678 7.74345,-4.335569 L 222.37235,68.5 h 74.24816 74.24816 l 2.81567,2.635838 c 1.54861,1.449712 4.39066,3.416477 6.31566,4.37059 1.925,0.954112 4.33538,2.467985 5.35641,3.364161 1.02102,0.896176 2.76016,3.429411 3.86474,5.629411 1.10458,2.2 3.1063,4.9 4.44828,6 2.12087,1.738456 2.56002,3.242334 3.35816,11.5 0.50502,5.225 0.93041,69.44684 0.94531,142.7152 L 398,377.93041 l 3.18812,3.63107 c 1.75347,1.99709 4.34097,4.10367 5.75,4.68129 1.40904,0.57762 11.1843,1.60659 21.72281,2.2866 17.38005,1.12146 19.67132,1.48609 24.65231,3.92306 4.27988,2.09395 8.20239,2.96296 17.77969,3.93898 7.70873,0.78559 12.43798,1.70133 12.68993,2.45718 0.2209,0.66269 2.14219,2.09285 4.26955,3.17815 2.12735,1.08529 4.94069,1.97326 6.25186,1.97326 1.43821,0 5.5956,2.58128 10.47956,6.50663 7.45539,5.99208 8.14882,6.86146 8.76843,10.99333 0.37006,2.46768 0.37911,6.05233 0.0201,7.96589 -0.49569,2.64229 -2.31867,4.97078 -7.57844,9.67997 -5.91263,5.29371 -7.90792,6.44801 -13.6401,7.89097 -4.34565,1.09393 -7.36467,2.49331 -8.55774,3.96669 -1.57586,1.9461 -3.25493,2.40422 -11.56974,3.1567 -5.3495,0.48413 -11.30136,1.3836 -13.22636,1.99883 -1.925,0.61523 -4.697,1.95794 -6.16,2.98381 -2.04216,1.43197 -5.17785,1.99277 -13.5,2.41441 -5.962,0.30207 -12.35138,0.77983 -14.19863,1.06169 -1.84725,0.28185 -4.4156,1.65296 -5.70746,3.04689 -2.17592,2.34786 -2.23681,2.70537 -0.82711,4.85685 0.83695,1.27733 1.7736,4.76295 2.08146,7.74582 0.41286,4.00027 0.14597,6.05422 -1.01712,7.82745 -0.86728,1.32224 -3.16746,3.2594 -5.11151,4.30481 l -3.53464,1.90074 -1.9786,-2.51538 c -1.08823,-1.38346 -3.28548,-3.05671 -4.88278,-3.71833 -1.59729,-0.66162 -3.39304,-2.27589 -3.99054,-3.58726 -0.5975,-1.31137 -2.36826,-3.04721 -3.93503,-3.85741 -1.56677,-0.81021 -3.38075,-2.64089 -4.03106,-4.06818 -0.65032,-1.42729 -2.321,-3.02797 -3.71262,-3.55707 -1.39163,-0.52909 -2.94091,-2.04216 -3.44285,-3.36238 -0.50195,-1.32021 -2.29388,-3.38393 -3.98207,-4.58602 C 378.49574,461.21681 378,460.19987 378,456.75291 c 0,-3.29552 0.64462,-4.76431 3.25,-7.40519 1.7875,-1.81186 4.375,-4.43929 5.75,-5.83874 1.375,-1.39945 3.06554,-3.09898 3.75675,-3.77672 0.69121,-0.67774 4.29121,-4.27541 8,-7.99481 3.70879,-3.7194 7.69061,-7.6569 8.84849,-8.75 1.44948,-1.36838 3.48742,-1.98745 6.54259,-1.98745 4.41621,0 4.44312,0.0215 5.64477,4.51435 0.66407,2.48289 1.2074,6.02221 1.2074,7.86514 0,1.92294 0.92365,4.52502 2.16756,6.1064 2.07724,2.64078 2.46273,2.73632 9.25,2.29268 4.69043,-0.30658 8.94,-1.323 12.58244,-3.00947 4.16733,-1.92951 7.85889,-2.6993 15.23526,-3.17697 5.3544,-0.34673 10.97858,-1.10313 12.49817,-1.68088 1.5196,-0.57775 3.55123,-1.76388 4.51474,-2.63584 1.14851,-1.03939 1.75183,-3.05718 1.75183,-5.85897 0,-2.64348 -0.63135,-4.90493 -1.65518,-5.92876 -0.91035,-0.91035 -2.80861,-2.09371 -4.21837,-2.6297 -1.40975,-0.53599 -7.52742,-1.39975 -13.59482,-1.91946 -8.0492,-0.68947 -12.54865,-1.61828 -16.64288,-3.43553 -3.60563,-1.60039 -8.96705,-2.84405 -15,-3.47947 -5.16381,-0.54387 -13.07196,-0.99666 -17.57365,-1.00619 -4.5017,-0.01 -9.32663,0.41675 -10.72207,0.9473 -1.39544,0.53055 -2.80935,2.04909 -3.14202,3.37453 -0.33266,1.32545 -1.71861,2.91737 -3.07989,3.53761 -1.36127,0.62024 -3.09684,2.61588 -3.85682,4.43476 -0.75998,1.81888 -2.54322,3.83625 -3.96277,4.48304 -1.41954,0.64678 -3.08808,2.28893 -3.70786,3.6492 -0.88561,1.9437 -2.32767,2.71584 -6.73528,3.60636 -3.08461,0.62322 -7.63339,2.3294 -10.10839,3.7915 L 360.5,437.5 H 296 231.5 l -3.5,-2.19922 c -1.925,-1.20957 -5.99454,-2.84823 -9.04343,-3.64147 -4.45118,-1.15808 -6.8807,-2.68799 -12.33049,-7.76473 -3.79701,-3.5371 -7.74285,-8.32085 -8.95657,-10.85853 -1.92809,-4.03128 -2.6632,-4.6397 -6.60597,-5.46747 -2.8158,-0.59116 -10.02815,-0.5439 -19.74331,0.12938 -13.15403,0.9116 -16.05402,1.42635 -20.61939,3.65998 -4.11521,2.01338 -7.86048,2.82278 -16.61759,3.59124 -6.98426,0.6129 -12.6959,1.67214 -14.94414,2.77144 -3.58343,1.75215 -3.63911,1.87119 -3.63911,7.77938 0,5.87427 0.0733,6.03479 3.5,7.66009 2.04396,0.96948 8.28412,2.06468 15,2.63263 9.00132,0.76123 12.34198,1.47011 15.37515,3.26253 2.84716,1.6825 5.89787,2.40182 11.5,2.71154 6.7449,0.37291 7.88451,0.17538 9.87485,-1.71157 1.63387,-1.549 2.25,-3.27711 2.25,-6.31074 0,-2.29769 0.73614,-6.10516 1.63586,-8.46105 1.6091,-4.21336 1.71352,-4.28343 6.38337,-4.28343 3.88035,0 4.84149,0.35937 5.26201,1.96748 0.28298,1.08211 2.0917,2.71959 4.01938,3.63883 1.92767,0.91925 3.992,2.74051 4.58739,4.04725 0.59539,1.30674 2.18375,2.87764 3.52967,3.49089 1.34593,0.61324 2.95723,2.34646 3.58068,3.85158 0.62344,1.50513 2.29282,3.35703 3.70974,4.11534 1.41691,0.75831 3.64288,3.06847 4.9466,5.13369 1.30371,2.06522 3.03974,3.75494 3.85784,3.75494 1.11913,0 1.48746,1.24343 1.48746,5.02144 0,4.34857 -0.32594,5.16995 -2.43241,6.12972 -1.33783,0.60955 -2.97621,2.42113 -3.64086,4.02572 -0.66464,1.60459 -2.51439,3.59277 -4.11054,4.41817 -1.59616,0.82541 -3.30774,2.56763 -3.80352,3.87162 -0.49577,1.30398 -2.15077,2.96992 -3.67777,3.7021 -1.527,0.73218 -3.32514,2.4322 -3.99586,3.77782 -0.67072,1.34563 -2.70889,3.1461 -4.52927,4.00105 -1.82037,0.85495 -3.75398,2.56649 -4.2969,3.80341 -0.67325,1.53385 -1.78614,2.21207 -3.5,2.13295 -1.38208,-0.0638 -3.18787,-0.31027 -4.01287,-0.54771 z m 91.63964,-81.03664 c 0.37276,-1.4852 0.17913,-5.1977 -0.43028,-8.25 -0.67459,-3.37873 -0.78636,-7.22768 -0.28572,-9.83929 0.45227,-2.3593 0.99197,-4.43 1.19933,-4.60154 0.20737,-0.17155 1.90668,-0.82871 3.77625,-1.46036 C 276.00541,385.43686 284.83538,385 297.1121,385 h 19.81365 l 3.93967,4.10002 c 2.16682,2.25501 4.17464,5.29251 4.46182,6.75 0.39438,2.00146 -0.19359,3.39581 -2.40254,5.69759 -1.90681,1.98694 -2.9247,4.09253 -2.9247,6.05 0,1.65131 0.54,3.54239 1.2,4.20239 0.85356,0.85356 6.99036,1.2 21.2566,1.2 11.03113,0 21.51695,-0.41882 23.30181,-0.93071 1.78486,-0.51189 4.87059,-2.64939 6.85718,-4.75 1.98659,-2.10061 4.01078,-4.86108 4.4982,-6.13439 0.48741,-1.2733 0.88621,-5.2553 0.88621,-8.84887 0,-3.94982 -0.64031,-7.88313 -1.61908,-9.94574 -0.90394,-1.9049 -2.60974,-3.6606 -3.86191,-3.97487 -1.23355,-0.30961 -14.56746,-0.27908 -29.63092,0.0678 -15.06345,0.34691 -36.16309,0.63017 -46.88809,0.62947 -10.725,-7e-4 -31.99283,-0.28359 -47.26185,-0.62865 l -27.76185,-0.62736 -2.08941,2.34574 c -1.14917,1.29015 -2.70588,4.13489 -3.45935,6.32164 -0.93607,2.71672 -1.08819,4.92602 -0.4803,6.97591 0.4893,1.65 1.37187,5.67946 1.96126,8.95435 0.5894,3.27489 1.70133,6.58405 2.47096,7.35368 0.76963,0.76963 2.9116,1.75661 4.75993,2.19329 1.84834,0.43667 12.68954,0.84002 24.09156,0.89632 L 268.9619,413 Z M 375.54545,355.54545 378,353.09091 V 253.01334 c 0,-81.57403 -0.2487,-100.67254 -1.3451,-103.29546 -0.7398,-1.76983 -2.15863,-3.89288 -3.15296,-4.71788 -1.56391,-1.29759 -11.83119,-1.54013 -76.08609,-1.79739 l -74.27822,-0.29739 -3.31881,2.96519 -3.31882,2.9652 -0.27944,101.33219 c -0.1537,55.73271 -0.051,102.27157 0.22826,103.41969 0.27924,1.14811 1.52999,2.58016 2.77944,3.18232 1.58032,0.76161 25.34076,1.11543 78.06719,1.16251 l 75.79546,0.0677 2.45454,-2.45455 z m 0.89785,-234.76796 c 1.02481,-1.46312 1.55479,-4.45281 1.55112,-8.75 -0.003,-3.59012 -0.47402,-8.21427 -1.04656,-10.27589 -0.70317,-2.531993 -1.98265,-4.235351 -3.94278,-5.248971 -1.59598,-0.825317 -4.16253,-2.844026 -5.70343,-4.486021 -2.01546,-2.147678 -4.31319,-3.270435 -8.18814,-4.001027 -3.28549,-0.619454 -27.66358,-0.982668 -62.5,-0.931198 -31.41243,0.04641 -59.65812,0.402901 -62.76819,0.792202 -4.5135,0.564974 -6.23295,1.326862 -8.5201,3.775261 -1.57598,1.687094 -3.85883,3.382741 -5.07301,3.768107 -1.54274,0.489646 -2.51565,1.962466 -3.23045,4.890357 -0.56257,2.30433 -1.47261,5.57164 -2.02231,7.26069 -0.5497,1.68905 -0.99945,4.66084 -0.99945,6.60398 0,2.36415 0.81128,4.40836 2.45225,6.179 L 218.9045,123 h 77.99105 77.99104 z"
     id="path2736"
     transform="matrix(0.32,0,0,0.31999998,-24.427044,-20.419999)" /></svg>
