<?xml version="1.0" encoding="UTF-8" standalone="no"?>
<!-- Created with Inkscape (http://www.inkscape.org/) -->

<svg
   width="73.724472"
   height="73.403297"
   viewBox="0 0 73.724472 73.40329"
   version="1.1"
   id="svg1863"
   inkscape:version="1.2 (dc2aedaf03, 2022-05-15)"
   sodipodi:docname="TapeHead_SpokeOnly.svg"
   inkscape:export-filename="icon_192x192.png"
   inkscape:export-xdpi="96"
   inkscape:export-ydpi="96"
   xml:space="preserve"
   xmlns:inkscape="http://www.inkscape.org/namespaces/inkscape"
   xmlns:sodipodi="http://sodipodi.sourceforge.net/DTD/sodipodi-0.dtd"
   xmlns="http://www.w3.org/2000/svg"
   xmlns:svg="http://www.w3.org/2000/svg"><sodipodi:namedview
     id="namedview1865"
     pagecolor="#6c6c6c"
     bordercolor="#000000"
     borderopacity="0.25"
     inkscape:showpageshadow="2"
     inkscape:pageopacity="0"
     inkscape:pagecheckerboard="false"
     inkscape:deskcolor="#272727"
     inkscape:document-units="px"
     showgrid="true"
     inkscape:zoom="1.9430384"
     inkscape:cx="57.127025"
     inkscape:cy="102.93158"
     inkscape:window-width="1920"
     inkscape:window-height="1057"
     inkscape:window-x="1912"
     inkscape:window-y="-8"
     inkscape:window-maximized="1"
     inkscape:current-layer="layer6"
     showguides="true"><inkscape:grid
       type="xygrid"
       id="grid4396"
       originx="552.83732"
       originy="196.47624" /><sodipodi:guide
       position="134.12051,37.276709"
       orientation="0,-1"
       id="guide3294"
       inkscape:locked="false" /><sodipodi:guide
       position="32.951288,-27.500711"
       orientation="1,0"
       id="guide3296"
       inkscape:locked="false" /><sodipodi:guide
       position="284.78258,-42.057431"
       orientation="1,0"
       id="guide3298"
       inkscape:locked="false" /><sodipodi:guide
       position="169.05666,-100.28434"
       orientation="0,-1"
       id="guide6208"
       inkscape:locked="false" /></sodipodi:namedview><defs
     id="defs1860" /><path
     id="rect23044"
     style="display:none;fill:#ffffff;fill-opacity:1;stroke:none;stroke-width:12.7846;stroke-linecap:square;stroke-miterlimit:6;stroke-dasharray:none;stroke-opacity:1;paint-order:markers stroke fill"
     inkscape:label="Outline"
     d="m 261.99911,351.99924 c 0,0 -22.50587,2.93938 -29.65159,9.47633 -8.52544,7.79911 -10.34653,30.52403 -10.34653,30.52403 v 100.48451 h -8.22777 c -18.84801,1.11719 -21.84833,4.80365 -22.17464,16.45239 0.0926,0.18688 0.13009,0.4374 0.19383,0.65914 h -41.95647 a 27.04544,22.667068 0 0 0 -24.13077,-12.43032 27.04544,22.667068 0 0 0 -27.044901,22.66662 27.04544,22.667068 0 0 0 27.044901,22.66662 27.04544,22.667068 0 0 0 24.43377,-13.05399 h 41.47301 c 0.38648,13.27146 4.58304,16.31549 30.38904,16.97149 v 101.58432 c 0,0 1.51154,21.68478 9.46649,29.29351 7.27067,6.95422 30.53163,10.70685 30.53163,10.70685 h 512.00177 c 0,0 22.75364,-4.29988 29.94345,-11.1998 7.85089,-7.53436 10.05467,-28.80056 10.05467,-28.80056 V 546.431 c 26.4698,-0.61795 30.77913,-3.5966 31.17995,-16.98643 h 41.23685 a 27.04544,22.667068 0 0 0 24.43154,13.05399 27.04544,22.667068 0 0 0 27.04491,-22.66662 27.04544,22.667068 0 0 0 -27.04491,-22.66662 27.04544,22.667068 0 0 0 -24.12185,12.43032 h -41.56436 c -0.36387,-12.28456 -3.65972,-16.03219 -23.79658,-17.11153 H 813.999 V 391.9996 c 0,0 -2.0777,-22.72293 -10.64062,-30.52403 -7.09991,-6.46825 -29.3575,-9.47633 -29.3575,-9.47633 z"
     transform="matrix(0.87665254,0,0,1.0459868,-299.2687,-475.43675)"
     sodipodi:insensitive="true" /><path
     id="path15100-1"
     style="display:none;fill:#000000;fill-opacity:1;stroke:none;stroke-width:9.24822;stroke-linecap:square;stroke-linejoin:miter;stroke-dasharray:none;stroke-dashoffset:0;stroke-opacity:1;paint-order:markers stroke fill"
     inkscape:label="Antenna"
     inkscape:transform-center-x="-1.0997274e-05"
     inkscape:transform-center-y="4.8440962e-06"
     d="m -263.5279,332.3336 c 0,84.02977 34.58322,168.05979 103.74731,196.76172 57.07609,23.68561 139.207315,37.57134 225.703062,41.71094 0.898767,26.67687 6.998003,27.81985 42.384288,27.73047 v 41.5957 a 42.063729,17.704918 0 0 0 -29.252304,16.85742 42.063729,17.704918 0 0 0 42.064114,17.70508 42.063729,17.704918 0 0 0 42.0641,-17.70508 42.063729,17.704918 0 0 0 -28.97388,-16.81836 v -41.63086 c 33.21759,0.0406 39.03199,-2.12997 40.03166,-27.63476 87.3578,-3.9984 170.46708,-17.91032 228.06033,-41.81055 138.32818,-57.40386 138.32818,-336.11958 0,-393.52344 C 344.70753,111.67165 261.59825,97.759731 174.24045,93.761331 173.27635,67.95617 167.56084,65.699046 134.20879,65.739846 V 24.112893 A 42.063729,17.704918 0 0 0 163.18267,7.2906269 42.063729,17.704918 0 0 0 121.11857,-10.414451 42.063729,17.704918 0 0 0 79.054456,7.2906269 42.063729,17.704918 0 0 0 108.30676,24.148049 V 65.743753 C 73.078227,65.654762 67.075956,67.527602 66.06168,93.855081 -20.485061,97.986428 -102.67394,111.87358 -159.78059,135.57188 -228.94468,164.27381 -263.5279,248.30383 -263.5279,332.3336 Z"
     transform="matrix(0,0.44639242,-1.0605488,0,507.43401,14.232583)"
     sodipodi:insensitive="true" /><path
     id="rect23044-1"
     style="display:none;fill:#ffffff;fill-opacity:1;stroke:#000000;stroke-width:12.7846;stroke-linecap:square;stroke-miterlimit:6;stroke-dasharray:none;stroke-opacity:1;paint-order:markers stroke fill"
     d="m 230.00001,359.99989 c 7.7746,-7.7746 32,-8 32,-8 h 512 c 0,0 24.2254,0.2254 32,8 7.7746,7.7746 8,32 8,32 v 256 c 0,0 -0.2254,24.2254 -8,32 -7.7746,7.7746 -32,8 -32,8 h -512 c 0,0 -24.2254,-0.2254 -32,-8 -7.7746,-7.7746 -8,-32 -8,-32 v -256 c 0,0 0.2254,-24.2254 8,-32 z"
     sodipodi:nodetypes="accaccaccacca"
     inkscape:label="TapeHeadOuter"
     transform="matrix(0.84468676,0,0,0.97666904,-282.71043,-439.39154)"
     sodipodi:insensitive="true" /><path
     id="rect23044-7"
     style="display:none;stroke:#ffffff;stroke-width:7.13426;stroke-linecap:square;stroke-miterlimit:6;stroke-dasharray:none;paint-order:markers stroke fill"
     d="m 228.4875,358.01494 c 7.91353,-7.18357 33.51251,-6.01505 33.51251,-6.01505 h 512 c 0,0 26.24546,-1.37577 34.26876,6.01505 9.0134,8.30287 5.73124,33.98495 5.73124,33.98495 v 256 c 0,0 2.49422,26.91807 -7.24375,35.30824 -7.88323,6.79216 -32.75625,4.69176 -32.75625,4.69176 h -512 c 0,0 -26.20013,1.9425 -34.26876,-5.3534 -9.27444,-8.38624 -5.73124,-34.6466 -5.73124,-34.6466 v -256 c 0,0 -2.62236,-25.71539 6.48749,-33.98495 z"
     sodipodi:nodetypes="accaccaccacca"
     inkscape:label="TapeHeadInner"
     transform="matrix(0.81508816,0,0,0.90465106,-267.69335,-402.89123)"
     sodipodi:insensitive="true" /><g
     inkscape:groupmode="layer"
     id="layer7"
     inkscape:label="RightEyewheel"
     inkscape:highlight-color="#d00fd0"
     style="display:none"
     transform="translate(-360.48516,-451.52363)"
     sodipodi:insensitive="true"><circle
       style="display:inline;fill:#060606;fill-opacity:1;stroke:#ffffff;stroke-width:4.58932;stroke-linecap:round;stroke-miterlimit:6;stroke-dasharray:none;stroke-opacity:1;paint-order:markers stroke fill"
       id="path29138-3-3"
       cx="665.30963"
       cy="448.90515"
       r="11.401476"
       transform="matrix(1.7065429,0,0,1.7065429,-490.25101,-277.93825)"
       sodipodi:insensitive="true" /><circle
       style="display:inline;fill:none;fill-opacity:1;stroke:#ff16fc;stroke-width:2.85383;stroke-linecap:round;stroke-miterlimit:6;stroke-dasharray:none;stroke-opacity:1;paint-order:markers stroke fill"
       id="path29138-3"
       cx="665.30963"
       cy="448.90515"
       r="11.401476"
       transform="matrix(2.7443391,0,0,2.7443391,-1180.7067,-743.81025)"
       sodipodi:insensitive="true" /></g><g
     id="g34966"
     transform="rotate(123.51507,343.68636,184.89823)"
     inkscape:label="LeftEyewheel"
     style="display:inline"
     inkscape:highlight-color="#f623ff"><g
       inkscape:groupmode="layer"
       id="layer6"
       inkscape:label="Spokes"
       style="display:inline;fill:#fcfcfc;fill-opacity:1;stroke:#000000;stroke-width:3;stroke-dasharray:none;stroke-opacity:1"
       transform="matrix(-0.13884792,-0.80486201,0.80486201,-0.13884792,42.98035,895.20572)"><rect
         style="fill:#fcfcfc;fill-opacity:1;stroke:#ffffff;stroke-width:3;stroke-linecap:round;stroke-miterlimit:6;stroke-dasharray:none;stroke-opacity:1;paint-order:markers fill stroke"
         id="rect36155"
         width="10.807816"
         height="75.654709"
         x="392.68396"
         y="467.30936"
         transform="matrix(1.3495207,-0.00423638,-0.00443042,1.146682,-157.48467,-81.833421)"
         inkscape:label="Spoke2" /><rect
         style="display:inline;fill:#fcfcfc;fill-opacity:1;stroke:#ffffff;stroke-width:3;stroke-linecap:round;stroke-miterlimit:6;stroke-dasharray:none;stroke-opacity:1;paint-order:markers fill stroke"
         id="rect36155-7"
         width="10.807816"
         height="75.654709"
         x="392.68396"
         y="467.30936"
         transform="matrix(0.00762937,1.5450576,-1.1392106,-0.00797883,949.92513,-115.32699)"
         inkscape:label="Spoke1" /><circle
         style="display:inline;fill:#060606;fill-opacity:1;stroke:#ffffff;stroke-width:2.89683;stroke-linecap:round;stroke-miterlimit:6;stroke-dasharray:none;stroke-opacity:1;paint-order:markers fill stroke"
         id="path29138-3-3-9"
         cx="665.30963"
         cy="448.90515"
         r="11.401476"
         transform="matrix(2.2720551,-0.99865049,0.99865049,2.2720551,-1582.3609,140.1642)"
         inkscape:label="SpokeCenter" /></g><rect
       style="display:none;fill:#ffffff;fill-opacity:1;stroke:none;stroke-width:12;stroke-linecap:round;stroke-miterlimit:6;stroke-dasharray:none;stroke-opacity:1;paint-order:markers stroke fill"
       id="rect32839"
       width="6"
       height="123.30209"
       x="340.81967"
       y="555.17566"
       transform="matrix(-0.63718723,-0.96213496,1.2976488,-0.85938588,-70.16351,1389.0597)"
       inkscape:label="MonacleTape" /><circle
       style="display:none;fill:none;fill-opacity:1;stroke:#ffffff;stroke-width:1.09278;stroke-linecap:round;stroke-miterlimit:6;stroke-dasharray:none;stroke-opacity:1;paint-order:markers stroke fill"
       id="path29138-5"
       cx="665.30963"
       cy="448.90515"
       r="11.401476"
       transform="matrix(-3.4985308,-5.2826841,5.2826841,-3.4985308,345.51917,5607.3524)"
       inkscape:label="ReelOuter" /><circle
       style="display:none;fill:none;fill-opacity:1;stroke:#ffffff;stroke-width:1.0544;stroke-linecap:round;stroke-miterlimit:6;stroke-dasharray:none;stroke-opacity:1;paint-order:markers stroke fill"
       id="path29138-3-3-9-4"
       cx="665.30963"
       cy="448.90515"
       r="11.401476"
       transform="matrix(-2.1703254,-3.277131,3.277131,-2.1703254,362.3363,3677.0747)"
       inkscape:label="ReelInner" /><circle
       style="display:none;fill:none;fill-opacity:1;stroke:#ff16fc;stroke-width:1.09874;stroke-linecap:round;stroke-miterlimit:6;stroke-dasharray:none;stroke-opacity:1;paint-order:markers stroke fill"
       id="path34829-0-9-4"
       cx="399.28293"
       cy="505.11697"
       r="20.311583"
       transform="matrix(3.1508879,0,0,3.1508879,-868.6952,-1069.204)"
       inkscape:label="TapeLoop3" /><circle
       style="display:none;fill:none;fill-opacity:1;stroke:#ff16fc;stroke-width:1.2152;stroke-linecap:round;stroke-miterlimit:6;stroke-dasharray:none;stroke-opacity:1;paint-order:markers stroke fill"
       id="path34829-0-9-4-4"
       cx="399.28293"
       cy="505.11697"
       r="20.311583"
       transform="matrix(2.8489062,0,0,2.8489062,-748.11907,-916.66826)"
       inkscape:label="TapeLoop2" /><circle
       style="display:none;fill:none;fill-opacity:1;stroke:#ff16fc;stroke-width:1.35928;stroke-linecap:round;stroke-miterlimit:6;stroke-dasharray:none;stroke-opacity:1;paint-order:markers stroke fill"
       id="path34829-0-9-4-4-9"
       cx="399.28293"
       cy="505.11697"
       r="20.311583"
       transform="matrix(2.5469246,0,0,2.5469246,-627.54294,-764.13218)"
       inkscape:label="TapeLoop1" /><circle
       style="display:none;fill:#ffffff;fill-opacity:1;stroke:#000000;stroke-width:4.58932;stroke-linecap:round;stroke-miterlimit:6;stroke-dasharray:none;stroke-opacity:1;paint-order:markers stroke fill"
       id="path29138-3-3-6"
       cx="665.30963"
       cy="448.90515"
       r="11.401476"
       transform="matrix(-0.59601983,-0.89997335,0.89997335,-0.59601983,382.05393,1388.8151)"
       inkscape:label="WheelCore" /></g><g
     inkscape:groupmode="layer"
     id="layer8"
     inkscape:label="Mouth"
     inkscape:highlight-color="#00bfff"
     style="display:none"
     transform="translate(-328.70702,-444.42568)"
     sodipodi:insensitive="true"><path
       id="rect31554-2"
       style="display:inline;fill:#000000;fill-opacity:1;stroke:#ffffff;stroke-width:3.48641;stroke-linecap:round;stroke-miterlimit:6;stroke-dasharray:none;stroke-opacity:1;paint-order:markers stroke fill"
       d="m 616.13304,465.14346 a 3.1298169,3.9304677 0 0 0 -3.12934,3.93241 3.1298169,3.9304677 0 0 0 0.0223,0.39681 h -0.0284 v 25.03924 h 0.0446 a 3.1298169,3.9304677 0 0 0 -0.0385,0.61047 3.1298169,3.9304677 0 0 0 3.12934,3.92986 3.1298169,3.9304677 0 0 0 3.12934,-3.92986 3.1298169,3.9304677 0 0 0 -0.0385,-0.61047 h 0.0324 v -25.03924 h -0.0162 a 3.1298169,3.9304677 0 0 0 0.0223,-0.39681 3.1298169,3.9304677 0 0 0 -3.12934,-3.93241 z"
       transform="matrix(1.4461766,0,0,1.0239594,-457.21144,130.76314)"
       inkscape:label="SpectrumTooth" /><path
       id="rect31554-2-4"
       style="display:inline;fill:#000000;fill-opacity:1;stroke:#ffffff;stroke-width:3.48641;stroke-linecap:round;stroke-miterlimit:6;stroke-dasharray:none;stroke-opacity:1;paint-order:markers stroke fill"
       d="m 616.13304,465.14346 a 3.1298169,3.9304677 0 0 0 -3.12934,3.93241 3.1298169,3.9304677 0 0 0 0.0223,0.39681 h -0.0284 v 25.03924 h 0.0446 a 3.1298169,3.9304677 0 0 0 -0.0385,0.61047 3.1298169,3.9304677 0 0 0 3.12934,3.92986 3.1298169,3.9304677 0 0 0 3.12934,-3.92986 3.1298169,3.9304677 0 0 0 -0.0385,-0.61047 h 0.0324 v -25.03924 h -0.0162 a 3.1298169,3.9304677 0 0 0 0.0223,-0.39681 3.1298169,3.9304677 0 0 0 -3.12934,-3.93241 z"
       transform="matrix(1.4461766,0,0,1.0239594,-433.21144,130.76314)"
       inkscape:label="SpectrumTooth" /><path
       id="rect31554-2-4-8"
       style="display:inline;fill:#000000;fill-opacity:1;stroke:#ffffff;stroke-width:3.48641;stroke-linecap:round;stroke-miterlimit:6;stroke-dasharray:none;stroke-opacity:1;paint-order:markers stroke fill"
       d="m 616.13304,465.14346 a 3.1298169,3.9304677 0 0 0 -3.12934,3.93241 3.1298169,3.9304677 0 0 0 0.0223,0.39681 h -0.0284 v 25.03924 h 0.0446 a 3.1298169,3.9304677 0 0 0 -0.0385,0.61047 3.1298169,3.9304677 0 0 0 3.12934,3.92986 3.1298169,3.9304677 0 0 0 3.12934,-3.92986 3.1298169,3.9304677 0 0 0 -0.0385,-0.61047 h 0.0324 v -25.03924 h -0.0162 a 3.1298169,3.9304677 0 0 0 0.0223,-0.39681 3.1298169,3.9304677 0 0 0 -3.12934,-3.93241 z"
       transform="matrix(1.4461766,0,0,1.0239594,-409.21144,130.76314)"
       inkscape:label="SpectrumTooth" /><path
       id="rect31554-2-4-8-8"
       style="display:inline;fill:#000000;fill-opacity:1;stroke:#ffffff;stroke-width:3.48641;stroke-linecap:round;stroke-miterlimit:6;stroke-dasharray:none;stroke-opacity:1;paint-order:markers stroke fill"
       d="m 616.13304,465.14346 a 3.1298169,3.9304677 0 0 0 -3.12934,3.93241 3.1298169,3.9304677 0 0 0 0.0223,0.39681 h -0.0284 v 25.03924 h 0.0446 a 3.1298169,3.9304677 0 0 0 -0.0385,0.61047 3.1298169,3.9304677 0 0 0 3.12934,3.92986 3.1298169,3.9304677 0 0 0 3.12934,-3.92986 3.1298169,3.9304677 0 0 0 -0.0385,-0.61047 h 0.0324 v -25.03924 h -0.0162 a 3.1298169,3.9304677 0 0 0 0.0223,-0.39681 3.1298169,3.9304677 0 0 0 -3.12934,-3.93241 z"
       transform="matrix(1.4461766,0,0,1.0239594,-385.21144,130.76314)"
       inkscape:label="SpectrumTooth" /><path
       id="rect31554-2-4-8-8-4"
       style="display:inline;fill:#000000;fill-opacity:1;stroke:#ffffff;stroke-width:3.48641;stroke-linecap:round;stroke-miterlimit:6;stroke-dasharray:none;stroke-opacity:1;paint-order:markers stroke fill"
       d="m 616.13304,465.14346 a 3.1298169,3.9304677 0 0 0 -3.12934,3.93241 3.1298169,3.9304677 0 0 0 0.0223,0.39681 h -0.0284 v 25.03924 h 0.0446 a 3.1298169,3.9304677 0 0 0 -0.0385,0.61047 3.1298169,3.9304677 0 0 0 3.12934,3.92986 3.1298169,3.9304677 0 0 0 3.12934,-3.92986 3.1298169,3.9304677 0 0 0 -0.0385,-0.61047 h 0.0324 v -25.03924 h -0.0162 a 3.1298169,3.9304677 0 0 0 0.0223,-0.39681 3.1298169,3.9304677 0 0 0 -3.12934,-3.93241 z"
       transform="matrix(1.4461766,0,0,1.0239594,-361.21144,130.76314)"
       inkscape:label="SpectrumTooth" /><path
       id="rect31554-2-4-8-8-4-8"
       style="display:inline;fill:#000000;fill-opacity:1;stroke:#ffffff;stroke-width:3.48641;stroke-linecap:round;stroke-miterlimit:6;stroke-dasharray:none;stroke-opacity:1;paint-order:markers stroke fill"
       d="m 616.13304,465.14346 a 3.1298169,3.9304677 0 0 0 -3.12934,3.93241 3.1298169,3.9304677 0 0 0 0.0223,0.39681 h -0.0284 v 25.03924 h 0.0446 a 3.1298169,3.9304677 0 0 0 -0.0385,0.61047 3.1298169,3.9304677 0 0 0 3.12934,3.92986 3.1298169,3.9304677 0 0 0 3.12934,-3.92986 3.1298169,3.9304677 0 0 0 -0.0385,-0.61047 h 0.0324 v -25.03924 h -0.0162 a 3.1298169,3.9304677 0 0 0 0.0223,-0.39681 3.1298169,3.9304677 0 0 0 -3.12934,-3.93241 z"
       transform="matrix(1.4461766,0,0,1.0239594,-337.21144,130.76314)"
       inkscape:label="SpectrumTooth" /></g></svg>
