<?xml version="1.0" encoding="UTF-8" standalone="no"?>
<!-- Created with Inkscape (http://www.inkscape.org/) -->

<svg
   width="1024"
   height="1024"
   viewBox="0 0 1024 1023.9999"
   version="1.1"
   id="svg1863"
   inkscape:version="1.2 (dc2aedaf03, 2022-05-15)"
   sodipodi:docname="TiLLI.svg"
   inkscape:export-filename="icon_192x192.png"
   inkscape:export-xdpi="96"
   inkscape:export-ydpi="96"
   xml:space="preserve"
   xmlns:inkscape="http://www.inkscape.org/namespaces/inkscape"
   xmlns:sodipodi="http://sodipodi.sourceforge.net/DTD/sodipodi-0.dtd"
   xmlns="http://www.w3.org/2000/svg"
   xmlns:svg="http://www.w3.org/2000/svg"><sodipodi:namedview
     id="namedview1865"
     pagecolor="#6c6c6c"
     bordercolor="#000000"
     borderopacity="0.25"
     inkscape:showpageshadow="2"
     inkscape:pageopacity="0"
     inkscape:pagecheckerboard="false"
     inkscape:deskcolor="#272727"
     inkscape:document-units="px"
     showgrid="true"
     inkscape:zoom="0.55913815"
     inkscape:cx="521.33806"
     inkscape:cy="549.05929"
     inkscape:window-width="1920"
     inkscape:window-height="1057"
     inkscape:window-x="1912"
     inkscape:window-y="-8"
     inkscape:window-maximized="1"
     inkscape:current-layer="svg1863"
     showguides="true"><inkscape:grid
       type="xygrid"
       id="grid4396"
       originx="902.00001"
       originy="647.99989" /></sodipodi:namedview><defs
     id="defs1860" /><path
     id="path16540"
     style="display:inline;fill:#ffffff;fill-opacity:1;stroke:none;stroke-width:6;stroke-linecap:square;stroke-linejoin:miter;stroke-miterlimit:6;stroke-dasharray:none;stroke-dashoffset:0;stroke-opacity:1;paint-order:markers stroke fill"
     inkscape:label="Outline"
     d="m 454.21108,298.06957 c -99.66858,0 -199.33837,17.41958 -233.38203,52.25891 -27.34486,27.98396 -43.68144,67.92474 -49.06211,110.21133 h -9.42047 c -18.07263,1.27815 -20.95001,5.49578 -21.26289,18.82281 0.0888,0.2138 0.12466,0.50076 0.18578,0.75445 h -40.2307 a 25.932768,25.932768 0 0 0 -23.136566,-14.22133 25.932768,25.932768 0 0 0 -25.932344,25.93235 25.932768,25.932768 0 0 0 25.932344,25.93234 25.932768,25.932768 0 0 0 23.428826,-14.935 h 39.76625 c 0.3781,15.49195 4.41577,18.82201 30.53383,19.47758 5.25549,42.63754 21.6488,82.96296 49.19805,111.1561 68.08731,69.67865 398.67448,69.67865 466.7618,0 27.54877,-28.19264 43.94226,-68.51712 49.19805,-111.15383 26.45414,-0.63448 30.59665,-3.92268 30.98695,-19.47985 h 39.53969 a 25.932768,25.932768 0 0 0 23.42656,14.935 25.932768,25.932768 0 0 0 25.93234,-25.93234 25.932768,25.932768 0 0 0 -25.93234,-25.93235 25.932768,25.932768 0 0 0 -23.12977,14.22133 h -39.85461 c -0.3489,-14.05445 -3.50866,-18.34241 -22.81711,-19.57726 h -8.28539 C 731.27459,418.25312 714.93576,378.3125 687.59085,350.32848 653.54719,315.48915 553.87966,298.06957 454.21108,298.06957 Z"
     transform="matrix(0.91426622,0,0,0.91426622,96.870846,70.162881)" /><path
     id="path15100-1"
     style="display:inline;fill:#000000;fill-opacity:1;stroke:none;stroke-width:9.24822;stroke-linecap:square;stroke-linejoin:miter;stroke-dasharray:none;stroke-dashoffset:0;stroke-opacity:1;paint-order:markers stroke fill"
     inkscape:label="Antenna"
     inkscape:transform-center-x="-1.0997274e-05"
     inkscape:transform-center-y="4.8440962e-06"
     d="m -263.5279,332.3336 c 0,84.02977 34.58322,168.05979 103.74731,196.76172 57.07609,23.68561 139.207315,37.57134 225.703062,41.71094 0.898767,26.67687 6.998003,27.81985 42.384288,27.73047 v 41.5957 a 42.063729,17.704918 0 0 0 -29.252304,16.85742 42.063729,17.704918 0 0 0 42.064114,17.70508 42.063729,17.704918 0 0 0 42.0641,-17.70508 42.063729,17.704918 0 0 0 -28.97388,-16.81836 v -41.63086 c 33.21759,0.0406 39.03199,-2.12997 40.03166,-27.63476 87.3578,-3.9984 170.46708,-17.91032 228.06033,-41.81055 138.32818,-57.40386 138.32818,-336.11958 0,-393.52344 C 344.70753,111.67165 261.59825,97.759731 174.24045,93.761331 173.27635,67.95617 167.56084,65.699046 134.20879,65.739846 V 24.112893 A 42.063729,17.704918 0 0 0 163.18267,7.2906269 42.063729,17.704918 0 0 0 121.11857,-10.414451 42.063729,17.704918 0 0 0 79.054456,7.2906269 42.063729,17.704918 0 0 0 108.30676,24.148049 V 65.743753 C 73.078227,65.654762 67.075956,67.527602 66.06168,93.855081 -20.485061,97.986428 -102.67394,111.87358 -159.78059,135.57188 -228.94468,164.27381 -263.5279,248.30383 -263.5279,332.3336 Z"
     transform="matrix(0,0.44639242,-1.0605488,0,864.5967,465.75621)" /><path
     id="rect13159-0"
     style="display:inline;stroke:#ffffff;stroke-width:4.69834;stroke-linecap:round;stroke-linejoin:round;stroke-dasharray:none;paint-order:markers fill stroke"
     transform="matrix(1.3543691,0,0,1.3543691,342.1006,283.52088)"
     d="m -19.533959,88.52459 c 42.327048,-42.327048 247.839229,-42.327048 290.166279,0 42.32705,42.32705 42.32705,129.66358 0,171.99063 -42.32705,42.32705 -247.839231,42.32705 -290.166279,0 -42.327048,-42.32705 -42.327048,-129.66358 0,-171.99063 z"
     sodipodi:nodetypes="zzzzz"
     inkscape:label="Head" /></svg>
